G04 #@! TF.GenerationSoftware,KiCad,Pcbnew,(5.1.5)-3*
G04 #@! TF.CreationDate,2022-02-18T13:47:20-05:00*
G04 #@! TF.ProjectId,Motor board,4d6f746f-7220-4626-9f61-72642e6b6963,rev?*
G04 #@! TF.SameCoordinates,Original*
G04 #@! TF.FileFunction,Copper,L2,Bot*
G04 #@! TF.FilePolarity,Positive*
%FSLAX46Y46*%
G04 Gerber Fmt 4.6, Leading zero omitted, Abs format (unit mm)*
G04 Created by KiCad (PCBNEW (5.1.5)-3) date 2022-02-18 13:47:20*
%MOMM*%
%LPD*%
G04 APERTURE LIST*
%ADD10O,1.700000X1.700000*%
%ADD11R,1.700000X1.700000*%
%ADD12C,3.200000*%
%ADD13C,0.800000*%
%ADD14C,0.250000*%
%ADD15C,0.254000*%
G04 APERTURE END LIST*
D10*
X197750000Y-43290000D03*
X197750000Y-40750000D03*
D11*
X197750000Y-38210000D03*
X197750000Y-47000000D03*
D10*
X197750000Y-49540000D03*
X197750000Y-52080000D03*
X197750000Y-61040000D03*
X197750000Y-58500000D03*
D11*
X197750000Y-55960000D03*
X197750000Y-64710000D03*
D10*
X197750000Y-67250000D03*
X197750000Y-69790000D03*
X197750000Y-78540000D03*
X197750000Y-76000000D03*
D11*
X197750000Y-73460000D03*
X197750000Y-82210000D03*
D10*
X197750000Y-84750000D03*
X197750000Y-87290000D03*
D12*
X182600000Y-87800000D03*
D13*
X166600000Y-28600000D03*
X152800000Y-43800000D03*
X152800000Y-39900000D03*
X153300000Y-31300000D03*
X153300000Y-27500000D03*
X165200000Y-31800000D03*
X167800000Y-41500000D03*
X195000000Y-53300000D03*
X153300000Y-47500000D03*
X153300000Y-35100000D03*
D12*
X190600000Y-20800000D03*
X173500000Y-29000000D03*
D13*
X180700000Y-34100000D03*
X195000000Y-62250000D03*
X195000000Y-71000000D03*
X195000000Y-79750000D03*
X195000000Y-88500000D03*
X195000000Y-44400000D03*
X164200000Y-47600000D03*
X166000000Y-30600000D03*
X185700000Y-63300000D03*
X150250000Y-43750000D03*
X164200000Y-31300000D03*
X150250000Y-46750000D03*
X165000000Y-33800000D03*
X167000000Y-35700000D03*
X181300000Y-63300000D03*
X153300000Y-33800000D03*
X167100000Y-33800000D03*
X191200000Y-38200000D03*
X153300000Y-30000000D03*
X153300000Y-42500000D03*
X167700000Y-55600000D03*
X191000000Y-64800000D03*
X153300000Y-46300000D03*
D14*
X185700000Y-50900000D02*
X185700000Y-63300000D01*
X166000000Y-31200000D02*
X185700000Y-50900000D01*
X166000000Y-30600000D02*
X166000000Y-31200000D01*
X150250000Y-35776998D02*
X150250000Y-43750000D01*
X154700000Y-31300000D02*
X154400000Y-31600000D01*
X164200000Y-31300000D02*
X154700000Y-31300000D01*
X154400000Y-31600000D02*
X150250000Y-35776998D01*
X151900000Y-45100000D02*
X150250000Y-46750000D01*
X151900000Y-42200000D02*
X151900000Y-45100000D01*
X164900000Y-33800000D02*
X160300000Y-33800000D01*
X160300000Y-33800000D02*
X151900000Y-42200000D01*
X167000000Y-49000000D02*
X181300000Y-63300000D01*
X167000000Y-35700000D02*
X167000000Y-49000000D01*
X153300000Y-33800000D02*
X154400000Y-32700000D01*
X154400000Y-32700000D02*
X166000000Y-32700000D01*
X166000000Y-32700000D02*
X167100000Y-33800000D01*
X190634315Y-38200000D02*
X191200000Y-38200000D01*
X179850998Y-38200000D02*
X190634315Y-38200000D01*
X171125997Y-29474999D02*
X179850998Y-38200000D01*
X154390686Y-29474999D02*
X171125997Y-29474999D01*
X153865685Y-30000000D02*
X154390686Y-29474999D01*
X153300000Y-30000000D02*
X153865685Y-30000000D01*
X167134315Y-55600000D02*
X167700000Y-55600000D01*
X165834315Y-55600000D02*
X167134315Y-55600000D01*
X153300000Y-43065685D02*
X165834315Y-55600000D01*
X153300000Y-42500000D02*
X153300000Y-43065685D01*
X171800000Y-64800000D02*
X155200000Y-48200000D01*
X191000000Y-64800000D02*
X171800000Y-64800000D01*
X155200000Y-48200000D02*
X153300000Y-46300000D01*
D15*
G36*
X200749189Y-17376997D02*
G01*
X200750000Y-17377000D01*
X208433641Y-17377000D01*
X212372831Y-23039586D01*
X212123236Y-81943915D01*
X203236599Y-90090000D01*
X172267855Y-90090000D01*
X172254271Y-90089264D01*
X169275767Y-87646890D01*
X196308524Y-87646890D01*
X196353175Y-87794099D01*
X196478359Y-88056920D01*
X196652412Y-88290269D01*
X196868645Y-88485178D01*
X197118748Y-88634157D01*
X197393109Y-88731481D01*
X197623000Y-88610814D01*
X197623000Y-87417000D01*
X197877000Y-87417000D01*
X197877000Y-88610814D01*
X198106891Y-88731481D01*
X198381252Y-88634157D01*
X198631355Y-88485178D01*
X198847588Y-88290269D01*
X199021641Y-88056920D01*
X199146825Y-87794099D01*
X199191476Y-87646890D01*
X199070155Y-87417000D01*
X197877000Y-87417000D01*
X197623000Y-87417000D01*
X196429845Y-87417000D01*
X196308524Y-87646890D01*
X169275767Y-87646890D01*
X161608827Y-81360000D01*
X196261928Y-81360000D01*
X196261928Y-83060000D01*
X196274188Y-83184482D01*
X196310498Y-83304180D01*
X196369463Y-83414494D01*
X196448815Y-83511185D01*
X196545506Y-83590537D01*
X196655820Y-83649502D01*
X196728380Y-83671513D01*
X196596525Y-83803368D01*
X196434010Y-84046589D01*
X196322068Y-84316842D01*
X196265000Y-84603740D01*
X196265000Y-84896260D01*
X196322068Y-85183158D01*
X196434010Y-85453411D01*
X196596525Y-85696632D01*
X196803368Y-85903475D01*
X196985534Y-86025195D01*
X196868645Y-86094822D01*
X196652412Y-86289731D01*
X196478359Y-86523080D01*
X196353175Y-86785901D01*
X196308524Y-86933110D01*
X196429845Y-87163000D01*
X197623000Y-87163000D01*
X197623000Y-87143000D01*
X197877000Y-87143000D01*
X197877000Y-87163000D01*
X199070155Y-87163000D01*
X199191476Y-86933110D01*
X199146825Y-86785901D01*
X199021641Y-86523080D01*
X198847588Y-86289731D01*
X198631355Y-86094822D01*
X198514466Y-86025195D01*
X198696632Y-85903475D01*
X198903475Y-85696632D01*
X199065990Y-85453411D01*
X199177932Y-85183158D01*
X199235000Y-84896260D01*
X199235000Y-84603740D01*
X199177932Y-84316842D01*
X199065990Y-84046589D01*
X198903475Y-83803368D01*
X198771620Y-83671513D01*
X198844180Y-83649502D01*
X198954494Y-83590537D01*
X199051185Y-83511185D01*
X199130537Y-83414494D01*
X199189502Y-83304180D01*
X199225812Y-83184482D01*
X199238072Y-83060000D01*
X199238072Y-81360000D01*
X199225812Y-81235518D01*
X199189502Y-81115820D01*
X199130537Y-81005506D01*
X199051185Y-80908815D01*
X198954494Y-80829463D01*
X198844180Y-80770498D01*
X198724482Y-80734188D01*
X198600000Y-80721928D01*
X196900000Y-80721928D01*
X196775518Y-80734188D01*
X196655820Y-80770498D01*
X196545506Y-80829463D01*
X196448815Y-80908815D01*
X196369463Y-81005506D01*
X196310498Y-81115820D01*
X196274188Y-81235518D01*
X196261928Y-81360000D01*
X161608827Y-81360000D01*
X159877000Y-79939902D01*
X159877000Y-78896890D01*
X196308524Y-78896890D01*
X196353175Y-79044099D01*
X196478359Y-79306920D01*
X196652412Y-79540269D01*
X196868645Y-79735178D01*
X197118748Y-79884157D01*
X197393109Y-79981481D01*
X197623000Y-79860814D01*
X197623000Y-78667000D01*
X197877000Y-78667000D01*
X197877000Y-79860814D01*
X198106891Y-79981481D01*
X198381252Y-79884157D01*
X198631355Y-79735178D01*
X198847588Y-79540269D01*
X199021641Y-79306920D01*
X199146825Y-79044099D01*
X199191476Y-78896890D01*
X199070155Y-78667000D01*
X197877000Y-78667000D01*
X197623000Y-78667000D01*
X196429845Y-78667000D01*
X196308524Y-78896890D01*
X159877000Y-78896890D01*
X159877000Y-72610000D01*
X196261928Y-72610000D01*
X196261928Y-74310000D01*
X196274188Y-74434482D01*
X196310498Y-74554180D01*
X196369463Y-74664494D01*
X196448815Y-74761185D01*
X196545506Y-74840537D01*
X196655820Y-74899502D01*
X196728380Y-74921513D01*
X196596525Y-75053368D01*
X196434010Y-75296589D01*
X196322068Y-75566842D01*
X196265000Y-75853740D01*
X196265000Y-76146260D01*
X196322068Y-76433158D01*
X196434010Y-76703411D01*
X196596525Y-76946632D01*
X196803368Y-77153475D01*
X196985534Y-77275195D01*
X196868645Y-77344822D01*
X196652412Y-77539731D01*
X196478359Y-77773080D01*
X196353175Y-78035901D01*
X196308524Y-78183110D01*
X196429845Y-78413000D01*
X197623000Y-78413000D01*
X197623000Y-78393000D01*
X197877000Y-78393000D01*
X197877000Y-78413000D01*
X199070155Y-78413000D01*
X199191476Y-78183110D01*
X199146825Y-78035901D01*
X199021641Y-77773080D01*
X198847588Y-77539731D01*
X198631355Y-77344822D01*
X198514466Y-77275195D01*
X198696632Y-77153475D01*
X198903475Y-76946632D01*
X199065990Y-76703411D01*
X199177932Y-76433158D01*
X199235000Y-76146260D01*
X199235000Y-75853740D01*
X199177932Y-75566842D01*
X199065990Y-75296589D01*
X198903475Y-75053368D01*
X198771620Y-74921513D01*
X198844180Y-74899502D01*
X198954494Y-74840537D01*
X199051185Y-74761185D01*
X199130537Y-74664494D01*
X199189502Y-74554180D01*
X199225812Y-74434482D01*
X199238072Y-74310000D01*
X199238072Y-72610000D01*
X199225812Y-72485518D01*
X199189502Y-72365820D01*
X199130537Y-72255506D01*
X199051185Y-72158815D01*
X198954494Y-72079463D01*
X198844180Y-72020498D01*
X198724482Y-71984188D01*
X198600000Y-71971928D01*
X196900000Y-71971928D01*
X196775518Y-71984188D01*
X196655820Y-72020498D01*
X196545506Y-72079463D01*
X196448815Y-72158815D01*
X196369463Y-72255506D01*
X196310498Y-72365820D01*
X196274188Y-72485518D01*
X196261928Y-72610000D01*
X159877000Y-72610000D01*
X159877000Y-70146890D01*
X196308524Y-70146890D01*
X196353175Y-70294099D01*
X196478359Y-70556920D01*
X196652412Y-70790269D01*
X196868645Y-70985178D01*
X197118748Y-71134157D01*
X197393109Y-71231481D01*
X197623000Y-71110814D01*
X197623000Y-69917000D01*
X197877000Y-69917000D01*
X197877000Y-71110814D01*
X198106891Y-71231481D01*
X198381252Y-71134157D01*
X198631355Y-70985178D01*
X198847588Y-70790269D01*
X199021641Y-70556920D01*
X199146825Y-70294099D01*
X199191476Y-70146890D01*
X199070155Y-69917000D01*
X197877000Y-69917000D01*
X197623000Y-69917000D01*
X196429845Y-69917000D01*
X196308524Y-70146890D01*
X159877000Y-70146890D01*
X159877000Y-56000000D01*
X159874560Y-55975224D01*
X159867333Y-55951399D01*
X159855597Y-55929443D01*
X159839803Y-55910197D01*
X159813010Y-55889733D01*
X151063010Y-50889733D01*
X151040287Y-50879559D01*
X151016016Y-50874014D01*
X151000000Y-50873000D01*
X146608686Y-50873000D01*
X146050777Y-50841808D01*
X146032419Y-50840000D01*
X122990776Y-50840000D01*
X117628215Y-47183708D01*
X117691920Y-43648061D01*
X149215000Y-43648061D01*
X149215000Y-43851939D01*
X149254774Y-44051898D01*
X149332795Y-44240256D01*
X149446063Y-44409774D01*
X149590226Y-44553937D01*
X149759744Y-44667205D01*
X149948102Y-44745226D01*
X150148061Y-44785000D01*
X150351939Y-44785000D01*
X150551898Y-44745226D01*
X150740256Y-44667205D01*
X150909774Y-44553937D01*
X151053937Y-44409774D01*
X151140001Y-44280970D01*
X151140001Y-44785196D01*
X150210198Y-45715000D01*
X150148061Y-45715000D01*
X149948102Y-45754774D01*
X149759744Y-45832795D01*
X149590226Y-45946063D01*
X149446063Y-46090226D01*
X149332795Y-46259744D01*
X149254774Y-46448102D01*
X149215000Y-46648061D01*
X149215000Y-46851939D01*
X149254774Y-47051898D01*
X149332795Y-47240256D01*
X149446063Y-47409774D01*
X149590226Y-47553937D01*
X149759744Y-47667205D01*
X149948102Y-47745226D01*
X150148061Y-47785000D01*
X150351939Y-47785000D01*
X150551898Y-47745226D01*
X150740256Y-47667205D01*
X150909774Y-47553937D01*
X151053937Y-47409774D01*
X151167205Y-47240256D01*
X151245226Y-47051898D01*
X151285000Y-46851939D01*
X151285000Y-46789802D01*
X152411008Y-45663795D01*
X152440001Y-45640001D01*
X152463795Y-45611008D01*
X152463799Y-45611004D01*
X152534973Y-45524277D01*
X152539955Y-45514957D01*
X152605546Y-45392247D01*
X152649003Y-45248986D01*
X152660000Y-45137333D01*
X152660000Y-45137324D01*
X152663676Y-45100001D01*
X152660000Y-45062678D01*
X152660000Y-43480558D01*
X152665026Y-43489961D01*
X152736201Y-43576687D01*
X152760000Y-43605686D01*
X152788998Y-43629484D01*
X165270516Y-56111003D01*
X165294314Y-56140001D01*
X165410039Y-56234974D01*
X165542068Y-56305546D01*
X165685329Y-56349003D01*
X165796982Y-56360000D01*
X165796991Y-56360000D01*
X165834314Y-56363676D01*
X165871637Y-56360000D01*
X166996289Y-56360000D01*
X167040226Y-56403937D01*
X167209744Y-56517205D01*
X167398102Y-56595226D01*
X167598061Y-56635000D01*
X167801939Y-56635000D01*
X168001898Y-56595226D01*
X168190256Y-56517205D01*
X168359774Y-56403937D01*
X168503937Y-56259774D01*
X168617205Y-56090256D01*
X168695226Y-55901898D01*
X168735000Y-55701939D01*
X168735000Y-55498061D01*
X168695226Y-55298102D01*
X168617205Y-55109744D01*
X168503937Y-54940226D01*
X168359774Y-54796063D01*
X168190256Y-54682795D01*
X168001898Y-54604774D01*
X167801939Y-54565000D01*
X167598061Y-54565000D01*
X167398102Y-54604774D01*
X167209744Y-54682795D01*
X167040226Y-54796063D01*
X166996289Y-54840000D01*
X166149117Y-54840000D01*
X154241271Y-42932155D01*
X154295226Y-42801898D01*
X154335000Y-42601939D01*
X154335000Y-42398061D01*
X154295226Y-42198102D01*
X154217205Y-42009744D01*
X154103937Y-41840226D01*
X153959774Y-41696063D01*
X153790256Y-41582795D01*
X153650072Y-41524729D01*
X160614802Y-34560000D01*
X164296289Y-34560000D01*
X164340226Y-34603937D01*
X164509744Y-34717205D01*
X164698102Y-34795226D01*
X164898061Y-34835000D01*
X165101939Y-34835000D01*
X165301898Y-34795226D01*
X165490256Y-34717205D01*
X165659774Y-34603937D01*
X165803937Y-34459774D01*
X165917205Y-34290256D01*
X165995226Y-34101898D01*
X166035000Y-33901939D01*
X166035000Y-33809802D01*
X166065000Y-33839802D01*
X166065000Y-33901939D01*
X166104774Y-34101898D01*
X166182795Y-34290256D01*
X166296063Y-34459774D01*
X166440226Y-34603937D01*
X166609744Y-34717205D01*
X166638918Y-34729289D01*
X166509744Y-34782795D01*
X166340226Y-34896063D01*
X166196063Y-35040226D01*
X166082795Y-35209744D01*
X166004774Y-35398102D01*
X165965000Y-35598061D01*
X165965000Y-35801939D01*
X166004774Y-36001898D01*
X166082795Y-36190256D01*
X166196063Y-36359774D01*
X166240000Y-36403711D01*
X166240001Y-48962668D01*
X166236324Y-49000000D01*
X166250998Y-49148985D01*
X166294454Y-49292246D01*
X166365026Y-49424276D01*
X166396287Y-49462367D01*
X166460000Y-49540001D01*
X166488998Y-49563799D01*
X180265000Y-63339802D01*
X180265000Y-63401939D01*
X180304774Y-63601898D01*
X180382795Y-63790256D01*
X180496063Y-63959774D01*
X180576289Y-64040000D01*
X172114802Y-64040000D01*
X155763804Y-47689003D01*
X155763799Y-47688997D01*
X154335000Y-46260199D01*
X154335000Y-46198061D01*
X154295226Y-45998102D01*
X154217205Y-45809744D01*
X154103937Y-45640226D01*
X153959774Y-45496063D01*
X153790256Y-45382795D01*
X153601898Y-45304774D01*
X153401939Y-45265000D01*
X153198061Y-45265000D01*
X152998102Y-45304774D01*
X152809744Y-45382795D01*
X152640226Y-45496063D01*
X152496063Y-45640226D01*
X152382795Y-45809744D01*
X152304774Y-45998102D01*
X152265000Y-46198061D01*
X152265000Y-46401939D01*
X152304774Y-46601898D01*
X152382795Y-46790256D01*
X152496063Y-46959774D01*
X152640226Y-47103937D01*
X152809744Y-47217205D01*
X152998102Y-47295226D01*
X153198061Y-47335000D01*
X153260199Y-47335000D01*
X154688997Y-48763799D01*
X154689003Y-48763804D01*
X171236201Y-65311003D01*
X171259999Y-65340001D01*
X171288997Y-65363799D01*
X171375723Y-65434974D01*
X171507753Y-65505546D01*
X171651014Y-65549003D01*
X171762667Y-65560000D01*
X171762676Y-65560000D01*
X171799999Y-65563676D01*
X171837322Y-65560000D01*
X190296289Y-65560000D01*
X190340226Y-65603937D01*
X190509744Y-65717205D01*
X190698102Y-65795226D01*
X190898061Y-65835000D01*
X191101939Y-65835000D01*
X191301898Y-65795226D01*
X191490256Y-65717205D01*
X191659774Y-65603937D01*
X191803937Y-65459774D01*
X191917205Y-65290256D01*
X191995226Y-65101898D01*
X192035000Y-64901939D01*
X192035000Y-64698061D01*
X191995226Y-64498102D01*
X191917205Y-64309744D01*
X191803937Y-64140226D01*
X191659774Y-63996063D01*
X191490256Y-63882795D01*
X191435225Y-63860000D01*
X196261928Y-63860000D01*
X196261928Y-65560000D01*
X196274188Y-65684482D01*
X196310498Y-65804180D01*
X196369463Y-65914494D01*
X196448815Y-66011185D01*
X196545506Y-66090537D01*
X196655820Y-66149502D01*
X196728380Y-66171513D01*
X196596525Y-66303368D01*
X196434010Y-66546589D01*
X196322068Y-66816842D01*
X196265000Y-67103740D01*
X196265000Y-67396260D01*
X196322068Y-67683158D01*
X196434010Y-67953411D01*
X196596525Y-68196632D01*
X196803368Y-68403475D01*
X196985534Y-68525195D01*
X196868645Y-68594822D01*
X196652412Y-68789731D01*
X196478359Y-69023080D01*
X196353175Y-69285901D01*
X196308524Y-69433110D01*
X196429845Y-69663000D01*
X197623000Y-69663000D01*
X197623000Y-69643000D01*
X197877000Y-69643000D01*
X197877000Y-69663000D01*
X199070155Y-69663000D01*
X199191476Y-69433110D01*
X199146825Y-69285901D01*
X199021641Y-69023080D01*
X198847588Y-68789731D01*
X198631355Y-68594822D01*
X198514466Y-68525195D01*
X198696632Y-68403475D01*
X198903475Y-68196632D01*
X199065990Y-67953411D01*
X199177932Y-67683158D01*
X199235000Y-67396260D01*
X199235000Y-67103740D01*
X199177932Y-66816842D01*
X199065990Y-66546589D01*
X198903475Y-66303368D01*
X198771620Y-66171513D01*
X198844180Y-66149502D01*
X198954494Y-66090537D01*
X199051185Y-66011185D01*
X199130537Y-65914494D01*
X199189502Y-65804180D01*
X199225812Y-65684482D01*
X199238072Y-65560000D01*
X199238072Y-63860000D01*
X199225812Y-63735518D01*
X199189502Y-63615820D01*
X199130537Y-63505506D01*
X199051185Y-63408815D01*
X198954494Y-63329463D01*
X198844180Y-63270498D01*
X198724482Y-63234188D01*
X198600000Y-63221928D01*
X196900000Y-63221928D01*
X196775518Y-63234188D01*
X196655820Y-63270498D01*
X196545506Y-63329463D01*
X196448815Y-63408815D01*
X196369463Y-63505506D01*
X196310498Y-63615820D01*
X196274188Y-63735518D01*
X196261928Y-63860000D01*
X191435225Y-63860000D01*
X191301898Y-63804774D01*
X191101939Y-63765000D01*
X190898061Y-63765000D01*
X190698102Y-63804774D01*
X190509744Y-63882795D01*
X190340226Y-63996063D01*
X190296289Y-64040000D01*
X186423711Y-64040000D01*
X186503937Y-63959774D01*
X186617205Y-63790256D01*
X186695226Y-63601898D01*
X186735000Y-63401939D01*
X186735000Y-63198061D01*
X186695226Y-62998102D01*
X186617205Y-62809744D01*
X186503937Y-62640226D01*
X186460000Y-62596289D01*
X186460000Y-61396890D01*
X196308524Y-61396890D01*
X196353175Y-61544099D01*
X196478359Y-61806920D01*
X196652412Y-62040269D01*
X196868645Y-62235178D01*
X197118748Y-62384157D01*
X197393109Y-62481481D01*
X197623000Y-62360814D01*
X197623000Y-61167000D01*
X197877000Y-61167000D01*
X197877000Y-62360814D01*
X198106891Y-62481481D01*
X198381252Y-62384157D01*
X198631355Y-62235178D01*
X198847588Y-62040269D01*
X199021641Y-61806920D01*
X199146825Y-61544099D01*
X199191476Y-61396890D01*
X199070155Y-61167000D01*
X197877000Y-61167000D01*
X197623000Y-61167000D01*
X196429845Y-61167000D01*
X196308524Y-61396890D01*
X186460000Y-61396890D01*
X186460000Y-55110000D01*
X196261928Y-55110000D01*
X196261928Y-56810000D01*
X196274188Y-56934482D01*
X196310498Y-57054180D01*
X196369463Y-57164494D01*
X196448815Y-57261185D01*
X196545506Y-57340537D01*
X196655820Y-57399502D01*
X196728380Y-57421513D01*
X196596525Y-57553368D01*
X196434010Y-57796589D01*
X196322068Y-58066842D01*
X196265000Y-58353740D01*
X196265000Y-58646260D01*
X196322068Y-58933158D01*
X196434010Y-59203411D01*
X196596525Y-59446632D01*
X196803368Y-59653475D01*
X196985534Y-59775195D01*
X196868645Y-59844822D01*
X196652412Y-60039731D01*
X196478359Y-60273080D01*
X196353175Y-60535901D01*
X196308524Y-60683110D01*
X196429845Y-60913000D01*
X197623000Y-60913000D01*
X197623000Y-60893000D01*
X197877000Y-60893000D01*
X197877000Y-60913000D01*
X199070155Y-60913000D01*
X199191476Y-60683110D01*
X199146825Y-60535901D01*
X199021641Y-60273080D01*
X198847588Y-60039731D01*
X198631355Y-59844822D01*
X198514466Y-59775195D01*
X198696632Y-59653475D01*
X198903475Y-59446632D01*
X199065990Y-59203411D01*
X199177932Y-58933158D01*
X199235000Y-58646260D01*
X199235000Y-58353740D01*
X199177932Y-58066842D01*
X199065990Y-57796589D01*
X198903475Y-57553368D01*
X198771620Y-57421513D01*
X198844180Y-57399502D01*
X198954494Y-57340537D01*
X199051185Y-57261185D01*
X199130537Y-57164494D01*
X199189502Y-57054180D01*
X199225812Y-56934482D01*
X199238072Y-56810000D01*
X199238072Y-55110000D01*
X199225812Y-54985518D01*
X199189502Y-54865820D01*
X199130537Y-54755506D01*
X199051185Y-54658815D01*
X198954494Y-54579463D01*
X198844180Y-54520498D01*
X198724482Y-54484188D01*
X198600000Y-54471928D01*
X196900000Y-54471928D01*
X196775518Y-54484188D01*
X196655820Y-54520498D01*
X196545506Y-54579463D01*
X196448815Y-54658815D01*
X196369463Y-54755506D01*
X196310498Y-54865820D01*
X196274188Y-54985518D01*
X196261928Y-55110000D01*
X186460000Y-55110000D01*
X186460000Y-52436890D01*
X196308524Y-52436890D01*
X196353175Y-52584099D01*
X196478359Y-52846920D01*
X196652412Y-53080269D01*
X196868645Y-53275178D01*
X197118748Y-53424157D01*
X197393109Y-53521481D01*
X197623000Y-53400814D01*
X197623000Y-52207000D01*
X197877000Y-52207000D01*
X197877000Y-53400814D01*
X198106891Y-53521481D01*
X198381252Y-53424157D01*
X198631355Y-53275178D01*
X198847588Y-53080269D01*
X199021641Y-52846920D01*
X199146825Y-52584099D01*
X199191476Y-52436890D01*
X199070155Y-52207000D01*
X197877000Y-52207000D01*
X197623000Y-52207000D01*
X196429845Y-52207000D01*
X196308524Y-52436890D01*
X186460000Y-52436890D01*
X186460000Y-50937322D01*
X186463676Y-50899999D01*
X186460000Y-50862676D01*
X186460000Y-50862667D01*
X186449003Y-50751014D01*
X186405546Y-50607753D01*
X186334974Y-50475724D01*
X186240001Y-50359999D01*
X186211004Y-50336202D01*
X182024802Y-46150000D01*
X196261928Y-46150000D01*
X196261928Y-47850000D01*
X196274188Y-47974482D01*
X196310498Y-48094180D01*
X196369463Y-48204494D01*
X196448815Y-48301185D01*
X196545506Y-48380537D01*
X196655820Y-48439502D01*
X196728380Y-48461513D01*
X196596525Y-48593368D01*
X196434010Y-48836589D01*
X196322068Y-49106842D01*
X196265000Y-49393740D01*
X196265000Y-49686260D01*
X196322068Y-49973158D01*
X196434010Y-50243411D01*
X196596525Y-50486632D01*
X196803368Y-50693475D01*
X196985534Y-50815195D01*
X196868645Y-50884822D01*
X196652412Y-51079731D01*
X196478359Y-51313080D01*
X196353175Y-51575901D01*
X196308524Y-51723110D01*
X196429845Y-51953000D01*
X197623000Y-51953000D01*
X197623000Y-51933000D01*
X197877000Y-51933000D01*
X197877000Y-51953000D01*
X199070155Y-51953000D01*
X199191476Y-51723110D01*
X199146825Y-51575901D01*
X199021641Y-51313080D01*
X198847588Y-51079731D01*
X198631355Y-50884822D01*
X198514466Y-50815195D01*
X198696632Y-50693475D01*
X198903475Y-50486632D01*
X199065990Y-50243411D01*
X199177932Y-49973158D01*
X199235000Y-49686260D01*
X199235000Y-49393740D01*
X199177932Y-49106842D01*
X199065990Y-48836589D01*
X198903475Y-48593368D01*
X198771620Y-48461513D01*
X198844180Y-48439502D01*
X198954494Y-48380537D01*
X199051185Y-48301185D01*
X199130537Y-48204494D01*
X199189502Y-48094180D01*
X199225812Y-47974482D01*
X199238072Y-47850000D01*
X199238072Y-46150000D01*
X199225812Y-46025518D01*
X199189502Y-45905820D01*
X199130537Y-45795506D01*
X199051185Y-45698815D01*
X198954494Y-45619463D01*
X198844180Y-45560498D01*
X198724482Y-45524188D01*
X198600000Y-45511928D01*
X196900000Y-45511928D01*
X196775518Y-45524188D01*
X196655820Y-45560498D01*
X196545506Y-45619463D01*
X196448815Y-45698815D01*
X196369463Y-45795506D01*
X196310498Y-45905820D01*
X196274188Y-46025518D01*
X196261928Y-46150000D01*
X182024802Y-46150000D01*
X179521692Y-43646890D01*
X196308524Y-43646890D01*
X196353175Y-43794099D01*
X196478359Y-44056920D01*
X196652412Y-44290269D01*
X196868645Y-44485178D01*
X197118748Y-44634157D01*
X197393109Y-44731481D01*
X197623000Y-44610814D01*
X197623000Y-43417000D01*
X197877000Y-43417000D01*
X197877000Y-44610814D01*
X198106891Y-44731481D01*
X198381252Y-44634157D01*
X198631355Y-44485178D01*
X198847588Y-44290269D01*
X199021641Y-44056920D01*
X199146825Y-43794099D01*
X199191476Y-43646890D01*
X199070155Y-43417000D01*
X197877000Y-43417000D01*
X197623000Y-43417000D01*
X196429845Y-43417000D01*
X196308524Y-43646890D01*
X179521692Y-43646890D01*
X166931221Y-31056420D01*
X166995226Y-30901898D01*
X167035000Y-30701939D01*
X167035000Y-30498061D01*
X166995226Y-30298102D01*
X166969088Y-30234999D01*
X170811196Y-30234999D01*
X179287199Y-38711003D01*
X179310997Y-38740001D01*
X179426722Y-38834974D01*
X179558751Y-38905546D01*
X179702012Y-38949003D01*
X179813665Y-38960000D01*
X179813673Y-38960000D01*
X179850998Y-38963676D01*
X179888323Y-38960000D01*
X190496289Y-38960000D01*
X190540226Y-39003937D01*
X190709744Y-39117205D01*
X190898102Y-39195226D01*
X191098061Y-39235000D01*
X191301939Y-39235000D01*
X191501898Y-39195226D01*
X191690256Y-39117205D01*
X191859774Y-39003937D01*
X192003937Y-38859774D01*
X192117205Y-38690256D01*
X192195226Y-38501898D01*
X192235000Y-38301939D01*
X192235000Y-38098061D01*
X192195226Y-37898102D01*
X192117205Y-37709744D01*
X192003937Y-37540226D01*
X191859774Y-37396063D01*
X191805802Y-37360000D01*
X196261928Y-37360000D01*
X196261928Y-39060000D01*
X196274188Y-39184482D01*
X196310498Y-39304180D01*
X196369463Y-39414494D01*
X196448815Y-39511185D01*
X196545506Y-39590537D01*
X196655820Y-39649502D01*
X196728380Y-39671513D01*
X196596525Y-39803368D01*
X196434010Y-40046589D01*
X196322068Y-40316842D01*
X196265000Y-40603740D01*
X196265000Y-40896260D01*
X196322068Y-41183158D01*
X196434010Y-41453411D01*
X196596525Y-41696632D01*
X196803368Y-41903475D01*
X196985534Y-42025195D01*
X196868645Y-42094822D01*
X196652412Y-42289731D01*
X196478359Y-42523080D01*
X196353175Y-42785901D01*
X196308524Y-42933110D01*
X196429845Y-43163000D01*
X197623000Y-43163000D01*
X197623000Y-43143000D01*
X197877000Y-43143000D01*
X197877000Y-43163000D01*
X199070155Y-43163000D01*
X199191476Y-42933110D01*
X199146825Y-42785901D01*
X199021641Y-42523080D01*
X198847588Y-42289731D01*
X198631355Y-42094822D01*
X198514466Y-42025195D01*
X198696632Y-41903475D01*
X198903475Y-41696632D01*
X199065990Y-41453411D01*
X199177932Y-41183158D01*
X199235000Y-40896260D01*
X199235000Y-40603740D01*
X199177932Y-40316842D01*
X199065990Y-40046589D01*
X198903475Y-39803368D01*
X198771620Y-39671513D01*
X198844180Y-39649502D01*
X198954494Y-39590537D01*
X199051185Y-39511185D01*
X199130537Y-39414494D01*
X199189502Y-39304180D01*
X199225812Y-39184482D01*
X199238072Y-39060000D01*
X199238072Y-37360000D01*
X199225812Y-37235518D01*
X199189502Y-37115820D01*
X199130537Y-37005506D01*
X199051185Y-36908815D01*
X198954494Y-36829463D01*
X198844180Y-36770498D01*
X198724482Y-36734188D01*
X198600000Y-36721928D01*
X196900000Y-36721928D01*
X196775518Y-36734188D01*
X196655820Y-36770498D01*
X196545506Y-36829463D01*
X196448815Y-36908815D01*
X196369463Y-37005506D01*
X196310498Y-37115820D01*
X196274188Y-37235518D01*
X196261928Y-37360000D01*
X191805802Y-37360000D01*
X191690256Y-37282795D01*
X191501898Y-37204774D01*
X191301939Y-37165000D01*
X191098061Y-37165000D01*
X190898102Y-37204774D01*
X190709744Y-37282795D01*
X190540226Y-37396063D01*
X190496289Y-37440000D01*
X180165800Y-37440000D01*
X171689801Y-28964002D01*
X171665998Y-28934998D01*
X171550273Y-28840025D01*
X171418244Y-28769453D01*
X171274983Y-28725996D01*
X171163330Y-28714999D01*
X171163319Y-28714999D01*
X171125997Y-28711323D01*
X171088675Y-28714999D01*
X154428019Y-28714999D01*
X154390686Y-28711322D01*
X154353353Y-28714999D01*
X154241700Y-28725996D01*
X154098439Y-28769453D01*
X153966410Y-28840025D01*
X153850685Y-28934998D01*
X153826886Y-28963997D01*
X153732155Y-29058729D01*
X153601898Y-29004774D01*
X153401939Y-28965000D01*
X153198061Y-28965000D01*
X152998102Y-29004774D01*
X152809744Y-29082795D01*
X152640226Y-29196063D01*
X152496063Y-29340226D01*
X152382795Y-29509744D01*
X152304774Y-29698102D01*
X152265000Y-29898061D01*
X152265000Y-30101939D01*
X152304774Y-30301898D01*
X152382795Y-30490256D01*
X152496063Y-30659774D01*
X152640226Y-30803937D01*
X152809744Y-30917205D01*
X152998102Y-30995226D01*
X153198061Y-31035000D01*
X153401939Y-31035000D01*
X153601898Y-30995226D01*
X153790256Y-30917205D01*
X153959774Y-30803937D01*
X154014724Y-30748987D01*
X154157932Y-30705546D01*
X154289961Y-30634974D01*
X154405686Y-30540001D01*
X154429488Y-30510998D01*
X154705488Y-30234999D01*
X165030912Y-30234999D01*
X165004774Y-30298102D01*
X164965000Y-30498061D01*
X164965000Y-30601289D01*
X164859774Y-30496063D01*
X164690256Y-30382795D01*
X164501898Y-30304774D01*
X164301939Y-30265000D01*
X164098061Y-30265000D01*
X163898102Y-30304774D01*
X163709744Y-30382795D01*
X163540226Y-30496063D01*
X163496289Y-30540000D01*
X154737322Y-30540000D01*
X154699999Y-30536324D01*
X154662676Y-30540000D01*
X154662667Y-30540000D01*
X154551014Y-30550997D01*
X154407753Y-30594454D01*
X154275724Y-30665026D01*
X154159999Y-30759999D01*
X154136196Y-30789003D01*
X153888132Y-31037067D01*
X153887172Y-31037860D01*
X153861502Y-31063697D01*
X153836201Y-31088998D01*
X153835425Y-31089944D01*
X149738043Y-35213982D01*
X149709999Y-35236997D01*
X149685418Y-35266949D01*
X149684547Y-35267826D01*
X149661697Y-35295854D01*
X149615026Y-35352723D01*
X149614441Y-35353818D01*
X149613654Y-35354783D01*
X149579131Y-35419876D01*
X149544454Y-35484752D01*
X149544093Y-35485941D01*
X149543510Y-35487041D01*
X149522402Y-35557449D01*
X149500997Y-35628013D01*
X149500875Y-35629256D01*
X149500519Y-35630442D01*
X149493568Y-35703439D01*
X149490000Y-35739666D01*
X149490000Y-35740910D01*
X149486328Y-35779473D01*
X149490000Y-35815555D01*
X149490001Y-43046288D01*
X149446063Y-43090226D01*
X149332795Y-43259744D01*
X149254774Y-43448102D01*
X149215000Y-43648061D01*
X117691920Y-43648061D01*
X117989381Y-27138967D01*
X194665000Y-27138967D01*
X194665000Y-27461033D01*
X194727832Y-27776912D01*
X194851082Y-28074463D01*
X195030013Y-28342252D01*
X195257748Y-28569987D01*
X195525537Y-28748918D01*
X195823088Y-28872168D01*
X196138967Y-28935000D01*
X196461033Y-28935000D01*
X196776912Y-28872168D01*
X197074463Y-28748918D01*
X197342252Y-28569987D01*
X197569987Y-28342252D01*
X197748918Y-28074463D01*
X197872168Y-27776912D01*
X197935000Y-27461033D01*
X197935000Y-27138967D01*
X197872168Y-26823088D01*
X197748918Y-26525537D01*
X197569987Y-26257748D01*
X197342252Y-26030013D01*
X197074463Y-25851082D01*
X196776912Y-25727832D01*
X196461033Y-25665000D01*
X196138967Y-25665000D01*
X195823088Y-25727832D01*
X195525537Y-25851082D01*
X195257748Y-26030013D01*
X195030013Y-26257748D01*
X194851082Y-26525537D01*
X194727832Y-26823088D01*
X194665000Y-27138967D01*
X117989381Y-27138967D01*
X118125711Y-19572680D01*
X121815341Y-17358902D01*
X121820447Y-17355670D01*
X122488953Y-16910000D01*
X127664090Y-16910000D01*
X200749189Y-17376997D01*
G37*
X200749189Y-17376997D02*
X200750000Y-17377000D01*
X208433641Y-17377000D01*
X212372831Y-23039586D01*
X212123236Y-81943915D01*
X203236599Y-90090000D01*
X172267855Y-90090000D01*
X172254271Y-90089264D01*
X169275767Y-87646890D01*
X196308524Y-87646890D01*
X196353175Y-87794099D01*
X196478359Y-88056920D01*
X196652412Y-88290269D01*
X196868645Y-88485178D01*
X197118748Y-88634157D01*
X197393109Y-88731481D01*
X197623000Y-88610814D01*
X197623000Y-87417000D01*
X197877000Y-87417000D01*
X197877000Y-88610814D01*
X198106891Y-88731481D01*
X198381252Y-88634157D01*
X198631355Y-88485178D01*
X198847588Y-88290269D01*
X199021641Y-88056920D01*
X199146825Y-87794099D01*
X199191476Y-87646890D01*
X199070155Y-87417000D01*
X197877000Y-87417000D01*
X197623000Y-87417000D01*
X196429845Y-87417000D01*
X196308524Y-87646890D01*
X169275767Y-87646890D01*
X161608827Y-81360000D01*
X196261928Y-81360000D01*
X196261928Y-83060000D01*
X196274188Y-83184482D01*
X196310498Y-83304180D01*
X196369463Y-83414494D01*
X196448815Y-83511185D01*
X196545506Y-83590537D01*
X196655820Y-83649502D01*
X196728380Y-83671513D01*
X196596525Y-83803368D01*
X196434010Y-84046589D01*
X196322068Y-84316842D01*
X196265000Y-84603740D01*
X196265000Y-84896260D01*
X196322068Y-85183158D01*
X196434010Y-85453411D01*
X196596525Y-85696632D01*
X196803368Y-85903475D01*
X196985534Y-86025195D01*
X196868645Y-86094822D01*
X196652412Y-86289731D01*
X196478359Y-86523080D01*
X196353175Y-86785901D01*
X196308524Y-86933110D01*
X196429845Y-87163000D01*
X197623000Y-87163000D01*
X197623000Y-87143000D01*
X197877000Y-87143000D01*
X197877000Y-87163000D01*
X199070155Y-87163000D01*
X199191476Y-86933110D01*
X199146825Y-86785901D01*
X199021641Y-86523080D01*
X198847588Y-86289731D01*
X198631355Y-86094822D01*
X198514466Y-86025195D01*
X198696632Y-85903475D01*
X198903475Y-85696632D01*
X199065990Y-85453411D01*
X199177932Y-85183158D01*
X199235000Y-84896260D01*
X199235000Y-84603740D01*
X199177932Y-84316842D01*
X199065990Y-84046589D01*
X198903475Y-83803368D01*
X198771620Y-83671513D01*
X198844180Y-83649502D01*
X198954494Y-83590537D01*
X199051185Y-83511185D01*
X199130537Y-83414494D01*
X199189502Y-83304180D01*
X199225812Y-83184482D01*
X199238072Y-83060000D01*
X199238072Y-81360000D01*
X199225812Y-81235518D01*
X199189502Y-81115820D01*
X199130537Y-81005506D01*
X199051185Y-80908815D01*
X198954494Y-80829463D01*
X198844180Y-80770498D01*
X198724482Y-80734188D01*
X198600000Y-80721928D01*
X196900000Y-80721928D01*
X196775518Y-80734188D01*
X196655820Y-80770498D01*
X196545506Y-80829463D01*
X196448815Y-80908815D01*
X196369463Y-81005506D01*
X196310498Y-81115820D01*
X196274188Y-81235518D01*
X196261928Y-81360000D01*
X161608827Y-81360000D01*
X159877000Y-79939902D01*
X159877000Y-78896890D01*
X196308524Y-78896890D01*
X196353175Y-79044099D01*
X196478359Y-79306920D01*
X196652412Y-79540269D01*
X196868645Y-79735178D01*
X197118748Y-79884157D01*
X197393109Y-79981481D01*
X197623000Y-79860814D01*
X197623000Y-78667000D01*
X197877000Y-78667000D01*
X197877000Y-79860814D01*
X198106891Y-79981481D01*
X198381252Y-79884157D01*
X198631355Y-79735178D01*
X198847588Y-79540269D01*
X199021641Y-79306920D01*
X199146825Y-79044099D01*
X199191476Y-78896890D01*
X199070155Y-78667000D01*
X197877000Y-78667000D01*
X197623000Y-78667000D01*
X196429845Y-78667000D01*
X196308524Y-78896890D01*
X159877000Y-78896890D01*
X159877000Y-72610000D01*
X196261928Y-72610000D01*
X196261928Y-74310000D01*
X196274188Y-74434482D01*
X196310498Y-74554180D01*
X196369463Y-74664494D01*
X196448815Y-74761185D01*
X196545506Y-74840537D01*
X196655820Y-74899502D01*
X196728380Y-74921513D01*
X196596525Y-75053368D01*
X196434010Y-75296589D01*
X196322068Y-75566842D01*
X196265000Y-75853740D01*
X196265000Y-76146260D01*
X196322068Y-76433158D01*
X196434010Y-76703411D01*
X196596525Y-76946632D01*
X196803368Y-77153475D01*
X196985534Y-77275195D01*
X196868645Y-77344822D01*
X196652412Y-77539731D01*
X196478359Y-77773080D01*
X196353175Y-78035901D01*
X196308524Y-78183110D01*
X196429845Y-78413000D01*
X197623000Y-78413000D01*
X197623000Y-78393000D01*
X197877000Y-78393000D01*
X197877000Y-78413000D01*
X199070155Y-78413000D01*
X199191476Y-78183110D01*
X199146825Y-78035901D01*
X199021641Y-77773080D01*
X198847588Y-77539731D01*
X198631355Y-77344822D01*
X198514466Y-77275195D01*
X198696632Y-77153475D01*
X198903475Y-76946632D01*
X199065990Y-76703411D01*
X199177932Y-76433158D01*
X199235000Y-76146260D01*
X199235000Y-75853740D01*
X199177932Y-75566842D01*
X199065990Y-75296589D01*
X198903475Y-75053368D01*
X198771620Y-74921513D01*
X198844180Y-74899502D01*
X198954494Y-74840537D01*
X199051185Y-74761185D01*
X199130537Y-74664494D01*
X199189502Y-74554180D01*
X199225812Y-74434482D01*
X199238072Y-74310000D01*
X199238072Y-72610000D01*
X199225812Y-72485518D01*
X199189502Y-72365820D01*
X199130537Y-72255506D01*
X199051185Y-72158815D01*
X198954494Y-72079463D01*
X198844180Y-72020498D01*
X198724482Y-71984188D01*
X198600000Y-71971928D01*
X196900000Y-71971928D01*
X196775518Y-71984188D01*
X196655820Y-72020498D01*
X196545506Y-72079463D01*
X196448815Y-72158815D01*
X196369463Y-72255506D01*
X196310498Y-72365820D01*
X196274188Y-72485518D01*
X196261928Y-72610000D01*
X159877000Y-72610000D01*
X159877000Y-70146890D01*
X196308524Y-70146890D01*
X196353175Y-70294099D01*
X196478359Y-70556920D01*
X196652412Y-70790269D01*
X196868645Y-70985178D01*
X197118748Y-71134157D01*
X197393109Y-71231481D01*
X197623000Y-71110814D01*
X197623000Y-69917000D01*
X197877000Y-69917000D01*
X197877000Y-71110814D01*
X198106891Y-71231481D01*
X198381252Y-71134157D01*
X198631355Y-70985178D01*
X198847588Y-70790269D01*
X199021641Y-70556920D01*
X199146825Y-70294099D01*
X199191476Y-70146890D01*
X199070155Y-69917000D01*
X197877000Y-69917000D01*
X197623000Y-69917000D01*
X196429845Y-69917000D01*
X196308524Y-70146890D01*
X159877000Y-70146890D01*
X159877000Y-56000000D01*
X159874560Y-55975224D01*
X159867333Y-55951399D01*
X159855597Y-55929443D01*
X159839803Y-55910197D01*
X159813010Y-55889733D01*
X151063010Y-50889733D01*
X151040287Y-50879559D01*
X151016016Y-50874014D01*
X151000000Y-50873000D01*
X146608686Y-50873000D01*
X146050777Y-50841808D01*
X146032419Y-50840000D01*
X122990776Y-50840000D01*
X117628215Y-47183708D01*
X117691920Y-43648061D01*
X149215000Y-43648061D01*
X149215000Y-43851939D01*
X149254774Y-44051898D01*
X149332795Y-44240256D01*
X149446063Y-44409774D01*
X149590226Y-44553937D01*
X149759744Y-44667205D01*
X149948102Y-44745226D01*
X150148061Y-44785000D01*
X150351939Y-44785000D01*
X150551898Y-44745226D01*
X150740256Y-44667205D01*
X150909774Y-44553937D01*
X151053937Y-44409774D01*
X151140001Y-44280970D01*
X151140001Y-44785196D01*
X150210198Y-45715000D01*
X150148061Y-45715000D01*
X149948102Y-45754774D01*
X149759744Y-45832795D01*
X149590226Y-45946063D01*
X149446063Y-46090226D01*
X149332795Y-46259744D01*
X149254774Y-46448102D01*
X149215000Y-46648061D01*
X149215000Y-46851939D01*
X149254774Y-47051898D01*
X149332795Y-47240256D01*
X149446063Y-47409774D01*
X149590226Y-47553937D01*
X149759744Y-47667205D01*
X149948102Y-47745226D01*
X150148061Y-47785000D01*
X150351939Y-47785000D01*
X150551898Y-47745226D01*
X150740256Y-47667205D01*
X150909774Y-47553937D01*
X151053937Y-47409774D01*
X151167205Y-47240256D01*
X151245226Y-47051898D01*
X151285000Y-46851939D01*
X151285000Y-46789802D01*
X152411008Y-45663795D01*
X152440001Y-45640001D01*
X152463795Y-45611008D01*
X152463799Y-45611004D01*
X152534973Y-45524277D01*
X152539955Y-45514957D01*
X152605546Y-45392247D01*
X152649003Y-45248986D01*
X152660000Y-45137333D01*
X152660000Y-45137324D01*
X152663676Y-45100001D01*
X152660000Y-45062678D01*
X152660000Y-43480558D01*
X152665026Y-43489961D01*
X152736201Y-43576687D01*
X152760000Y-43605686D01*
X152788998Y-43629484D01*
X165270516Y-56111003D01*
X165294314Y-56140001D01*
X165410039Y-56234974D01*
X165542068Y-56305546D01*
X165685329Y-56349003D01*
X165796982Y-56360000D01*
X165796991Y-56360000D01*
X165834314Y-56363676D01*
X165871637Y-56360000D01*
X166996289Y-56360000D01*
X167040226Y-56403937D01*
X167209744Y-56517205D01*
X167398102Y-56595226D01*
X167598061Y-56635000D01*
X167801939Y-56635000D01*
X168001898Y-56595226D01*
X168190256Y-56517205D01*
X168359774Y-56403937D01*
X168503937Y-56259774D01*
X168617205Y-56090256D01*
X168695226Y-55901898D01*
X168735000Y-55701939D01*
X168735000Y-55498061D01*
X168695226Y-55298102D01*
X168617205Y-55109744D01*
X168503937Y-54940226D01*
X168359774Y-54796063D01*
X168190256Y-54682795D01*
X168001898Y-54604774D01*
X167801939Y-54565000D01*
X167598061Y-54565000D01*
X167398102Y-54604774D01*
X167209744Y-54682795D01*
X167040226Y-54796063D01*
X166996289Y-54840000D01*
X166149117Y-54840000D01*
X154241271Y-42932155D01*
X154295226Y-42801898D01*
X154335000Y-42601939D01*
X154335000Y-42398061D01*
X154295226Y-42198102D01*
X154217205Y-42009744D01*
X154103937Y-41840226D01*
X153959774Y-41696063D01*
X153790256Y-41582795D01*
X153650072Y-41524729D01*
X160614802Y-34560000D01*
X164296289Y-34560000D01*
X164340226Y-34603937D01*
X164509744Y-34717205D01*
X164698102Y-34795226D01*
X164898061Y-34835000D01*
X165101939Y-34835000D01*
X165301898Y-34795226D01*
X165490256Y-34717205D01*
X165659774Y-34603937D01*
X165803937Y-34459774D01*
X165917205Y-34290256D01*
X165995226Y-34101898D01*
X166035000Y-33901939D01*
X166035000Y-33809802D01*
X166065000Y-33839802D01*
X166065000Y-33901939D01*
X166104774Y-34101898D01*
X166182795Y-34290256D01*
X166296063Y-34459774D01*
X166440226Y-34603937D01*
X166609744Y-34717205D01*
X166638918Y-34729289D01*
X166509744Y-34782795D01*
X166340226Y-34896063D01*
X166196063Y-35040226D01*
X166082795Y-35209744D01*
X166004774Y-35398102D01*
X165965000Y-35598061D01*
X165965000Y-35801939D01*
X166004774Y-36001898D01*
X166082795Y-36190256D01*
X166196063Y-36359774D01*
X166240000Y-36403711D01*
X166240001Y-48962668D01*
X166236324Y-49000000D01*
X166250998Y-49148985D01*
X166294454Y-49292246D01*
X166365026Y-49424276D01*
X166396287Y-49462367D01*
X166460000Y-49540001D01*
X166488998Y-49563799D01*
X180265000Y-63339802D01*
X180265000Y-63401939D01*
X180304774Y-63601898D01*
X180382795Y-63790256D01*
X180496063Y-63959774D01*
X180576289Y-64040000D01*
X172114802Y-64040000D01*
X155763804Y-47689003D01*
X155763799Y-47688997D01*
X154335000Y-46260199D01*
X154335000Y-46198061D01*
X154295226Y-45998102D01*
X154217205Y-45809744D01*
X154103937Y-45640226D01*
X153959774Y-45496063D01*
X153790256Y-45382795D01*
X153601898Y-45304774D01*
X153401939Y-45265000D01*
X153198061Y-45265000D01*
X152998102Y-45304774D01*
X152809744Y-45382795D01*
X152640226Y-45496063D01*
X152496063Y-45640226D01*
X152382795Y-45809744D01*
X152304774Y-45998102D01*
X152265000Y-46198061D01*
X152265000Y-46401939D01*
X152304774Y-46601898D01*
X152382795Y-46790256D01*
X152496063Y-46959774D01*
X152640226Y-47103937D01*
X152809744Y-47217205D01*
X152998102Y-47295226D01*
X153198061Y-47335000D01*
X153260199Y-47335000D01*
X154688997Y-48763799D01*
X154689003Y-48763804D01*
X171236201Y-65311003D01*
X171259999Y-65340001D01*
X171288997Y-65363799D01*
X171375723Y-65434974D01*
X171507753Y-65505546D01*
X171651014Y-65549003D01*
X171762667Y-65560000D01*
X171762676Y-65560000D01*
X171799999Y-65563676D01*
X171837322Y-65560000D01*
X190296289Y-65560000D01*
X190340226Y-65603937D01*
X190509744Y-65717205D01*
X190698102Y-65795226D01*
X190898061Y-65835000D01*
X191101939Y-65835000D01*
X191301898Y-65795226D01*
X191490256Y-65717205D01*
X191659774Y-65603937D01*
X191803937Y-65459774D01*
X191917205Y-65290256D01*
X191995226Y-65101898D01*
X192035000Y-64901939D01*
X192035000Y-64698061D01*
X191995226Y-64498102D01*
X191917205Y-64309744D01*
X191803937Y-64140226D01*
X191659774Y-63996063D01*
X191490256Y-63882795D01*
X191435225Y-63860000D01*
X196261928Y-63860000D01*
X196261928Y-65560000D01*
X196274188Y-65684482D01*
X196310498Y-65804180D01*
X196369463Y-65914494D01*
X196448815Y-66011185D01*
X196545506Y-66090537D01*
X196655820Y-66149502D01*
X196728380Y-66171513D01*
X196596525Y-66303368D01*
X196434010Y-66546589D01*
X196322068Y-66816842D01*
X196265000Y-67103740D01*
X196265000Y-67396260D01*
X196322068Y-67683158D01*
X196434010Y-67953411D01*
X196596525Y-68196632D01*
X196803368Y-68403475D01*
X196985534Y-68525195D01*
X196868645Y-68594822D01*
X196652412Y-68789731D01*
X196478359Y-69023080D01*
X196353175Y-69285901D01*
X196308524Y-69433110D01*
X196429845Y-69663000D01*
X197623000Y-69663000D01*
X197623000Y-69643000D01*
X197877000Y-69643000D01*
X197877000Y-69663000D01*
X199070155Y-69663000D01*
X199191476Y-69433110D01*
X199146825Y-69285901D01*
X199021641Y-69023080D01*
X198847588Y-68789731D01*
X198631355Y-68594822D01*
X198514466Y-68525195D01*
X198696632Y-68403475D01*
X198903475Y-68196632D01*
X199065990Y-67953411D01*
X199177932Y-67683158D01*
X199235000Y-67396260D01*
X199235000Y-67103740D01*
X199177932Y-66816842D01*
X199065990Y-66546589D01*
X198903475Y-66303368D01*
X198771620Y-66171513D01*
X198844180Y-66149502D01*
X198954494Y-66090537D01*
X199051185Y-66011185D01*
X199130537Y-65914494D01*
X199189502Y-65804180D01*
X199225812Y-65684482D01*
X199238072Y-65560000D01*
X199238072Y-63860000D01*
X199225812Y-63735518D01*
X199189502Y-63615820D01*
X199130537Y-63505506D01*
X199051185Y-63408815D01*
X198954494Y-63329463D01*
X198844180Y-63270498D01*
X198724482Y-63234188D01*
X198600000Y-63221928D01*
X196900000Y-63221928D01*
X196775518Y-63234188D01*
X196655820Y-63270498D01*
X196545506Y-63329463D01*
X196448815Y-63408815D01*
X196369463Y-63505506D01*
X196310498Y-63615820D01*
X196274188Y-63735518D01*
X196261928Y-63860000D01*
X191435225Y-63860000D01*
X191301898Y-63804774D01*
X191101939Y-63765000D01*
X190898061Y-63765000D01*
X190698102Y-63804774D01*
X190509744Y-63882795D01*
X190340226Y-63996063D01*
X190296289Y-64040000D01*
X186423711Y-64040000D01*
X186503937Y-63959774D01*
X186617205Y-63790256D01*
X186695226Y-63601898D01*
X186735000Y-63401939D01*
X186735000Y-63198061D01*
X186695226Y-62998102D01*
X186617205Y-62809744D01*
X186503937Y-62640226D01*
X186460000Y-62596289D01*
X186460000Y-61396890D01*
X196308524Y-61396890D01*
X196353175Y-61544099D01*
X196478359Y-61806920D01*
X196652412Y-62040269D01*
X196868645Y-62235178D01*
X197118748Y-62384157D01*
X197393109Y-62481481D01*
X197623000Y-62360814D01*
X197623000Y-61167000D01*
X197877000Y-61167000D01*
X197877000Y-62360814D01*
X198106891Y-62481481D01*
X198381252Y-62384157D01*
X198631355Y-62235178D01*
X198847588Y-62040269D01*
X199021641Y-61806920D01*
X199146825Y-61544099D01*
X199191476Y-61396890D01*
X199070155Y-61167000D01*
X197877000Y-61167000D01*
X197623000Y-61167000D01*
X196429845Y-61167000D01*
X196308524Y-61396890D01*
X186460000Y-61396890D01*
X186460000Y-55110000D01*
X196261928Y-55110000D01*
X196261928Y-56810000D01*
X196274188Y-56934482D01*
X196310498Y-57054180D01*
X196369463Y-57164494D01*
X196448815Y-57261185D01*
X196545506Y-57340537D01*
X196655820Y-57399502D01*
X196728380Y-57421513D01*
X196596525Y-57553368D01*
X196434010Y-57796589D01*
X196322068Y-58066842D01*
X196265000Y-58353740D01*
X196265000Y-58646260D01*
X196322068Y-58933158D01*
X196434010Y-59203411D01*
X196596525Y-59446632D01*
X196803368Y-59653475D01*
X196985534Y-59775195D01*
X196868645Y-59844822D01*
X196652412Y-60039731D01*
X196478359Y-60273080D01*
X196353175Y-60535901D01*
X196308524Y-60683110D01*
X196429845Y-60913000D01*
X197623000Y-60913000D01*
X197623000Y-60893000D01*
X197877000Y-60893000D01*
X197877000Y-60913000D01*
X199070155Y-60913000D01*
X199191476Y-60683110D01*
X199146825Y-60535901D01*
X199021641Y-60273080D01*
X198847588Y-60039731D01*
X198631355Y-59844822D01*
X198514466Y-59775195D01*
X198696632Y-59653475D01*
X198903475Y-59446632D01*
X199065990Y-59203411D01*
X199177932Y-58933158D01*
X199235000Y-58646260D01*
X199235000Y-58353740D01*
X199177932Y-58066842D01*
X199065990Y-57796589D01*
X198903475Y-57553368D01*
X198771620Y-57421513D01*
X198844180Y-57399502D01*
X198954494Y-57340537D01*
X199051185Y-57261185D01*
X199130537Y-57164494D01*
X199189502Y-57054180D01*
X199225812Y-56934482D01*
X199238072Y-56810000D01*
X199238072Y-55110000D01*
X199225812Y-54985518D01*
X199189502Y-54865820D01*
X199130537Y-54755506D01*
X199051185Y-54658815D01*
X198954494Y-54579463D01*
X198844180Y-54520498D01*
X198724482Y-54484188D01*
X198600000Y-54471928D01*
X196900000Y-54471928D01*
X196775518Y-54484188D01*
X196655820Y-54520498D01*
X196545506Y-54579463D01*
X196448815Y-54658815D01*
X196369463Y-54755506D01*
X196310498Y-54865820D01*
X196274188Y-54985518D01*
X196261928Y-55110000D01*
X186460000Y-55110000D01*
X186460000Y-52436890D01*
X196308524Y-52436890D01*
X196353175Y-52584099D01*
X196478359Y-52846920D01*
X196652412Y-53080269D01*
X196868645Y-53275178D01*
X197118748Y-53424157D01*
X197393109Y-53521481D01*
X197623000Y-53400814D01*
X197623000Y-52207000D01*
X197877000Y-52207000D01*
X197877000Y-53400814D01*
X198106891Y-53521481D01*
X198381252Y-53424157D01*
X198631355Y-53275178D01*
X198847588Y-53080269D01*
X199021641Y-52846920D01*
X199146825Y-52584099D01*
X199191476Y-52436890D01*
X199070155Y-52207000D01*
X197877000Y-52207000D01*
X197623000Y-52207000D01*
X196429845Y-52207000D01*
X196308524Y-52436890D01*
X186460000Y-52436890D01*
X186460000Y-50937322D01*
X186463676Y-50899999D01*
X186460000Y-50862676D01*
X186460000Y-50862667D01*
X186449003Y-50751014D01*
X186405546Y-50607753D01*
X186334974Y-50475724D01*
X186240001Y-50359999D01*
X186211004Y-50336202D01*
X182024802Y-46150000D01*
X196261928Y-46150000D01*
X196261928Y-47850000D01*
X196274188Y-47974482D01*
X196310498Y-48094180D01*
X196369463Y-48204494D01*
X196448815Y-48301185D01*
X196545506Y-48380537D01*
X196655820Y-48439502D01*
X196728380Y-48461513D01*
X196596525Y-48593368D01*
X196434010Y-48836589D01*
X196322068Y-49106842D01*
X196265000Y-49393740D01*
X196265000Y-49686260D01*
X196322068Y-49973158D01*
X196434010Y-50243411D01*
X196596525Y-50486632D01*
X196803368Y-50693475D01*
X196985534Y-50815195D01*
X196868645Y-50884822D01*
X196652412Y-51079731D01*
X196478359Y-51313080D01*
X196353175Y-51575901D01*
X196308524Y-51723110D01*
X196429845Y-51953000D01*
X197623000Y-51953000D01*
X197623000Y-51933000D01*
X197877000Y-51933000D01*
X197877000Y-51953000D01*
X199070155Y-51953000D01*
X199191476Y-51723110D01*
X199146825Y-51575901D01*
X199021641Y-51313080D01*
X198847588Y-51079731D01*
X198631355Y-50884822D01*
X198514466Y-50815195D01*
X198696632Y-50693475D01*
X198903475Y-50486632D01*
X199065990Y-50243411D01*
X199177932Y-49973158D01*
X199235000Y-49686260D01*
X199235000Y-49393740D01*
X199177932Y-49106842D01*
X199065990Y-48836589D01*
X198903475Y-48593368D01*
X198771620Y-48461513D01*
X198844180Y-48439502D01*
X198954494Y-48380537D01*
X199051185Y-48301185D01*
X199130537Y-48204494D01*
X199189502Y-48094180D01*
X199225812Y-47974482D01*
X199238072Y-47850000D01*
X199238072Y-46150000D01*
X199225812Y-46025518D01*
X199189502Y-45905820D01*
X199130537Y-45795506D01*
X199051185Y-45698815D01*
X198954494Y-45619463D01*
X198844180Y-45560498D01*
X198724482Y-45524188D01*
X198600000Y-45511928D01*
X196900000Y-45511928D01*
X196775518Y-45524188D01*
X196655820Y-45560498D01*
X196545506Y-45619463D01*
X196448815Y-45698815D01*
X196369463Y-45795506D01*
X196310498Y-45905820D01*
X196274188Y-46025518D01*
X196261928Y-46150000D01*
X182024802Y-46150000D01*
X179521692Y-43646890D01*
X196308524Y-43646890D01*
X196353175Y-43794099D01*
X196478359Y-44056920D01*
X196652412Y-44290269D01*
X196868645Y-44485178D01*
X197118748Y-44634157D01*
X197393109Y-44731481D01*
X197623000Y-44610814D01*
X197623000Y-43417000D01*
X197877000Y-43417000D01*
X197877000Y-44610814D01*
X198106891Y-44731481D01*
X198381252Y-44634157D01*
X198631355Y-44485178D01*
X198847588Y-44290269D01*
X199021641Y-44056920D01*
X199146825Y-43794099D01*
X199191476Y-43646890D01*
X199070155Y-43417000D01*
X197877000Y-43417000D01*
X197623000Y-43417000D01*
X196429845Y-43417000D01*
X196308524Y-43646890D01*
X179521692Y-43646890D01*
X166931221Y-31056420D01*
X166995226Y-30901898D01*
X167035000Y-30701939D01*
X167035000Y-30498061D01*
X166995226Y-30298102D01*
X166969088Y-30234999D01*
X170811196Y-30234999D01*
X179287199Y-38711003D01*
X179310997Y-38740001D01*
X179426722Y-38834974D01*
X179558751Y-38905546D01*
X179702012Y-38949003D01*
X179813665Y-38960000D01*
X179813673Y-38960000D01*
X179850998Y-38963676D01*
X179888323Y-38960000D01*
X190496289Y-38960000D01*
X190540226Y-39003937D01*
X190709744Y-39117205D01*
X190898102Y-39195226D01*
X191098061Y-39235000D01*
X191301939Y-39235000D01*
X191501898Y-39195226D01*
X191690256Y-39117205D01*
X191859774Y-39003937D01*
X192003937Y-38859774D01*
X192117205Y-38690256D01*
X192195226Y-38501898D01*
X192235000Y-38301939D01*
X192235000Y-38098061D01*
X192195226Y-37898102D01*
X192117205Y-37709744D01*
X192003937Y-37540226D01*
X191859774Y-37396063D01*
X191805802Y-37360000D01*
X196261928Y-37360000D01*
X196261928Y-39060000D01*
X196274188Y-39184482D01*
X196310498Y-39304180D01*
X196369463Y-39414494D01*
X196448815Y-39511185D01*
X196545506Y-39590537D01*
X196655820Y-39649502D01*
X196728380Y-39671513D01*
X196596525Y-39803368D01*
X196434010Y-40046589D01*
X196322068Y-40316842D01*
X196265000Y-40603740D01*
X196265000Y-40896260D01*
X196322068Y-41183158D01*
X196434010Y-41453411D01*
X196596525Y-41696632D01*
X196803368Y-41903475D01*
X196985534Y-42025195D01*
X196868645Y-42094822D01*
X196652412Y-42289731D01*
X196478359Y-42523080D01*
X196353175Y-42785901D01*
X196308524Y-42933110D01*
X196429845Y-43163000D01*
X197623000Y-43163000D01*
X197623000Y-43143000D01*
X197877000Y-43143000D01*
X197877000Y-43163000D01*
X199070155Y-43163000D01*
X199191476Y-42933110D01*
X199146825Y-42785901D01*
X199021641Y-42523080D01*
X198847588Y-42289731D01*
X198631355Y-42094822D01*
X198514466Y-42025195D01*
X198696632Y-41903475D01*
X198903475Y-41696632D01*
X199065990Y-41453411D01*
X199177932Y-41183158D01*
X199235000Y-40896260D01*
X199235000Y-40603740D01*
X199177932Y-40316842D01*
X199065990Y-40046589D01*
X198903475Y-39803368D01*
X198771620Y-39671513D01*
X198844180Y-39649502D01*
X198954494Y-39590537D01*
X199051185Y-39511185D01*
X199130537Y-39414494D01*
X199189502Y-39304180D01*
X199225812Y-39184482D01*
X199238072Y-39060000D01*
X199238072Y-37360000D01*
X199225812Y-37235518D01*
X199189502Y-37115820D01*
X199130537Y-37005506D01*
X199051185Y-36908815D01*
X198954494Y-36829463D01*
X198844180Y-36770498D01*
X198724482Y-36734188D01*
X198600000Y-36721928D01*
X196900000Y-36721928D01*
X196775518Y-36734188D01*
X196655820Y-36770498D01*
X196545506Y-36829463D01*
X196448815Y-36908815D01*
X196369463Y-37005506D01*
X196310498Y-37115820D01*
X196274188Y-37235518D01*
X196261928Y-37360000D01*
X191805802Y-37360000D01*
X191690256Y-37282795D01*
X191501898Y-37204774D01*
X191301939Y-37165000D01*
X191098061Y-37165000D01*
X190898102Y-37204774D01*
X190709744Y-37282795D01*
X190540226Y-37396063D01*
X190496289Y-37440000D01*
X180165800Y-37440000D01*
X171689801Y-28964002D01*
X171665998Y-28934998D01*
X171550273Y-28840025D01*
X171418244Y-28769453D01*
X171274983Y-28725996D01*
X171163330Y-28714999D01*
X171163319Y-28714999D01*
X171125997Y-28711323D01*
X171088675Y-28714999D01*
X154428019Y-28714999D01*
X154390686Y-28711322D01*
X154353353Y-28714999D01*
X154241700Y-28725996D01*
X154098439Y-28769453D01*
X153966410Y-28840025D01*
X153850685Y-28934998D01*
X153826886Y-28963997D01*
X153732155Y-29058729D01*
X153601898Y-29004774D01*
X153401939Y-28965000D01*
X153198061Y-28965000D01*
X152998102Y-29004774D01*
X152809744Y-29082795D01*
X152640226Y-29196063D01*
X152496063Y-29340226D01*
X152382795Y-29509744D01*
X152304774Y-29698102D01*
X152265000Y-29898061D01*
X152265000Y-30101939D01*
X152304774Y-30301898D01*
X152382795Y-30490256D01*
X152496063Y-30659774D01*
X152640226Y-30803937D01*
X152809744Y-30917205D01*
X152998102Y-30995226D01*
X153198061Y-31035000D01*
X153401939Y-31035000D01*
X153601898Y-30995226D01*
X153790256Y-30917205D01*
X153959774Y-30803937D01*
X154014724Y-30748987D01*
X154157932Y-30705546D01*
X154289961Y-30634974D01*
X154405686Y-30540001D01*
X154429488Y-30510998D01*
X154705488Y-30234999D01*
X165030912Y-30234999D01*
X165004774Y-30298102D01*
X164965000Y-30498061D01*
X164965000Y-30601289D01*
X164859774Y-30496063D01*
X164690256Y-30382795D01*
X164501898Y-30304774D01*
X164301939Y-30265000D01*
X164098061Y-30265000D01*
X163898102Y-30304774D01*
X163709744Y-30382795D01*
X163540226Y-30496063D01*
X163496289Y-30540000D01*
X154737322Y-30540000D01*
X154699999Y-30536324D01*
X154662676Y-30540000D01*
X154662667Y-30540000D01*
X154551014Y-30550997D01*
X154407753Y-30594454D01*
X154275724Y-30665026D01*
X154159999Y-30759999D01*
X154136196Y-30789003D01*
X153888132Y-31037067D01*
X153887172Y-31037860D01*
X153861502Y-31063697D01*
X153836201Y-31088998D01*
X153835425Y-31089944D01*
X149738043Y-35213982D01*
X149709999Y-35236997D01*
X149685418Y-35266949D01*
X149684547Y-35267826D01*
X149661697Y-35295854D01*
X149615026Y-35352723D01*
X149614441Y-35353818D01*
X149613654Y-35354783D01*
X149579131Y-35419876D01*
X149544454Y-35484752D01*
X149544093Y-35485941D01*
X149543510Y-35487041D01*
X149522402Y-35557449D01*
X149500997Y-35628013D01*
X149500875Y-35629256D01*
X149500519Y-35630442D01*
X149493568Y-35703439D01*
X149490000Y-35739666D01*
X149490000Y-35740910D01*
X149486328Y-35779473D01*
X149490000Y-35815555D01*
X149490001Y-43046288D01*
X149446063Y-43090226D01*
X149332795Y-43259744D01*
X149254774Y-43448102D01*
X149215000Y-43648061D01*
X117691920Y-43648061D01*
X117989381Y-27138967D01*
X194665000Y-27138967D01*
X194665000Y-27461033D01*
X194727832Y-27776912D01*
X194851082Y-28074463D01*
X195030013Y-28342252D01*
X195257748Y-28569987D01*
X195525537Y-28748918D01*
X195823088Y-28872168D01*
X196138967Y-28935000D01*
X196461033Y-28935000D01*
X196776912Y-28872168D01*
X197074463Y-28748918D01*
X197342252Y-28569987D01*
X197569987Y-28342252D01*
X197748918Y-28074463D01*
X197872168Y-27776912D01*
X197935000Y-27461033D01*
X197935000Y-27138967D01*
X197872168Y-26823088D01*
X197748918Y-26525537D01*
X197569987Y-26257748D01*
X197342252Y-26030013D01*
X197074463Y-25851082D01*
X196776912Y-25727832D01*
X196461033Y-25665000D01*
X196138967Y-25665000D01*
X195823088Y-25727832D01*
X195525537Y-25851082D01*
X195257748Y-26030013D01*
X195030013Y-26257748D01*
X194851082Y-26525537D01*
X194727832Y-26823088D01*
X194665000Y-27138967D01*
X117989381Y-27138967D01*
X118125711Y-19572680D01*
X121815341Y-17358902D01*
X121820447Y-17355670D01*
X122488953Y-16910000D01*
X127664090Y-16910000D01*
X200749189Y-17376997D01*
G36*
X184940000Y-51214802D02*
G01*
X184940001Y-62596288D01*
X184896063Y-62640226D01*
X184782795Y-62809744D01*
X184704774Y-62998102D01*
X184665000Y-63198061D01*
X184665000Y-63401939D01*
X184704774Y-63601898D01*
X184782795Y-63790256D01*
X184896063Y-63959774D01*
X184976289Y-64040000D01*
X182023711Y-64040000D01*
X182103937Y-63959774D01*
X182217205Y-63790256D01*
X182295226Y-63601898D01*
X182335000Y-63401939D01*
X182335000Y-63198061D01*
X182295226Y-62998102D01*
X182217205Y-62809744D01*
X182103937Y-62640226D01*
X181959774Y-62496063D01*
X181790256Y-62382795D01*
X181601898Y-62304774D01*
X181401939Y-62265000D01*
X181339802Y-62265000D01*
X167760000Y-48685199D01*
X167760000Y-36403711D01*
X167803937Y-36359774D01*
X167917205Y-36190256D01*
X167995226Y-36001898D01*
X168035000Y-35801939D01*
X168035000Y-35598061D01*
X167995226Y-35398102D01*
X167917205Y-35209744D01*
X167803937Y-35040226D01*
X167659774Y-34896063D01*
X167490256Y-34782795D01*
X167461082Y-34770711D01*
X167590256Y-34717205D01*
X167759774Y-34603937D01*
X167903937Y-34459774D01*
X168016504Y-34291305D01*
X184940000Y-51214802D01*
G37*
X184940000Y-51214802D02*
X184940001Y-62596288D01*
X184896063Y-62640226D01*
X184782795Y-62809744D01*
X184704774Y-62998102D01*
X184665000Y-63198061D01*
X184665000Y-63401939D01*
X184704774Y-63601898D01*
X184782795Y-63790256D01*
X184896063Y-63959774D01*
X184976289Y-64040000D01*
X182023711Y-64040000D01*
X182103937Y-63959774D01*
X182217205Y-63790256D01*
X182295226Y-63601898D01*
X182335000Y-63401939D01*
X182335000Y-63198061D01*
X182295226Y-62998102D01*
X182217205Y-62809744D01*
X182103937Y-62640226D01*
X181959774Y-62496063D01*
X181790256Y-62382795D01*
X181601898Y-62304774D01*
X181401939Y-62265000D01*
X181339802Y-62265000D01*
X167760000Y-48685199D01*
X167760000Y-36403711D01*
X167803937Y-36359774D01*
X167917205Y-36190256D01*
X167995226Y-36001898D01*
X168035000Y-35801939D01*
X168035000Y-35598061D01*
X167995226Y-35398102D01*
X167917205Y-35209744D01*
X167803937Y-35040226D01*
X167659774Y-34896063D01*
X167490256Y-34782795D01*
X167461082Y-34770711D01*
X167590256Y-34717205D01*
X167759774Y-34603937D01*
X167903937Y-34459774D01*
X168016504Y-34291305D01*
X184940000Y-51214802D01*
G36*
X151389003Y-41636196D02*
G01*
X151359999Y-41659999D01*
X151304871Y-41727174D01*
X151265026Y-41775724D01*
X151255015Y-41794454D01*
X151194454Y-41907754D01*
X151150997Y-42051015D01*
X151140000Y-42162668D01*
X151140000Y-42162678D01*
X151136324Y-42200000D01*
X151140000Y-42237323D01*
X151140000Y-43219029D01*
X151053937Y-43090226D01*
X151010000Y-43046289D01*
X151010000Y-36090357D01*
X152563271Y-34526982D01*
X152640226Y-34603937D01*
X152809744Y-34717205D01*
X152998102Y-34795226D01*
X153198061Y-34835000D01*
X153401939Y-34835000D01*
X153601898Y-34795226D01*
X153790256Y-34717205D01*
X153959774Y-34603937D01*
X154103937Y-34459774D01*
X154217205Y-34290256D01*
X154295226Y-34101898D01*
X154335000Y-33901939D01*
X154335000Y-33839801D01*
X154714802Y-33460000D01*
X159565198Y-33460000D01*
X151389003Y-41636196D01*
G37*
X151389003Y-41636196D02*
X151359999Y-41659999D01*
X151304871Y-41727174D01*
X151265026Y-41775724D01*
X151255015Y-41794454D01*
X151194454Y-41907754D01*
X151150997Y-42051015D01*
X151140000Y-42162668D01*
X151140000Y-42162678D01*
X151136324Y-42200000D01*
X151140000Y-42237323D01*
X151140000Y-43219029D01*
X151053937Y-43090226D01*
X151010000Y-43046289D01*
X151010000Y-36090357D01*
X152563271Y-34526982D01*
X152640226Y-34603937D01*
X152809744Y-34717205D01*
X152998102Y-34795226D01*
X153198061Y-34835000D01*
X153401939Y-34835000D01*
X153601898Y-34795226D01*
X153790256Y-34717205D01*
X153959774Y-34603937D01*
X154103937Y-34459774D01*
X154217205Y-34290256D01*
X154295226Y-34101898D01*
X154335000Y-33901939D01*
X154335000Y-33839801D01*
X154714802Y-33460000D01*
X159565198Y-33460000D01*
X151389003Y-41636196D01*
G36*
X165247252Y-31310963D02*
G01*
X165250997Y-31348986D01*
X165294454Y-31492247D01*
X165307795Y-31517205D01*
X165365026Y-31624276D01*
X165436201Y-31711002D01*
X165460000Y-31740001D01*
X165488998Y-31763799D01*
X165665199Y-31940000D01*
X165017150Y-31940000D01*
X165117205Y-31790256D01*
X165195226Y-31601898D01*
X165235000Y-31401939D01*
X165235000Y-31298711D01*
X165247252Y-31310963D01*
G37*
X165247252Y-31310963D02*
X165250997Y-31348986D01*
X165294454Y-31492247D01*
X165307795Y-31517205D01*
X165365026Y-31624276D01*
X165436201Y-31711002D01*
X165460000Y-31740001D01*
X165488998Y-31763799D01*
X165665199Y-31940000D01*
X165017150Y-31940000D01*
X165117205Y-31790256D01*
X165195226Y-31601898D01*
X165235000Y-31401939D01*
X165235000Y-31298711D01*
X165247252Y-31310963D01*
M02*
