M48
; DRILL file {KiCad (5.1.5)-3} date 2/18/2022 1:46:49 PM
; FORMAT={-:-/ absolute / inch / decimal}
; #@! TF.CreationDate,2022-02-18T13:46:49-05:00
; #@! TF.GenerationSoftware,Kicad,Pcbnew,(5.1.5)-3
; #@! TF.FileFunction,Plated,1,2,PTH
FMAT,2
INCH
T1C0.0157
T2C0.0394
T3C0.0630
%
G90
G05
T1
X5.9154Y-1.7224
X5.9154Y-1.8406
X6.0157Y-1.5709
X6.0157Y-1.7244
X6.0354Y-1.0827
X6.0354Y-1.1811
X6.0354Y-1.2323
X6.0354Y-1.3307
X6.0354Y-1.3819
X6.0354Y-1.6732
X6.0354Y-1.8228
X6.0354Y-1.8701
X6.4646Y-1.2323
X6.4646Y-1.874
X6.4961Y-1.3307
X6.5039Y-1.252
X6.5354Y-1.2047
X6.5591Y-1.126
X6.5748Y-1.4055
X6.5787Y-1.3307
X6.6024Y-2.189
X6.6063Y-1.6339
X7.1142Y-1.3425
X7.1378Y-2.4921
X7.311Y-2.4921
X7.5197Y-2.5512
X7.5276Y-1.5039
X7.6772Y-1.748
X7.6772Y-2.0984
X7.6772Y-2.4508
X7.6772Y-2.7953
X7.6772Y-3.1398
X7.6772Y-3.4843
T2
X7.7854Y-2.5476
X7.7854Y-2.6476
X7.7854Y-2.7476
X7.7854Y-2.2031
X7.7854Y-2.3031
X7.7854Y-2.4031
X7.7854Y-2.8921
X7.7854Y-2.9921
X7.7854Y-3.0921
X7.7854Y-1.8504
X7.7854Y-1.9504
X7.7854Y-2.0504
X7.7854Y-3.2366
X7.7854Y-3.3366
X7.7854Y-3.4366
X7.7854Y-1.5043
X7.7854Y-1.6043
X7.7854Y-1.7043
T3
X6.8307Y-1.1417
X7.189Y-3.4567
X7.5039Y-0.8189
T0
M30
