G04 #@! TF.GenerationSoftware,KiCad,Pcbnew,(5.1.5)-3*
G04 #@! TF.CreationDate,2022-02-18T13:47:20-05:00*
G04 #@! TF.ProjectId,Motor board,4d6f746f-7220-4626-9f61-72642e6b6963,rev?*
G04 #@! TF.SameCoordinates,Original*
G04 #@! TF.FileFunction,Legend,Top*
G04 #@! TF.FilePolarity,Positive*
%FSLAX46Y46*%
G04 Gerber Fmt 4.6, Leading zero omitted, Abs format (unit mm)*
G04 Created by KiCad (PCBNEW (5.1.5)-3) date 2022-02-18 13:47:20*
%MOMM*%
%LPD*%
G04 APERTURE LIST*
%ADD10C,0.200000*%
%ADD11C,0.120000*%
%ADD12C,0.100000*%
%ADD13C,0.254000*%
%ADD14C,0.150000*%
G04 APERTURE END LIST*
D10*
X183700000Y-82400000D02*
X183700000Y-83600000D01*
X154275000Y-26740000D02*
X156100000Y-26740000D01*
X156450000Y-36350000D02*
X156450000Y-26150000D01*
X161050000Y-36350000D02*
X156450000Y-36350000D01*
X161050000Y-26150000D02*
X161050000Y-36350000D01*
X156450000Y-26150000D02*
X161050000Y-26150000D01*
D11*
X211540000Y-26110000D02*
X211540000Y-27850000D01*
X209800000Y-26110000D02*
X211540000Y-26110000D01*
X205900000Y-31900000D02*
X203450000Y-31900000D01*
X205900000Y-31500000D02*
X205900000Y-31900000D01*
X207900000Y-31500000D02*
X205900000Y-31500000D01*
X207900000Y-29900000D02*
X207900000Y-31500000D01*
X207900000Y-23100000D02*
X207900000Y-26100000D01*
X205900000Y-23100000D02*
X207900000Y-23100000D01*
X205900000Y-22700000D02*
X205900000Y-23100000D01*
X203450000Y-22700000D02*
X205900000Y-22700000D01*
X193200000Y-22700000D02*
X196750000Y-22700000D01*
X193200000Y-31900000D02*
X193200000Y-22700000D01*
X196750000Y-31900000D02*
X193200000Y-31900000D01*
X164290000Y-27441422D02*
X164290000Y-27958578D01*
X165710000Y-27441422D02*
X165710000Y-27958578D01*
X166710000Y-40241422D02*
X166710000Y-40758578D01*
X165290000Y-40241422D02*
X165290000Y-40758578D01*
X194290000Y-41991422D02*
X194290000Y-42508578D01*
X195710000Y-41991422D02*
X195710000Y-42508578D01*
X195710000Y-50878922D02*
X195710000Y-51396078D01*
X194290000Y-50878922D02*
X194290000Y-51396078D01*
X194290000Y-59803922D02*
X194290000Y-60321078D01*
X195710000Y-59803922D02*
X195710000Y-60321078D01*
X195710000Y-68553922D02*
X195710000Y-69071078D01*
X194290000Y-68553922D02*
X194290000Y-69071078D01*
X194290000Y-77303922D02*
X194290000Y-77821078D01*
X195710000Y-77303922D02*
X195710000Y-77821078D01*
X195710000Y-86053922D02*
X195710000Y-86571078D01*
X194290000Y-86053922D02*
X194290000Y-86571078D01*
X179590000Y-23500000D02*
X179590000Y-28885000D01*
X179590000Y-28885000D02*
X181910000Y-28885000D01*
X181910000Y-28885000D02*
X181910000Y-23500000D01*
D10*
X123300000Y-27000000D02*
G75*
G02X123200000Y-27000000I-50000J0D01*
G01*
X123200000Y-27000000D02*
G75*
G02X123300000Y-27000000I50000J0D01*
G01*
X123300000Y-27000000D02*
G75*
G02X123200000Y-27000000I-50000J0D01*
G01*
X123200000Y-27000000D02*
X123200000Y-27000000D01*
X123300000Y-27000000D02*
X123300000Y-27000000D01*
X123200000Y-27000000D02*
X123200000Y-27000000D01*
D12*
X142500000Y-25750000D02*
X142500000Y-19500000D01*
X142500000Y-25750000D02*
X142500000Y-25750000D01*
X142500000Y-19500000D02*
X142500000Y-25750000D01*
X142500000Y-19500000D02*
X142500000Y-19500000D01*
X124500000Y-19500000D02*
X124500000Y-25750000D01*
X124500000Y-19500000D02*
X124500000Y-19500000D01*
X124500000Y-25750000D02*
X124500000Y-19500000D01*
X124500000Y-25750000D02*
X124500000Y-25750000D01*
X140500000Y-45000000D02*
X140500000Y-45000000D01*
X142500000Y-45000000D02*
X140500000Y-45000000D01*
X142500000Y-45000000D02*
X142500000Y-45000000D01*
X140500000Y-45000000D02*
X142500000Y-45000000D01*
X124500000Y-45000000D02*
X124500000Y-45000000D01*
X126500000Y-45000000D02*
X124500000Y-45000000D01*
X126500000Y-45000000D02*
X126500000Y-45000000D01*
X124500000Y-45000000D02*
X126500000Y-45000000D01*
X124500000Y-19500000D02*
X124500000Y-19500000D01*
X142500000Y-19500000D02*
X124500000Y-19500000D01*
X142500000Y-19500000D02*
X142500000Y-19500000D01*
X124500000Y-19500000D02*
X142500000Y-19500000D01*
D10*
X174600000Y-23150000D02*
X174600000Y-24350000D01*
X156450000Y-38650000D02*
X161050000Y-38650000D01*
X161050000Y-38650000D02*
X161050000Y-48850000D01*
X161050000Y-48850000D02*
X156450000Y-48850000D01*
X156450000Y-48850000D02*
X156450000Y-38650000D01*
X154275000Y-39240000D02*
X156100000Y-39240000D01*
D11*
X197750000Y-36880000D02*
X199080000Y-36880000D01*
X199080000Y-36880000D02*
X199080000Y-38210000D01*
X199080000Y-39480000D02*
X199080000Y-44620000D01*
X196420000Y-44620000D02*
X199080000Y-44620000D01*
X196420000Y-39480000D02*
X196420000Y-44620000D01*
X196420000Y-39480000D02*
X199080000Y-39480000D01*
X196420000Y-48270000D02*
X199080000Y-48270000D01*
X196420000Y-48270000D02*
X196420000Y-53410000D01*
X196420000Y-53410000D02*
X199080000Y-53410000D01*
X199080000Y-48270000D02*
X199080000Y-53410000D01*
X199080000Y-45670000D02*
X199080000Y-47000000D01*
X197750000Y-45670000D02*
X199080000Y-45670000D01*
X197750000Y-54630000D02*
X199080000Y-54630000D01*
X199080000Y-54630000D02*
X199080000Y-55960000D01*
X199080000Y-57230000D02*
X199080000Y-62370000D01*
X196420000Y-62370000D02*
X199080000Y-62370000D01*
X196420000Y-57230000D02*
X196420000Y-62370000D01*
X196420000Y-57230000D02*
X199080000Y-57230000D01*
X196420000Y-65980000D02*
X199080000Y-65980000D01*
X196420000Y-65980000D02*
X196420000Y-71120000D01*
X196420000Y-71120000D02*
X199080000Y-71120000D01*
X199080000Y-65980000D02*
X199080000Y-71120000D01*
X199080000Y-63380000D02*
X199080000Y-64710000D01*
X197750000Y-63380000D02*
X199080000Y-63380000D01*
X197750000Y-72130000D02*
X199080000Y-72130000D01*
X199080000Y-72130000D02*
X199080000Y-73460000D01*
X199080000Y-74730000D02*
X199080000Y-79870000D01*
X196420000Y-79870000D02*
X199080000Y-79870000D01*
X196420000Y-74730000D02*
X196420000Y-79870000D01*
X196420000Y-74730000D02*
X199080000Y-74730000D01*
X196420000Y-83480000D02*
X199080000Y-83480000D01*
X196420000Y-83480000D02*
X196420000Y-88620000D01*
X196420000Y-88620000D02*
X199080000Y-88620000D01*
X199080000Y-83480000D02*
X199080000Y-88620000D01*
X199080000Y-80880000D02*
X199080000Y-82210000D01*
X197750000Y-80880000D02*
X199080000Y-80880000D01*
X147511252Y-47460000D02*
X146988748Y-47460000D01*
X147511252Y-46040000D02*
X146988748Y-46040000D01*
X147511252Y-43040000D02*
X146988748Y-43040000D01*
X147511252Y-44460000D02*
X146988748Y-44460000D01*
X147486252Y-41460000D02*
X146963748Y-41460000D01*
X147486252Y-40040000D02*
X146963748Y-40040000D01*
X147486252Y-37040000D02*
X146963748Y-37040000D01*
X147486252Y-38460000D02*
X146963748Y-38460000D01*
X147486252Y-35460000D02*
X146963748Y-35460000D01*
X147486252Y-34040000D02*
X146963748Y-34040000D01*
X147486252Y-31040000D02*
X146963748Y-31040000D01*
X147486252Y-32460000D02*
X146963748Y-32460000D01*
X181460000Y-31263748D02*
X181460000Y-31786252D01*
X180040000Y-31263748D02*
X180040000Y-31786252D01*
X194236252Y-37540000D02*
X193713748Y-37540000D01*
X194236252Y-38960000D02*
X193713748Y-38960000D01*
X194336252Y-47710000D02*
X193813748Y-47710000D01*
X194336252Y-46290000D02*
X193813748Y-46290000D01*
X194236252Y-56710000D02*
X193713748Y-56710000D01*
X194236252Y-55290000D02*
X193713748Y-55290000D01*
X194336252Y-64040000D02*
X193813748Y-64040000D01*
X194336252Y-65460000D02*
X193813748Y-65460000D01*
X194336252Y-74210000D02*
X193813748Y-74210000D01*
X194336252Y-72790000D02*
X193813748Y-72790000D01*
X194336252Y-81540000D02*
X193813748Y-81540000D01*
X194336252Y-82960000D02*
X193813748Y-82960000D01*
D13*
X183174523Y-85189761D02*
X181904523Y-85189761D01*
X183053571Y-83859285D02*
X183114047Y-83919761D01*
X183174523Y-84101190D01*
X183174523Y-84222142D01*
X183114047Y-84403571D01*
X182993095Y-84524523D01*
X182872142Y-84585000D01*
X182630238Y-84645476D01*
X182448809Y-84645476D01*
X182206904Y-84585000D01*
X182085952Y-84524523D01*
X181965000Y-84403571D01*
X181904523Y-84222142D01*
X181904523Y-84101190D01*
X181965000Y-83919761D01*
X182025476Y-83859285D01*
X182327857Y-82770714D02*
X183174523Y-82770714D01*
X181844047Y-83073095D02*
X182751190Y-83375476D01*
X182751190Y-82589285D01*
X157510238Y-31824523D02*
X157510238Y-30554523D01*
X158840714Y-31703571D02*
X158780238Y-31764047D01*
X158598809Y-31824523D01*
X158477857Y-31824523D01*
X158296428Y-31764047D01*
X158175476Y-31643095D01*
X158115000Y-31522142D01*
X158054523Y-31280238D01*
X158054523Y-31098809D01*
X158115000Y-30856904D01*
X158175476Y-30735952D01*
X158296428Y-30615000D01*
X158477857Y-30554523D01*
X158598809Y-30554523D01*
X158780238Y-30615000D01*
X158840714Y-30675476D01*
X159324523Y-30675476D02*
X159385000Y-30615000D01*
X159505952Y-30554523D01*
X159808333Y-30554523D01*
X159929285Y-30615000D01*
X159989761Y-30675476D01*
X160050238Y-30796428D01*
X160050238Y-30917380D01*
X159989761Y-31098809D01*
X159264047Y-31824523D01*
X160050238Y-31824523D01*
D14*
X208978571Y-27014285D02*
X209026190Y-26871428D01*
X209073809Y-26823809D01*
X209169047Y-26776190D01*
X209311904Y-26776190D01*
X209407142Y-26823809D01*
X209454761Y-26871428D01*
X209502380Y-26966666D01*
X209502380Y-27347619D01*
X208502380Y-27347619D01*
X208502380Y-27014285D01*
X208550000Y-26919047D01*
X208597619Y-26871428D01*
X208692857Y-26823809D01*
X208788095Y-26823809D01*
X208883333Y-26871428D01*
X208930952Y-26919047D01*
X208978571Y-27014285D01*
X208978571Y-27347619D01*
X209502380Y-25919047D02*
X208978571Y-25919047D01*
X208883333Y-25966666D01*
X208835714Y-26061904D01*
X208835714Y-26252380D01*
X208883333Y-26347619D01*
X209454761Y-25919047D02*
X209502380Y-26014285D01*
X209502380Y-26252380D01*
X209454761Y-26347619D01*
X209359523Y-26395238D01*
X209264285Y-26395238D01*
X209169047Y-26347619D01*
X209121428Y-26252380D01*
X209121428Y-26014285D01*
X209073809Y-25919047D01*
X209502380Y-25442857D02*
X208835714Y-25442857D01*
X209026190Y-25442857D02*
X208930952Y-25395238D01*
X208883333Y-25347619D01*
X208835714Y-25252380D01*
X208835714Y-25157142D01*
X209502380Y-24823809D02*
X208835714Y-24823809D01*
X209026190Y-24823809D02*
X208930952Y-24776190D01*
X208883333Y-24728571D01*
X208835714Y-24633333D01*
X208835714Y-24538095D01*
X209454761Y-23823809D02*
X209502380Y-23919047D01*
X209502380Y-24109523D01*
X209454761Y-24204761D01*
X209359523Y-24252380D01*
X208978571Y-24252380D01*
X208883333Y-24204761D01*
X208835714Y-24109523D01*
X208835714Y-23919047D01*
X208883333Y-23823809D01*
X208978571Y-23776190D01*
X209073809Y-23776190D01*
X209169047Y-24252380D01*
X209502380Y-23204761D02*
X209454761Y-23300000D01*
X209359523Y-23347619D01*
X208502380Y-23347619D01*
X209597619Y-23061904D02*
X209597619Y-22300000D01*
X208502380Y-21776190D02*
X209216666Y-21776190D01*
X209359523Y-21823809D01*
X209454761Y-21919047D01*
X209502380Y-22061904D01*
X209502380Y-22157142D01*
X209502380Y-20871428D02*
X208978571Y-20871428D01*
X208883333Y-20919047D01*
X208835714Y-21014285D01*
X208835714Y-21204761D01*
X208883333Y-21300000D01*
X209454761Y-20871428D02*
X209502380Y-20966666D01*
X209502380Y-21204761D01*
X209454761Y-21300000D01*
X209359523Y-21347619D01*
X209264285Y-21347619D01*
X209169047Y-21300000D01*
X209121428Y-21204761D01*
X209121428Y-20966666D01*
X209073809Y-20871428D01*
X209454761Y-19966666D02*
X209502380Y-20061904D01*
X209502380Y-20252380D01*
X209454761Y-20347619D01*
X209407142Y-20395238D01*
X209311904Y-20442857D01*
X209026190Y-20442857D01*
X208930952Y-20395238D01*
X208883333Y-20347619D01*
X208835714Y-20252380D01*
X208835714Y-20061904D01*
X208883333Y-19966666D01*
X209502380Y-19538095D02*
X208502380Y-19538095D01*
X209121428Y-19442857D02*
X209502380Y-19157142D01*
X208835714Y-19157142D02*
X209216666Y-19538095D01*
X209502380Y-18204761D02*
X209502380Y-18776190D01*
X209502380Y-18490476D02*
X208502380Y-18490476D01*
X208645238Y-18585714D01*
X208740476Y-18680952D01*
X208788095Y-18776190D01*
X167007142Y-27866666D02*
X167054761Y-27914285D01*
X167102380Y-28057142D01*
X167102380Y-28152380D01*
X167054761Y-28295238D01*
X166959523Y-28390476D01*
X166864285Y-28438095D01*
X166673809Y-28485714D01*
X166530952Y-28485714D01*
X166340476Y-28438095D01*
X166245238Y-28390476D01*
X166150000Y-28295238D01*
X166102380Y-28152380D01*
X166102380Y-28057142D01*
X166150000Y-27914285D01*
X166197619Y-27866666D01*
X167102380Y-26914285D02*
X167102380Y-27485714D01*
X167102380Y-27200000D02*
X166102380Y-27200000D01*
X166245238Y-27295238D01*
X166340476Y-27390476D01*
X166388095Y-27485714D01*
X168007142Y-40666666D02*
X168054761Y-40714285D01*
X168102380Y-40857142D01*
X168102380Y-40952380D01*
X168054761Y-41095238D01*
X167959523Y-41190476D01*
X167864285Y-41238095D01*
X167673809Y-41285714D01*
X167530952Y-41285714D01*
X167340476Y-41238095D01*
X167245238Y-41190476D01*
X167150000Y-41095238D01*
X167102380Y-40952380D01*
X167102380Y-40857142D01*
X167150000Y-40714285D01*
X167197619Y-40666666D01*
X167197619Y-40285714D02*
X167150000Y-40238095D01*
X167102380Y-40142857D01*
X167102380Y-39904761D01*
X167150000Y-39809523D01*
X167197619Y-39761904D01*
X167292857Y-39714285D01*
X167388095Y-39714285D01*
X167530952Y-39761904D01*
X168102380Y-40333333D01*
X168102380Y-39714285D01*
X197007142Y-42416666D02*
X197054761Y-42464285D01*
X197102380Y-42607142D01*
X197102380Y-42702380D01*
X197054761Y-42845238D01*
X196959523Y-42940476D01*
X196864285Y-42988095D01*
X196673809Y-43035714D01*
X196530952Y-43035714D01*
X196340476Y-42988095D01*
X196245238Y-42940476D01*
X196150000Y-42845238D01*
X196102380Y-42702380D01*
X196102380Y-42607142D01*
X196150000Y-42464285D01*
X196197619Y-42416666D01*
X196102380Y-42083333D02*
X196102380Y-41464285D01*
X196483333Y-41797619D01*
X196483333Y-41654761D01*
X196530952Y-41559523D01*
X196578571Y-41511904D01*
X196673809Y-41464285D01*
X196911904Y-41464285D01*
X197007142Y-41511904D01*
X197054761Y-41559523D01*
X197102380Y-41654761D01*
X197102380Y-41940476D01*
X197054761Y-42035714D01*
X197007142Y-42083333D01*
X197007142Y-51304166D02*
X197054761Y-51351785D01*
X197102380Y-51494642D01*
X197102380Y-51589880D01*
X197054761Y-51732738D01*
X196959523Y-51827976D01*
X196864285Y-51875595D01*
X196673809Y-51923214D01*
X196530952Y-51923214D01*
X196340476Y-51875595D01*
X196245238Y-51827976D01*
X196150000Y-51732738D01*
X196102380Y-51589880D01*
X196102380Y-51494642D01*
X196150000Y-51351785D01*
X196197619Y-51304166D01*
X196435714Y-50447023D02*
X197102380Y-50447023D01*
X196054761Y-50685119D02*
X196769047Y-50923214D01*
X196769047Y-50304166D01*
X197007142Y-60229166D02*
X197054761Y-60276785D01*
X197102380Y-60419642D01*
X197102380Y-60514880D01*
X197054761Y-60657738D01*
X196959523Y-60752976D01*
X196864285Y-60800595D01*
X196673809Y-60848214D01*
X196530952Y-60848214D01*
X196340476Y-60800595D01*
X196245238Y-60752976D01*
X196150000Y-60657738D01*
X196102380Y-60514880D01*
X196102380Y-60419642D01*
X196150000Y-60276785D01*
X196197619Y-60229166D01*
X196102380Y-59324404D02*
X196102380Y-59800595D01*
X196578571Y-59848214D01*
X196530952Y-59800595D01*
X196483333Y-59705357D01*
X196483333Y-59467261D01*
X196530952Y-59372023D01*
X196578571Y-59324404D01*
X196673809Y-59276785D01*
X196911904Y-59276785D01*
X197007142Y-59324404D01*
X197054761Y-59372023D01*
X197102380Y-59467261D01*
X197102380Y-59705357D01*
X197054761Y-59800595D01*
X197007142Y-59848214D01*
X197007142Y-68979166D02*
X197054761Y-69026785D01*
X197102380Y-69169642D01*
X197102380Y-69264880D01*
X197054761Y-69407738D01*
X196959523Y-69502976D01*
X196864285Y-69550595D01*
X196673809Y-69598214D01*
X196530952Y-69598214D01*
X196340476Y-69550595D01*
X196245238Y-69502976D01*
X196150000Y-69407738D01*
X196102380Y-69264880D01*
X196102380Y-69169642D01*
X196150000Y-69026785D01*
X196197619Y-68979166D01*
X196102380Y-68122023D02*
X196102380Y-68312500D01*
X196150000Y-68407738D01*
X196197619Y-68455357D01*
X196340476Y-68550595D01*
X196530952Y-68598214D01*
X196911904Y-68598214D01*
X197007142Y-68550595D01*
X197054761Y-68502976D01*
X197102380Y-68407738D01*
X197102380Y-68217261D01*
X197054761Y-68122023D01*
X197007142Y-68074404D01*
X196911904Y-68026785D01*
X196673809Y-68026785D01*
X196578571Y-68074404D01*
X196530952Y-68122023D01*
X196483333Y-68217261D01*
X196483333Y-68407738D01*
X196530952Y-68502976D01*
X196578571Y-68550595D01*
X196673809Y-68598214D01*
X197007142Y-77729166D02*
X197054761Y-77776785D01*
X197102380Y-77919642D01*
X197102380Y-78014880D01*
X197054761Y-78157738D01*
X196959523Y-78252976D01*
X196864285Y-78300595D01*
X196673809Y-78348214D01*
X196530952Y-78348214D01*
X196340476Y-78300595D01*
X196245238Y-78252976D01*
X196150000Y-78157738D01*
X196102380Y-78014880D01*
X196102380Y-77919642D01*
X196150000Y-77776785D01*
X196197619Y-77729166D01*
X196102380Y-77395833D02*
X196102380Y-76729166D01*
X197102380Y-77157738D01*
X197007142Y-86479166D02*
X197054761Y-86526785D01*
X197102380Y-86669642D01*
X197102380Y-86764880D01*
X197054761Y-86907738D01*
X196959523Y-87002976D01*
X196864285Y-87050595D01*
X196673809Y-87098214D01*
X196530952Y-87098214D01*
X196340476Y-87050595D01*
X196245238Y-87002976D01*
X196150000Y-86907738D01*
X196102380Y-86764880D01*
X196102380Y-86669642D01*
X196150000Y-86526785D01*
X196197619Y-86479166D01*
X196530952Y-85907738D02*
X196483333Y-86002976D01*
X196435714Y-86050595D01*
X196340476Y-86098214D01*
X196292857Y-86098214D01*
X196197619Y-86050595D01*
X196150000Y-86002976D01*
X196102380Y-85907738D01*
X196102380Y-85717261D01*
X196150000Y-85622023D01*
X196197619Y-85574404D01*
X196292857Y-85526785D01*
X196340476Y-85526785D01*
X196435714Y-85574404D01*
X196483333Y-85622023D01*
X196530952Y-85717261D01*
X196530952Y-85907738D01*
X196578571Y-86002976D01*
X196626190Y-86050595D01*
X196721428Y-86098214D01*
X196911904Y-86098214D01*
X197007142Y-86050595D01*
X197054761Y-86002976D01*
X197102380Y-85907738D01*
X197102380Y-85717261D01*
X197054761Y-85622023D01*
X197007142Y-85574404D01*
X196911904Y-85526785D01*
X196721428Y-85526785D01*
X196626190Y-85574404D01*
X196578571Y-85622023D01*
X196530952Y-85717261D01*
X179352380Y-26488095D02*
X178352380Y-26488095D01*
X178352380Y-26250000D01*
X178400000Y-26107142D01*
X178495238Y-26011904D01*
X178590476Y-25964285D01*
X178780952Y-25916666D01*
X178923809Y-25916666D01*
X179114285Y-25964285D01*
X179209523Y-26011904D01*
X179304761Y-26107142D01*
X179352380Y-26250000D01*
X179352380Y-26488095D01*
X179352380Y-24964285D02*
X179352380Y-25535714D01*
X179352380Y-25250000D02*
X178352380Y-25250000D01*
X178495238Y-25345238D01*
X178590476Y-25440476D01*
X178638095Y-25535714D01*
D13*
X130983333Y-32414285D02*
X131406666Y-32414285D01*
X131588095Y-33079523D02*
X130983333Y-33079523D01*
X130983333Y-31809523D01*
X131588095Y-31809523D01*
X132071904Y-33019047D02*
X132253333Y-33079523D01*
X132555714Y-33079523D01*
X132676666Y-33019047D01*
X132737142Y-32958571D01*
X132797619Y-32837619D01*
X132797619Y-32716666D01*
X132737142Y-32595714D01*
X132676666Y-32535238D01*
X132555714Y-32474761D01*
X132313809Y-32414285D01*
X132192857Y-32353809D01*
X132132380Y-32293333D01*
X132071904Y-32172380D01*
X132071904Y-32051428D01*
X132132380Y-31930476D01*
X132192857Y-31870000D01*
X132313809Y-31809523D01*
X132616190Y-31809523D01*
X132797619Y-31870000D01*
X133341904Y-33079523D02*
X133341904Y-31809523D01*
X133825714Y-31809523D01*
X133946666Y-31870000D01*
X134007142Y-31930476D01*
X134067619Y-32051428D01*
X134067619Y-32232857D01*
X134007142Y-32353809D01*
X133946666Y-32414285D01*
X133825714Y-32474761D01*
X133341904Y-32474761D01*
X135277142Y-33079523D02*
X134551428Y-33079523D01*
X134914285Y-33079523D02*
X134914285Y-31809523D01*
X134793333Y-31990952D01*
X134672380Y-32111904D01*
X134551428Y-32172380D01*
X174074523Y-25939761D02*
X172804523Y-25939761D01*
X173953571Y-24609285D02*
X174014047Y-24669761D01*
X174074523Y-24851190D01*
X174074523Y-24972142D01*
X174014047Y-25153571D01*
X173893095Y-25274523D01*
X173772142Y-25335000D01*
X173530238Y-25395476D01*
X173348809Y-25395476D01*
X173106904Y-25335000D01*
X172985952Y-25274523D01*
X172865000Y-25153571D01*
X172804523Y-24972142D01*
X172804523Y-24851190D01*
X172865000Y-24669761D01*
X172925476Y-24609285D01*
X174074523Y-23399761D02*
X174074523Y-24125476D01*
X174074523Y-23762619D02*
X172804523Y-23762619D01*
X172985952Y-23883571D01*
X173106904Y-24004523D01*
X173167380Y-24125476D01*
X157510238Y-44324523D02*
X157510238Y-43054523D01*
X158840714Y-44203571D02*
X158780238Y-44264047D01*
X158598809Y-44324523D01*
X158477857Y-44324523D01*
X158296428Y-44264047D01*
X158175476Y-44143095D01*
X158115000Y-44022142D01*
X158054523Y-43780238D01*
X158054523Y-43598809D01*
X158115000Y-43356904D01*
X158175476Y-43235952D01*
X158296428Y-43115000D01*
X158477857Y-43054523D01*
X158598809Y-43054523D01*
X158780238Y-43115000D01*
X158840714Y-43175476D01*
X159264047Y-43054523D02*
X160050238Y-43054523D01*
X159626904Y-43538333D01*
X159808333Y-43538333D01*
X159929285Y-43598809D01*
X159989761Y-43659285D01*
X160050238Y-43780238D01*
X160050238Y-44082619D01*
X159989761Y-44203571D01*
X159929285Y-44264047D01*
X159808333Y-44324523D01*
X159445476Y-44324523D01*
X159324523Y-44264047D01*
X159264047Y-44203571D01*
D14*
X193107142Y-35892380D02*
X193107142Y-34892380D01*
X193440476Y-35606666D01*
X193773809Y-34892380D01*
X193773809Y-35892380D01*
X194392857Y-35892380D02*
X194297619Y-35844761D01*
X194250000Y-35797142D01*
X194202380Y-35701904D01*
X194202380Y-35416190D01*
X194250000Y-35320952D01*
X194297619Y-35273333D01*
X194392857Y-35225714D01*
X194535714Y-35225714D01*
X194630952Y-35273333D01*
X194678571Y-35320952D01*
X194726190Y-35416190D01*
X194726190Y-35701904D01*
X194678571Y-35797142D01*
X194630952Y-35844761D01*
X194535714Y-35892380D01*
X194392857Y-35892380D01*
X195011904Y-35225714D02*
X195392857Y-35225714D01*
X195154761Y-34892380D02*
X195154761Y-35749523D01*
X195202380Y-35844761D01*
X195297619Y-35892380D01*
X195392857Y-35892380D01*
X195869047Y-35892380D02*
X195773809Y-35844761D01*
X195726190Y-35797142D01*
X195678571Y-35701904D01*
X195678571Y-35416190D01*
X195726190Y-35320952D01*
X195773809Y-35273333D01*
X195869047Y-35225714D01*
X196011904Y-35225714D01*
X196107142Y-35273333D01*
X196154761Y-35320952D01*
X196202380Y-35416190D01*
X196202380Y-35701904D01*
X196154761Y-35797142D01*
X196107142Y-35844761D01*
X196011904Y-35892380D01*
X195869047Y-35892380D01*
X196630952Y-35892380D02*
X196630952Y-35225714D01*
X196630952Y-35416190D02*
X196678571Y-35320952D01*
X196726190Y-35273333D01*
X196821428Y-35225714D01*
X196916666Y-35225714D01*
X197773809Y-35892380D02*
X197202380Y-35892380D01*
X197488095Y-35892380D02*
X197488095Y-34892380D01*
X197392857Y-35035238D01*
X197297619Y-35130476D01*
X197202380Y-35178095D01*
X198773809Y-35797142D02*
X198726190Y-35844761D01*
X198583333Y-35892380D01*
X198488095Y-35892380D01*
X198345238Y-35844761D01*
X198250000Y-35749523D01*
X198202380Y-35654285D01*
X198154761Y-35463809D01*
X198154761Y-35320952D01*
X198202380Y-35130476D01*
X198250000Y-35035238D01*
X198345238Y-34940000D01*
X198488095Y-34892380D01*
X198583333Y-34892380D01*
X198726190Y-34940000D01*
X198773809Y-34987619D01*
X199345238Y-35892380D02*
X199250000Y-35844761D01*
X199202380Y-35797142D01*
X199154761Y-35701904D01*
X199154761Y-35416190D01*
X199202380Y-35320952D01*
X199250000Y-35273333D01*
X199345238Y-35225714D01*
X199488095Y-35225714D01*
X199583333Y-35273333D01*
X199630952Y-35320952D01*
X199678571Y-35416190D01*
X199678571Y-35701904D01*
X199630952Y-35797142D01*
X199583333Y-35844761D01*
X199488095Y-35892380D01*
X199345238Y-35892380D01*
X200107142Y-35225714D02*
X200107142Y-35892380D01*
X200107142Y-35320952D02*
X200154761Y-35273333D01*
X200250000Y-35225714D01*
X200392857Y-35225714D01*
X200488095Y-35273333D01*
X200535714Y-35368571D01*
X200535714Y-35892380D01*
X201011904Y-35225714D02*
X201011904Y-35892380D01*
X201011904Y-35320952D02*
X201059523Y-35273333D01*
X201154761Y-35225714D01*
X201297619Y-35225714D01*
X201392857Y-35273333D01*
X201440476Y-35368571D01*
X201440476Y-35892380D01*
X202440476Y-35892380D02*
X201869047Y-35892380D01*
X202154761Y-35892380D02*
X202154761Y-34892380D01*
X202059523Y-35035238D01*
X201964285Y-35130476D01*
X201869047Y-35178095D01*
X193107142Y-44682380D02*
X193107142Y-43682380D01*
X193440476Y-44396666D01*
X193773809Y-43682380D01*
X193773809Y-44682380D01*
X194392857Y-44682380D02*
X194297619Y-44634761D01*
X194250000Y-44587142D01*
X194202380Y-44491904D01*
X194202380Y-44206190D01*
X194250000Y-44110952D01*
X194297619Y-44063333D01*
X194392857Y-44015714D01*
X194535714Y-44015714D01*
X194630952Y-44063333D01*
X194678571Y-44110952D01*
X194726190Y-44206190D01*
X194726190Y-44491904D01*
X194678571Y-44587142D01*
X194630952Y-44634761D01*
X194535714Y-44682380D01*
X194392857Y-44682380D01*
X195011904Y-44015714D02*
X195392857Y-44015714D01*
X195154761Y-43682380D02*
X195154761Y-44539523D01*
X195202380Y-44634761D01*
X195297619Y-44682380D01*
X195392857Y-44682380D01*
X195869047Y-44682380D02*
X195773809Y-44634761D01*
X195726190Y-44587142D01*
X195678571Y-44491904D01*
X195678571Y-44206190D01*
X195726190Y-44110952D01*
X195773809Y-44063333D01*
X195869047Y-44015714D01*
X196011904Y-44015714D01*
X196107142Y-44063333D01*
X196154761Y-44110952D01*
X196202380Y-44206190D01*
X196202380Y-44491904D01*
X196154761Y-44587142D01*
X196107142Y-44634761D01*
X196011904Y-44682380D01*
X195869047Y-44682380D01*
X196630952Y-44682380D02*
X196630952Y-44015714D01*
X196630952Y-44206190D02*
X196678571Y-44110952D01*
X196726190Y-44063333D01*
X196821428Y-44015714D01*
X196916666Y-44015714D01*
X197202380Y-43777619D02*
X197250000Y-43730000D01*
X197345238Y-43682380D01*
X197583333Y-43682380D01*
X197678571Y-43730000D01*
X197726190Y-43777619D01*
X197773809Y-43872857D01*
X197773809Y-43968095D01*
X197726190Y-44110952D01*
X197154761Y-44682380D01*
X197773809Y-44682380D01*
X198773809Y-44587142D02*
X198726190Y-44634761D01*
X198583333Y-44682380D01*
X198488095Y-44682380D01*
X198345238Y-44634761D01*
X198250000Y-44539523D01*
X198202380Y-44444285D01*
X198154761Y-44253809D01*
X198154761Y-44110952D01*
X198202380Y-43920476D01*
X198250000Y-43825238D01*
X198345238Y-43730000D01*
X198488095Y-43682380D01*
X198583333Y-43682380D01*
X198726190Y-43730000D01*
X198773809Y-43777619D01*
X199345238Y-44682380D02*
X199250000Y-44634761D01*
X199202380Y-44587142D01*
X199154761Y-44491904D01*
X199154761Y-44206190D01*
X199202380Y-44110952D01*
X199250000Y-44063333D01*
X199345238Y-44015714D01*
X199488095Y-44015714D01*
X199583333Y-44063333D01*
X199630952Y-44110952D01*
X199678571Y-44206190D01*
X199678571Y-44491904D01*
X199630952Y-44587142D01*
X199583333Y-44634761D01*
X199488095Y-44682380D01*
X199345238Y-44682380D01*
X200107142Y-44015714D02*
X200107142Y-44682380D01*
X200107142Y-44110952D02*
X200154761Y-44063333D01*
X200250000Y-44015714D01*
X200392857Y-44015714D01*
X200488095Y-44063333D01*
X200535714Y-44158571D01*
X200535714Y-44682380D01*
X201011904Y-44015714D02*
X201011904Y-44682380D01*
X201011904Y-44110952D02*
X201059523Y-44063333D01*
X201154761Y-44015714D01*
X201297619Y-44015714D01*
X201392857Y-44063333D01*
X201440476Y-44158571D01*
X201440476Y-44682380D01*
X202440476Y-44682380D02*
X201869047Y-44682380D01*
X202154761Y-44682380D02*
X202154761Y-43682380D01*
X202059523Y-43825238D01*
X201964285Y-43920476D01*
X201869047Y-43968095D01*
X193107142Y-53642380D02*
X193107142Y-52642380D01*
X193440476Y-53356666D01*
X193773809Y-52642380D01*
X193773809Y-53642380D01*
X194392857Y-53642380D02*
X194297619Y-53594761D01*
X194250000Y-53547142D01*
X194202380Y-53451904D01*
X194202380Y-53166190D01*
X194250000Y-53070952D01*
X194297619Y-53023333D01*
X194392857Y-52975714D01*
X194535714Y-52975714D01*
X194630952Y-53023333D01*
X194678571Y-53070952D01*
X194726190Y-53166190D01*
X194726190Y-53451904D01*
X194678571Y-53547142D01*
X194630952Y-53594761D01*
X194535714Y-53642380D01*
X194392857Y-53642380D01*
X195011904Y-52975714D02*
X195392857Y-52975714D01*
X195154761Y-52642380D02*
X195154761Y-53499523D01*
X195202380Y-53594761D01*
X195297619Y-53642380D01*
X195392857Y-53642380D01*
X195869047Y-53642380D02*
X195773809Y-53594761D01*
X195726190Y-53547142D01*
X195678571Y-53451904D01*
X195678571Y-53166190D01*
X195726190Y-53070952D01*
X195773809Y-53023333D01*
X195869047Y-52975714D01*
X196011904Y-52975714D01*
X196107142Y-53023333D01*
X196154761Y-53070952D01*
X196202380Y-53166190D01*
X196202380Y-53451904D01*
X196154761Y-53547142D01*
X196107142Y-53594761D01*
X196011904Y-53642380D01*
X195869047Y-53642380D01*
X196630952Y-53642380D02*
X196630952Y-52975714D01*
X196630952Y-53166190D02*
X196678571Y-53070952D01*
X196726190Y-53023333D01*
X196821428Y-52975714D01*
X196916666Y-52975714D01*
X197154761Y-52642380D02*
X197773809Y-52642380D01*
X197440476Y-53023333D01*
X197583333Y-53023333D01*
X197678571Y-53070952D01*
X197726190Y-53118571D01*
X197773809Y-53213809D01*
X197773809Y-53451904D01*
X197726190Y-53547142D01*
X197678571Y-53594761D01*
X197583333Y-53642380D01*
X197297619Y-53642380D01*
X197202380Y-53594761D01*
X197154761Y-53547142D01*
X198773809Y-53547142D02*
X198726190Y-53594761D01*
X198583333Y-53642380D01*
X198488095Y-53642380D01*
X198345238Y-53594761D01*
X198250000Y-53499523D01*
X198202380Y-53404285D01*
X198154761Y-53213809D01*
X198154761Y-53070952D01*
X198202380Y-52880476D01*
X198250000Y-52785238D01*
X198345238Y-52690000D01*
X198488095Y-52642380D01*
X198583333Y-52642380D01*
X198726190Y-52690000D01*
X198773809Y-52737619D01*
X199345238Y-53642380D02*
X199250000Y-53594761D01*
X199202380Y-53547142D01*
X199154761Y-53451904D01*
X199154761Y-53166190D01*
X199202380Y-53070952D01*
X199250000Y-53023333D01*
X199345238Y-52975714D01*
X199488095Y-52975714D01*
X199583333Y-53023333D01*
X199630952Y-53070952D01*
X199678571Y-53166190D01*
X199678571Y-53451904D01*
X199630952Y-53547142D01*
X199583333Y-53594761D01*
X199488095Y-53642380D01*
X199345238Y-53642380D01*
X200107142Y-52975714D02*
X200107142Y-53642380D01*
X200107142Y-53070952D02*
X200154761Y-53023333D01*
X200250000Y-52975714D01*
X200392857Y-52975714D01*
X200488095Y-53023333D01*
X200535714Y-53118571D01*
X200535714Y-53642380D01*
X201011904Y-52975714D02*
X201011904Y-53642380D01*
X201011904Y-53070952D02*
X201059523Y-53023333D01*
X201154761Y-52975714D01*
X201297619Y-52975714D01*
X201392857Y-53023333D01*
X201440476Y-53118571D01*
X201440476Y-53642380D01*
X202440476Y-53642380D02*
X201869047Y-53642380D01*
X202154761Y-53642380D02*
X202154761Y-52642380D01*
X202059523Y-52785238D01*
X201964285Y-52880476D01*
X201869047Y-52928095D01*
X193107142Y-62392380D02*
X193107142Y-61392380D01*
X193440476Y-62106666D01*
X193773809Y-61392380D01*
X193773809Y-62392380D01*
X194392857Y-62392380D02*
X194297619Y-62344761D01*
X194250000Y-62297142D01*
X194202380Y-62201904D01*
X194202380Y-61916190D01*
X194250000Y-61820952D01*
X194297619Y-61773333D01*
X194392857Y-61725714D01*
X194535714Y-61725714D01*
X194630952Y-61773333D01*
X194678571Y-61820952D01*
X194726190Y-61916190D01*
X194726190Y-62201904D01*
X194678571Y-62297142D01*
X194630952Y-62344761D01*
X194535714Y-62392380D01*
X194392857Y-62392380D01*
X195011904Y-61725714D02*
X195392857Y-61725714D01*
X195154761Y-61392380D02*
X195154761Y-62249523D01*
X195202380Y-62344761D01*
X195297619Y-62392380D01*
X195392857Y-62392380D01*
X195869047Y-62392380D02*
X195773809Y-62344761D01*
X195726190Y-62297142D01*
X195678571Y-62201904D01*
X195678571Y-61916190D01*
X195726190Y-61820952D01*
X195773809Y-61773333D01*
X195869047Y-61725714D01*
X196011904Y-61725714D01*
X196107142Y-61773333D01*
X196154761Y-61820952D01*
X196202380Y-61916190D01*
X196202380Y-62201904D01*
X196154761Y-62297142D01*
X196107142Y-62344761D01*
X196011904Y-62392380D01*
X195869047Y-62392380D01*
X196630952Y-62392380D02*
X196630952Y-61725714D01*
X196630952Y-61916190D02*
X196678571Y-61820952D01*
X196726190Y-61773333D01*
X196821428Y-61725714D01*
X196916666Y-61725714D01*
X197678571Y-61725714D02*
X197678571Y-62392380D01*
X197440476Y-61344761D02*
X197202380Y-62059047D01*
X197821428Y-62059047D01*
X198773809Y-62297142D02*
X198726190Y-62344761D01*
X198583333Y-62392380D01*
X198488095Y-62392380D01*
X198345238Y-62344761D01*
X198250000Y-62249523D01*
X198202380Y-62154285D01*
X198154761Y-61963809D01*
X198154761Y-61820952D01*
X198202380Y-61630476D01*
X198250000Y-61535238D01*
X198345238Y-61440000D01*
X198488095Y-61392380D01*
X198583333Y-61392380D01*
X198726190Y-61440000D01*
X198773809Y-61487619D01*
X199345238Y-62392380D02*
X199250000Y-62344761D01*
X199202380Y-62297142D01*
X199154761Y-62201904D01*
X199154761Y-61916190D01*
X199202380Y-61820952D01*
X199250000Y-61773333D01*
X199345238Y-61725714D01*
X199488095Y-61725714D01*
X199583333Y-61773333D01*
X199630952Y-61820952D01*
X199678571Y-61916190D01*
X199678571Y-62201904D01*
X199630952Y-62297142D01*
X199583333Y-62344761D01*
X199488095Y-62392380D01*
X199345238Y-62392380D01*
X200107142Y-61725714D02*
X200107142Y-62392380D01*
X200107142Y-61820952D02*
X200154761Y-61773333D01*
X200250000Y-61725714D01*
X200392857Y-61725714D01*
X200488095Y-61773333D01*
X200535714Y-61868571D01*
X200535714Y-62392380D01*
X201011904Y-61725714D02*
X201011904Y-62392380D01*
X201011904Y-61820952D02*
X201059523Y-61773333D01*
X201154761Y-61725714D01*
X201297619Y-61725714D01*
X201392857Y-61773333D01*
X201440476Y-61868571D01*
X201440476Y-62392380D01*
X202440476Y-62392380D02*
X201869047Y-62392380D01*
X202154761Y-62392380D02*
X202154761Y-61392380D01*
X202059523Y-61535238D01*
X201964285Y-61630476D01*
X201869047Y-61678095D01*
X193107142Y-71142380D02*
X193107142Y-70142380D01*
X193440476Y-70856666D01*
X193773809Y-70142380D01*
X193773809Y-71142380D01*
X194392857Y-71142380D02*
X194297619Y-71094761D01*
X194250000Y-71047142D01*
X194202380Y-70951904D01*
X194202380Y-70666190D01*
X194250000Y-70570952D01*
X194297619Y-70523333D01*
X194392857Y-70475714D01*
X194535714Y-70475714D01*
X194630952Y-70523333D01*
X194678571Y-70570952D01*
X194726190Y-70666190D01*
X194726190Y-70951904D01*
X194678571Y-71047142D01*
X194630952Y-71094761D01*
X194535714Y-71142380D01*
X194392857Y-71142380D01*
X195011904Y-70475714D02*
X195392857Y-70475714D01*
X195154761Y-70142380D02*
X195154761Y-70999523D01*
X195202380Y-71094761D01*
X195297619Y-71142380D01*
X195392857Y-71142380D01*
X195869047Y-71142380D02*
X195773809Y-71094761D01*
X195726190Y-71047142D01*
X195678571Y-70951904D01*
X195678571Y-70666190D01*
X195726190Y-70570952D01*
X195773809Y-70523333D01*
X195869047Y-70475714D01*
X196011904Y-70475714D01*
X196107142Y-70523333D01*
X196154761Y-70570952D01*
X196202380Y-70666190D01*
X196202380Y-70951904D01*
X196154761Y-71047142D01*
X196107142Y-71094761D01*
X196011904Y-71142380D01*
X195869047Y-71142380D01*
X196630952Y-71142380D02*
X196630952Y-70475714D01*
X196630952Y-70666190D02*
X196678571Y-70570952D01*
X196726190Y-70523333D01*
X196821428Y-70475714D01*
X196916666Y-70475714D01*
X197726190Y-70142380D02*
X197250000Y-70142380D01*
X197202380Y-70618571D01*
X197250000Y-70570952D01*
X197345238Y-70523333D01*
X197583333Y-70523333D01*
X197678571Y-70570952D01*
X197726190Y-70618571D01*
X197773809Y-70713809D01*
X197773809Y-70951904D01*
X197726190Y-71047142D01*
X197678571Y-71094761D01*
X197583333Y-71142380D01*
X197345238Y-71142380D01*
X197250000Y-71094761D01*
X197202380Y-71047142D01*
X198773809Y-71047142D02*
X198726190Y-71094761D01*
X198583333Y-71142380D01*
X198488095Y-71142380D01*
X198345238Y-71094761D01*
X198250000Y-70999523D01*
X198202380Y-70904285D01*
X198154761Y-70713809D01*
X198154761Y-70570952D01*
X198202380Y-70380476D01*
X198250000Y-70285238D01*
X198345238Y-70190000D01*
X198488095Y-70142380D01*
X198583333Y-70142380D01*
X198726190Y-70190000D01*
X198773809Y-70237619D01*
X199345238Y-71142380D02*
X199250000Y-71094761D01*
X199202380Y-71047142D01*
X199154761Y-70951904D01*
X199154761Y-70666190D01*
X199202380Y-70570952D01*
X199250000Y-70523333D01*
X199345238Y-70475714D01*
X199488095Y-70475714D01*
X199583333Y-70523333D01*
X199630952Y-70570952D01*
X199678571Y-70666190D01*
X199678571Y-70951904D01*
X199630952Y-71047142D01*
X199583333Y-71094761D01*
X199488095Y-71142380D01*
X199345238Y-71142380D01*
X200107142Y-70475714D02*
X200107142Y-71142380D01*
X200107142Y-70570952D02*
X200154761Y-70523333D01*
X200250000Y-70475714D01*
X200392857Y-70475714D01*
X200488095Y-70523333D01*
X200535714Y-70618571D01*
X200535714Y-71142380D01*
X201011904Y-70475714D02*
X201011904Y-71142380D01*
X201011904Y-70570952D02*
X201059523Y-70523333D01*
X201154761Y-70475714D01*
X201297619Y-70475714D01*
X201392857Y-70523333D01*
X201440476Y-70618571D01*
X201440476Y-71142380D01*
X202440476Y-71142380D02*
X201869047Y-71142380D01*
X202154761Y-71142380D02*
X202154761Y-70142380D01*
X202059523Y-70285238D01*
X201964285Y-70380476D01*
X201869047Y-70428095D01*
X193107142Y-79892380D02*
X193107142Y-78892380D01*
X193440476Y-79606666D01*
X193773809Y-78892380D01*
X193773809Y-79892380D01*
X194392857Y-79892380D02*
X194297619Y-79844761D01*
X194250000Y-79797142D01*
X194202380Y-79701904D01*
X194202380Y-79416190D01*
X194250000Y-79320952D01*
X194297619Y-79273333D01*
X194392857Y-79225714D01*
X194535714Y-79225714D01*
X194630952Y-79273333D01*
X194678571Y-79320952D01*
X194726190Y-79416190D01*
X194726190Y-79701904D01*
X194678571Y-79797142D01*
X194630952Y-79844761D01*
X194535714Y-79892380D01*
X194392857Y-79892380D01*
X195011904Y-79225714D02*
X195392857Y-79225714D01*
X195154761Y-78892380D02*
X195154761Y-79749523D01*
X195202380Y-79844761D01*
X195297619Y-79892380D01*
X195392857Y-79892380D01*
X195869047Y-79892380D02*
X195773809Y-79844761D01*
X195726190Y-79797142D01*
X195678571Y-79701904D01*
X195678571Y-79416190D01*
X195726190Y-79320952D01*
X195773809Y-79273333D01*
X195869047Y-79225714D01*
X196011904Y-79225714D01*
X196107142Y-79273333D01*
X196154761Y-79320952D01*
X196202380Y-79416190D01*
X196202380Y-79701904D01*
X196154761Y-79797142D01*
X196107142Y-79844761D01*
X196011904Y-79892380D01*
X195869047Y-79892380D01*
X196630952Y-79892380D02*
X196630952Y-79225714D01*
X196630952Y-79416190D02*
X196678571Y-79320952D01*
X196726190Y-79273333D01*
X196821428Y-79225714D01*
X196916666Y-79225714D01*
X197678571Y-78892380D02*
X197488095Y-78892380D01*
X197392857Y-78940000D01*
X197345238Y-78987619D01*
X197250000Y-79130476D01*
X197202380Y-79320952D01*
X197202380Y-79701904D01*
X197250000Y-79797142D01*
X197297619Y-79844761D01*
X197392857Y-79892380D01*
X197583333Y-79892380D01*
X197678571Y-79844761D01*
X197726190Y-79797142D01*
X197773809Y-79701904D01*
X197773809Y-79463809D01*
X197726190Y-79368571D01*
X197678571Y-79320952D01*
X197583333Y-79273333D01*
X197392857Y-79273333D01*
X197297619Y-79320952D01*
X197250000Y-79368571D01*
X197202380Y-79463809D01*
X198773809Y-79797142D02*
X198726190Y-79844761D01*
X198583333Y-79892380D01*
X198488095Y-79892380D01*
X198345238Y-79844761D01*
X198250000Y-79749523D01*
X198202380Y-79654285D01*
X198154761Y-79463809D01*
X198154761Y-79320952D01*
X198202380Y-79130476D01*
X198250000Y-79035238D01*
X198345238Y-78940000D01*
X198488095Y-78892380D01*
X198583333Y-78892380D01*
X198726190Y-78940000D01*
X198773809Y-78987619D01*
X199345238Y-79892380D02*
X199250000Y-79844761D01*
X199202380Y-79797142D01*
X199154761Y-79701904D01*
X199154761Y-79416190D01*
X199202380Y-79320952D01*
X199250000Y-79273333D01*
X199345238Y-79225714D01*
X199488095Y-79225714D01*
X199583333Y-79273333D01*
X199630952Y-79320952D01*
X199678571Y-79416190D01*
X199678571Y-79701904D01*
X199630952Y-79797142D01*
X199583333Y-79844761D01*
X199488095Y-79892380D01*
X199345238Y-79892380D01*
X200107142Y-79225714D02*
X200107142Y-79892380D01*
X200107142Y-79320952D02*
X200154761Y-79273333D01*
X200250000Y-79225714D01*
X200392857Y-79225714D01*
X200488095Y-79273333D01*
X200535714Y-79368571D01*
X200535714Y-79892380D01*
X201011904Y-79225714D02*
X201011904Y-79892380D01*
X201011904Y-79320952D02*
X201059523Y-79273333D01*
X201154761Y-79225714D01*
X201297619Y-79225714D01*
X201392857Y-79273333D01*
X201440476Y-79368571D01*
X201440476Y-79892380D01*
X202440476Y-79892380D02*
X201869047Y-79892380D01*
X202154761Y-79892380D02*
X202154761Y-78892380D01*
X202059523Y-79035238D01*
X201964285Y-79130476D01*
X201869047Y-79178095D01*
X147083333Y-48852380D02*
X146750000Y-48376190D01*
X146511904Y-48852380D02*
X146511904Y-47852380D01*
X146892857Y-47852380D01*
X146988095Y-47900000D01*
X147035714Y-47947619D01*
X147083333Y-48042857D01*
X147083333Y-48185714D01*
X147035714Y-48280952D01*
X146988095Y-48328571D01*
X146892857Y-48376190D01*
X146511904Y-48376190D01*
X148035714Y-48852380D02*
X147464285Y-48852380D01*
X147750000Y-48852380D02*
X147750000Y-47852380D01*
X147654761Y-47995238D01*
X147559523Y-48090476D01*
X147464285Y-48138095D01*
X147083333Y-45852380D02*
X146750000Y-45376190D01*
X146511904Y-45852380D02*
X146511904Y-44852380D01*
X146892857Y-44852380D01*
X146988095Y-44900000D01*
X147035714Y-44947619D01*
X147083333Y-45042857D01*
X147083333Y-45185714D01*
X147035714Y-45280952D01*
X146988095Y-45328571D01*
X146892857Y-45376190D01*
X146511904Y-45376190D01*
X147464285Y-44947619D02*
X147511904Y-44900000D01*
X147607142Y-44852380D01*
X147845238Y-44852380D01*
X147940476Y-44900000D01*
X147988095Y-44947619D01*
X148035714Y-45042857D01*
X148035714Y-45138095D01*
X147988095Y-45280952D01*
X147416666Y-45852380D01*
X148035714Y-45852380D01*
X147058333Y-42852380D02*
X146725000Y-42376190D01*
X146486904Y-42852380D02*
X146486904Y-41852380D01*
X146867857Y-41852380D01*
X146963095Y-41900000D01*
X147010714Y-41947619D01*
X147058333Y-42042857D01*
X147058333Y-42185714D01*
X147010714Y-42280952D01*
X146963095Y-42328571D01*
X146867857Y-42376190D01*
X146486904Y-42376190D01*
X147391666Y-41852380D02*
X148010714Y-41852380D01*
X147677380Y-42233333D01*
X147820238Y-42233333D01*
X147915476Y-42280952D01*
X147963095Y-42328571D01*
X148010714Y-42423809D01*
X148010714Y-42661904D01*
X147963095Y-42757142D01*
X147915476Y-42804761D01*
X147820238Y-42852380D01*
X147534523Y-42852380D01*
X147439285Y-42804761D01*
X147391666Y-42757142D01*
X147058333Y-39852380D02*
X146725000Y-39376190D01*
X146486904Y-39852380D02*
X146486904Y-38852380D01*
X146867857Y-38852380D01*
X146963095Y-38900000D01*
X147010714Y-38947619D01*
X147058333Y-39042857D01*
X147058333Y-39185714D01*
X147010714Y-39280952D01*
X146963095Y-39328571D01*
X146867857Y-39376190D01*
X146486904Y-39376190D01*
X147915476Y-39185714D02*
X147915476Y-39852380D01*
X147677380Y-38804761D02*
X147439285Y-39519047D01*
X148058333Y-39519047D01*
X147058333Y-36852380D02*
X146725000Y-36376190D01*
X146486904Y-36852380D02*
X146486904Y-35852380D01*
X146867857Y-35852380D01*
X146963095Y-35900000D01*
X147010714Y-35947619D01*
X147058333Y-36042857D01*
X147058333Y-36185714D01*
X147010714Y-36280952D01*
X146963095Y-36328571D01*
X146867857Y-36376190D01*
X146486904Y-36376190D01*
X147963095Y-35852380D02*
X147486904Y-35852380D01*
X147439285Y-36328571D01*
X147486904Y-36280952D01*
X147582142Y-36233333D01*
X147820238Y-36233333D01*
X147915476Y-36280952D01*
X147963095Y-36328571D01*
X148010714Y-36423809D01*
X148010714Y-36661904D01*
X147963095Y-36757142D01*
X147915476Y-36804761D01*
X147820238Y-36852380D01*
X147582142Y-36852380D01*
X147486904Y-36804761D01*
X147439285Y-36757142D01*
X147058333Y-33852380D02*
X146725000Y-33376190D01*
X146486904Y-33852380D02*
X146486904Y-32852380D01*
X146867857Y-32852380D01*
X146963095Y-32900000D01*
X147010714Y-32947619D01*
X147058333Y-33042857D01*
X147058333Y-33185714D01*
X147010714Y-33280952D01*
X146963095Y-33328571D01*
X146867857Y-33376190D01*
X146486904Y-33376190D01*
X147915476Y-32852380D02*
X147725000Y-32852380D01*
X147629761Y-32900000D01*
X147582142Y-32947619D01*
X147486904Y-33090476D01*
X147439285Y-33280952D01*
X147439285Y-33661904D01*
X147486904Y-33757142D01*
X147534523Y-33804761D01*
X147629761Y-33852380D01*
X147820238Y-33852380D01*
X147915476Y-33804761D01*
X147963095Y-33757142D01*
X148010714Y-33661904D01*
X148010714Y-33423809D01*
X147963095Y-33328571D01*
X147915476Y-33280952D01*
X147820238Y-33233333D01*
X147629761Y-33233333D01*
X147534523Y-33280952D01*
X147486904Y-33328571D01*
X147439285Y-33423809D01*
X182852380Y-31691666D02*
X182376190Y-32025000D01*
X182852380Y-32263095D02*
X181852380Y-32263095D01*
X181852380Y-31882142D01*
X181900000Y-31786904D01*
X181947619Y-31739285D01*
X182042857Y-31691666D01*
X182185714Y-31691666D01*
X182280952Y-31739285D01*
X182328571Y-31786904D01*
X182376190Y-31882142D01*
X182376190Y-32263095D01*
X181852380Y-31358333D02*
X181852380Y-30691666D01*
X182852380Y-31120238D01*
X193808333Y-40352380D02*
X193475000Y-39876190D01*
X193236904Y-40352380D02*
X193236904Y-39352380D01*
X193617857Y-39352380D01*
X193713095Y-39400000D01*
X193760714Y-39447619D01*
X193808333Y-39542857D01*
X193808333Y-39685714D01*
X193760714Y-39780952D01*
X193713095Y-39828571D01*
X193617857Y-39876190D01*
X193236904Y-39876190D01*
X194379761Y-39780952D02*
X194284523Y-39733333D01*
X194236904Y-39685714D01*
X194189285Y-39590476D01*
X194189285Y-39542857D01*
X194236904Y-39447619D01*
X194284523Y-39400000D01*
X194379761Y-39352380D01*
X194570238Y-39352380D01*
X194665476Y-39400000D01*
X194713095Y-39447619D01*
X194760714Y-39542857D01*
X194760714Y-39590476D01*
X194713095Y-39685714D01*
X194665476Y-39733333D01*
X194570238Y-39780952D01*
X194379761Y-39780952D01*
X194284523Y-39828571D01*
X194236904Y-39876190D01*
X194189285Y-39971428D01*
X194189285Y-40161904D01*
X194236904Y-40257142D01*
X194284523Y-40304761D01*
X194379761Y-40352380D01*
X194570238Y-40352380D01*
X194665476Y-40304761D01*
X194713095Y-40257142D01*
X194760714Y-40161904D01*
X194760714Y-39971428D01*
X194713095Y-39876190D01*
X194665476Y-39828571D01*
X194570238Y-39780952D01*
X193908333Y-49102380D02*
X193575000Y-48626190D01*
X193336904Y-49102380D02*
X193336904Y-48102380D01*
X193717857Y-48102380D01*
X193813095Y-48150000D01*
X193860714Y-48197619D01*
X193908333Y-48292857D01*
X193908333Y-48435714D01*
X193860714Y-48530952D01*
X193813095Y-48578571D01*
X193717857Y-48626190D01*
X193336904Y-48626190D01*
X194384523Y-49102380D02*
X194575000Y-49102380D01*
X194670238Y-49054761D01*
X194717857Y-49007142D01*
X194813095Y-48864285D01*
X194860714Y-48673809D01*
X194860714Y-48292857D01*
X194813095Y-48197619D01*
X194765476Y-48150000D01*
X194670238Y-48102380D01*
X194479761Y-48102380D01*
X194384523Y-48150000D01*
X194336904Y-48197619D01*
X194289285Y-48292857D01*
X194289285Y-48530952D01*
X194336904Y-48626190D01*
X194384523Y-48673809D01*
X194479761Y-48721428D01*
X194670238Y-48721428D01*
X194765476Y-48673809D01*
X194813095Y-48626190D01*
X194860714Y-48530952D01*
X193332142Y-58102380D02*
X192998809Y-57626190D01*
X192760714Y-58102380D02*
X192760714Y-57102380D01*
X193141666Y-57102380D01*
X193236904Y-57150000D01*
X193284523Y-57197619D01*
X193332142Y-57292857D01*
X193332142Y-57435714D01*
X193284523Y-57530952D01*
X193236904Y-57578571D01*
X193141666Y-57626190D01*
X192760714Y-57626190D01*
X194284523Y-58102380D02*
X193713095Y-58102380D01*
X193998809Y-58102380D02*
X193998809Y-57102380D01*
X193903571Y-57245238D01*
X193808333Y-57340476D01*
X193713095Y-57388095D01*
X194903571Y-57102380D02*
X194998809Y-57102380D01*
X195094047Y-57150000D01*
X195141666Y-57197619D01*
X195189285Y-57292857D01*
X195236904Y-57483333D01*
X195236904Y-57721428D01*
X195189285Y-57911904D01*
X195141666Y-58007142D01*
X195094047Y-58054761D01*
X194998809Y-58102380D01*
X194903571Y-58102380D01*
X194808333Y-58054761D01*
X194760714Y-58007142D01*
X194713095Y-57911904D01*
X194665476Y-57721428D01*
X194665476Y-57483333D01*
X194713095Y-57292857D01*
X194760714Y-57197619D01*
X194808333Y-57150000D01*
X194903571Y-57102380D01*
X193432142Y-66852380D02*
X193098809Y-66376190D01*
X192860714Y-66852380D02*
X192860714Y-65852380D01*
X193241666Y-65852380D01*
X193336904Y-65900000D01*
X193384523Y-65947619D01*
X193432142Y-66042857D01*
X193432142Y-66185714D01*
X193384523Y-66280952D01*
X193336904Y-66328571D01*
X193241666Y-66376190D01*
X192860714Y-66376190D01*
X194384523Y-66852380D02*
X193813095Y-66852380D01*
X194098809Y-66852380D02*
X194098809Y-65852380D01*
X194003571Y-65995238D01*
X193908333Y-66090476D01*
X193813095Y-66138095D01*
X195336904Y-66852380D02*
X194765476Y-66852380D01*
X195051190Y-66852380D02*
X195051190Y-65852380D01*
X194955952Y-65995238D01*
X194860714Y-66090476D01*
X194765476Y-66138095D01*
X193432142Y-75602380D02*
X193098809Y-75126190D01*
X192860714Y-75602380D02*
X192860714Y-74602380D01*
X193241666Y-74602380D01*
X193336904Y-74650000D01*
X193384523Y-74697619D01*
X193432142Y-74792857D01*
X193432142Y-74935714D01*
X193384523Y-75030952D01*
X193336904Y-75078571D01*
X193241666Y-75126190D01*
X192860714Y-75126190D01*
X194384523Y-75602380D02*
X193813095Y-75602380D01*
X194098809Y-75602380D02*
X194098809Y-74602380D01*
X194003571Y-74745238D01*
X193908333Y-74840476D01*
X193813095Y-74888095D01*
X194765476Y-74697619D02*
X194813095Y-74650000D01*
X194908333Y-74602380D01*
X195146428Y-74602380D01*
X195241666Y-74650000D01*
X195289285Y-74697619D01*
X195336904Y-74792857D01*
X195336904Y-74888095D01*
X195289285Y-75030952D01*
X194717857Y-75602380D01*
X195336904Y-75602380D01*
X193432142Y-84352380D02*
X193098809Y-83876190D01*
X192860714Y-84352380D02*
X192860714Y-83352380D01*
X193241666Y-83352380D01*
X193336904Y-83400000D01*
X193384523Y-83447619D01*
X193432142Y-83542857D01*
X193432142Y-83685714D01*
X193384523Y-83780952D01*
X193336904Y-83828571D01*
X193241666Y-83876190D01*
X192860714Y-83876190D01*
X194384523Y-84352380D02*
X193813095Y-84352380D01*
X194098809Y-84352380D02*
X194098809Y-83352380D01*
X194003571Y-83495238D01*
X193908333Y-83590476D01*
X193813095Y-83638095D01*
X194717857Y-83352380D02*
X195336904Y-83352380D01*
X195003571Y-83733333D01*
X195146428Y-83733333D01*
X195241666Y-83780952D01*
X195289285Y-83828571D01*
X195336904Y-83923809D01*
X195336904Y-84161904D01*
X195289285Y-84257142D01*
X195241666Y-84304761D01*
X195146428Y-84352380D01*
X194860714Y-84352380D01*
X194765476Y-84304761D01*
X194717857Y-84257142D01*
M02*
