G04 #@! TF.GenerationSoftware,KiCad,Pcbnew,(5.1.5)-3*
G04 #@! TF.CreationDate,2022-02-18T13:47:20-05:00*
G04 #@! TF.ProjectId,Motor board,4d6f746f-7220-4626-9f61-72642e6b6963,rev?*
G04 #@! TF.SameCoordinates,Original*
G04 #@! TF.FileFunction,Paste,Top*
G04 #@! TF.FilePolarity,Positive*
%FSLAX46Y46*%
G04 Gerber Fmt 4.6, Leading zero omitted, Abs format (unit mm)*
G04 Created by KiCad (PCBNEW (5.1.5)-3) date 2022-02-18 13:47:20*
%MOMM*%
%LPD*%
G04 APERTURE LIST*
%ADD10R,0.400000X1.200000*%
%ADD11R,1.825000X0.700000*%
%ADD12R,6.200000X3.900000*%
%ADD13R,4.400000X3.300000*%
%ADD14C,0.100000*%
%ADD15R,1.330000X1.330000*%
%ADD16R,2.000000X0.900000*%
%ADD17R,0.900000X2.000000*%
G04 APERTURE END LIST*
D10*
X183250000Y-83000000D03*
X181950000Y-83000000D03*
X182600000Y-84900000D03*
D11*
X162312000Y-27440000D03*
X162312000Y-28710000D03*
X162312000Y-29980000D03*
X162312000Y-31250000D03*
X162312000Y-32520000D03*
X162312000Y-33790000D03*
X162312000Y-35060000D03*
X155188000Y-35060000D03*
X155188000Y-33790000D03*
X155188000Y-32520000D03*
X155188000Y-31250000D03*
X155188000Y-29980000D03*
X155188000Y-28710000D03*
X155188000Y-27440000D03*
D12*
X200100000Y-33750000D03*
X200100000Y-20850000D03*
D13*
X209100000Y-28000000D03*
D14*
G36*
X165480142Y-28151174D02*
G01*
X165503803Y-28154684D01*
X165527007Y-28160496D01*
X165549529Y-28168554D01*
X165571153Y-28178782D01*
X165591670Y-28191079D01*
X165610883Y-28205329D01*
X165628607Y-28221393D01*
X165644671Y-28239117D01*
X165658921Y-28258330D01*
X165671218Y-28278847D01*
X165681446Y-28300471D01*
X165689504Y-28322993D01*
X165695316Y-28346197D01*
X165698826Y-28369858D01*
X165700000Y-28393750D01*
X165700000Y-28881250D01*
X165698826Y-28905142D01*
X165695316Y-28928803D01*
X165689504Y-28952007D01*
X165681446Y-28974529D01*
X165671218Y-28996153D01*
X165658921Y-29016670D01*
X165644671Y-29035883D01*
X165628607Y-29053607D01*
X165610883Y-29069671D01*
X165591670Y-29083921D01*
X165571153Y-29096218D01*
X165549529Y-29106446D01*
X165527007Y-29114504D01*
X165503803Y-29120316D01*
X165480142Y-29123826D01*
X165456250Y-29125000D01*
X164543750Y-29125000D01*
X164519858Y-29123826D01*
X164496197Y-29120316D01*
X164472993Y-29114504D01*
X164450471Y-29106446D01*
X164428847Y-29096218D01*
X164408330Y-29083921D01*
X164389117Y-29069671D01*
X164371393Y-29053607D01*
X164355329Y-29035883D01*
X164341079Y-29016670D01*
X164328782Y-28996153D01*
X164318554Y-28974529D01*
X164310496Y-28952007D01*
X164304684Y-28928803D01*
X164301174Y-28905142D01*
X164300000Y-28881250D01*
X164300000Y-28393750D01*
X164301174Y-28369858D01*
X164304684Y-28346197D01*
X164310496Y-28322993D01*
X164318554Y-28300471D01*
X164328782Y-28278847D01*
X164341079Y-28258330D01*
X164355329Y-28239117D01*
X164371393Y-28221393D01*
X164389117Y-28205329D01*
X164408330Y-28191079D01*
X164428847Y-28178782D01*
X164450471Y-28168554D01*
X164472993Y-28160496D01*
X164496197Y-28154684D01*
X164519858Y-28151174D01*
X164543750Y-28150000D01*
X165456250Y-28150000D01*
X165480142Y-28151174D01*
G37*
G36*
X165480142Y-26276174D02*
G01*
X165503803Y-26279684D01*
X165527007Y-26285496D01*
X165549529Y-26293554D01*
X165571153Y-26303782D01*
X165591670Y-26316079D01*
X165610883Y-26330329D01*
X165628607Y-26346393D01*
X165644671Y-26364117D01*
X165658921Y-26383330D01*
X165671218Y-26403847D01*
X165681446Y-26425471D01*
X165689504Y-26447993D01*
X165695316Y-26471197D01*
X165698826Y-26494858D01*
X165700000Y-26518750D01*
X165700000Y-27006250D01*
X165698826Y-27030142D01*
X165695316Y-27053803D01*
X165689504Y-27077007D01*
X165681446Y-27099529D01*
X165671218Y-27121153D01*
X165658921Y-27141670D01*
X165644671Y-27160883D01*
X165628607Y-27178607D01*
X165610883Y-27194671D01*
X165591670Y-27208921D01*
X165571153Y-27221218D01*
X165549529Y-27231446D01*
X165527007Y-27239504D01*
X165503803Y-27245316D01*
X165480142Y-27248826D01*
X165456250Y-27250000D01*
X164543750Y-27250000D01*
X164519858Y-27248826D01*
X164496197Y-27245316D01*
X164472993Y-27239504D01*
X164450471Y-27231446D01*
X164428847Y-27221218D01*
X164408330Y-27208921D01*
X164389117Y-27194671D01*
X164371393Y-27178607D01*
X164355329Y-27160883D01*
X164341079Y-27141670D01*
X164328782Y-27121153D01*
X164318554Y-27099529D01*
X164310496Y-27077007D01*
X164304684Y-27053803D01*
X164301174Y-27030142D01*
X164300000Y-27006250D01*
X164300000Y-26518750D01*
X164301174Y-26494858D01*
X164304684Y-26471197D01*
X164310496Y-26447993D01*
X164318554Y-26425471D01*
X164328782Y-26403847D01*
X164341079Y-26383330D01*
X164355329Y-26364117D01*
X164371393Y-26346393D01*
X164389117Y-26330329D01*
X164408330Y-26316079D01*
X164428847Y-26303782D01*
X164450471Y-26293554D01*
X164472993Y-26285496D01*
X164496197Y-26279684D01*
X164519858Y-26276174D01*
X164543750Y-26275000D01*
X165456250Y-26275000D01*
X165480142Y-26276174D01*
G37*
G36*
X166480142Y-39076174D02*
G01*
X166503803Y-39079684D01*
X166527007Y-39085496D01*
X166549529Y-39093554D01*
X166571153Y-39103782D01*
X166591670Y-39116079D01*
X166610883Y-39130329D01*
X166628607Y-39146393D01*
X166644671Y-39164117D01*
X166658921Y-39183330D01*
X166671218Y-39203847D01*
X166681446Y-39225471D01*
X166689504Y-39247993D01*
X166695316Y-39271197D01*
X166698826Y-39294858D01*
X166700000Y-39318750D01*
X166700000Y-39806250D01*
X166698826Y-39830142D01*
X166695316Y-39853803D01*
X166689504Y-39877007D01*
X166681446Y-39899529D01*
X166671218Y-39921153D01*
X166658921Y-39941670D01*
X166644671Y-39960883D01*
X166628607Y-39978607D01*
X166610883Y-39994671D01*
X166591670Y-40008921D01*
X166571153Y-40021218D01*
X166549529Y-40031446D01*
X166527007Y-40039504D01*
X166503803Y-40045316D01*
X166480142Y-40048826D01*
X166456250Y-40050000D01*
X165543750Y-40050000D01*
X165519858Y-40048826D01*
X165496197Y-40045316D01*
X165472993Y-40039504D01*
X165450471Y-40031446D01*
X165428847Y-40021218D01*
X165408330Y-40008921D01*
X165389117Y-39994671D01*
X165371393Y-39978607D01*
X165355329Y-39960883D01*
X165341079Y-39941670D01*
X165328782Y-39921153D01*
X165318554Y-39899529D01*
X165310496Y-39877007D01*
X165304684Y-39853803D01*
X165301174Y-39830142D01*
X165300000Y-39806250D01*
X165300000Y-39318750D01*
X165301174Y-39294858D01*
X165304684Y-39271197D01*
X165310496Y-39247993D01*
X165318554Y-39225471D01*
X165328782Y-39203847D01*
X165341079Y-39183330D01*
X165355329Y-39164117D01*
X165371393Y-39146393D01*
X165389117Y-39130329D01*
X165408330Y-39116079D01*
X165428847Y-39103782D01*
X165450471Y-39093554D01*
X165472993Y-39085496D01*
X165496197Y-39079684D01*
X165519858Y-39076174D01*
X165543750Y-39075000D01*
X166456250Y-39075000D01*
X166480142Y-39076174D01*
G37*
G36*
X166480142Y-40951174D02*
G01*
X166503803Y-40954684D01*
X166527007Y-40960496D01*
X166549529Y-40968554D01*
X166571153Y-40978782D01*
X166591670Y-40991079D01*
X166610883Y-41005329D01*
X166628607Y-41021393D01*
X166644671Y-41039117D01*
X166658921Y-41058330D01*
X166671218Y-41078847D01*
X166681446Y-41100471D01*
X166689504Y-41122993D01*
X166695316Y-41146197D01*
X166698826Y-41169858D01*
X166700000Y-41193750D01*
X166700000Y-41681250D01*
X166698826Y-41705142D01*
X166695316Y-41728803D01*
X166689504Y-41752007D01*
X166681446Y-41774529D01*
X166671218Y-41796153D01*
X166658921Y-41816670D01*
X166644671Y-41835883D01*
X166628607Y-41853607D01*
X166610883Y-41869671D01*
X166591670Y-41883921D01*
X166571153Y-41896218D01*
X166549529Y-41906446D01*
X166527007Y-41914504D01*
X166503803Y-41920316D01*
X166480142Y-41923826D01*
X166456250Y-41925000D01*
X165543750Y-41925000D01*
X165519858Y-41923826D01*
X165496197Y-41920316D01*
X165472993Y-41914504D01*
X165450471Y-41906446D01*
X165428847Y-41896218D01*
X165408330Y-41883921D01*
X165389117Y-41869671D01*
X165371393Y-41853607D01*
X165355329Y-41835883D01*
X165341079Y-41816670D01*
X165328782Y-41796153D01*
X165318554Y-41774529D01*
X165310496Y-41752007D01*
X165304684Y-41728803D01*
X165301174Y-41705142D01*
X165300000Y-41681250D01*
X165300000Y-41193750D01*
X165301174Y-41169858D01*
X165304684Y-41146197D01*
X165310496Y-41122993D01*
X165318554Y-41100471D01*
X165328782Y-41078847D01*
X165341079Y-41058330D01*
X165355329Y-41039117D01*
X165371393Y-41021393D01*
X165389117Y-41005329D01*
X165408330Y-40991079D01*
X165428847Y-40978782D01*
X165450471Y-40968554D01*
X165472993Y-40960496D01*
X165496197Y-40954684D01*
X165519858Y-40951174D01*
X165543750Y-40950000D01*
X166456250Y-40950000D01*
X166480142Y-40951174D01*
G37*
G36*
X195480142Y-42701174D02*
G01*
X195503803Y-42704684D01*
X195527007Y-42710496D01*
X195549529Y-42718554D01*
X195571153Y-42728782D01*
X195591670Y-42741079D01*
X195610883Y-42755329D01*
X195628607Y-42771393D01*
X195644671Y-42789117D01*
X195658921Y-42808330D01*
X195671218Y-42828847D01*
X195681446Y-42850471D01*
X195689504Y-42872993D01*
X195695316Y-42896197D01*
X195698826Y-42919858D01*
X195700000Y-42943750D01*
X195700000Y-43431250D01*
X195698826Y-43455142D01*
X195695316Y-43478803D01*
X195689504Y-43502007D01*
X195681446Y-43524529D01*
X195671218Y-43546153D01*
X195658921Y-43566670D01*
X195644671Y-43585883D01*
X195628607Y-43603607D01*
X195610883Y-43619671D01*
X195591670Y-43633921D01*
X195571153Y-43646218D01*
X195549529Y-43656446D01*
X195527007Y-43664504D01*
X195503803Y-43670316D01*
X195480142Y-43673826D01*
X195456250Y-43675000D01*
X194543750Y-43675000D01*
X194519858Y-43673826D01*
X194496197Y-43670316D01*
X194472993Y-43664504D01*
X194450471Y-43656446D01*
X194428847Y-43646218D01*
X194408330Y-43633921D01*
X194389117Y-43619671D01*
X194371393Y-43603607D01*
X194355329Y-43585883D01*
X194341079Y-43566670D01*
X194328782Y-43546153D01*
X194318554Y-43524529D01*
X194310496Y-43502007D01*
X194304684Y-43478803D01*
X194301174Y-43455142D01*
X194300000Y-43431250D01*
X194300000Y-42943750D01*
X194301174Y-42919858D01*
X194304684Y-42896197D01*
X194310496Y-42872993D01*
X194318554Y-42850471D01*
X194328782Y-42828847D01*
X194341079Y-42808330D01*
X194355329Y-42789117D01*
X194371393Y-42771393D01*
X194389117Y-42755329D01*
X194408330Y-42741079D01*
X194428847Y-42728782D01*
X194450471Y-42718554D01*
X194472993Y-42710496D01*
X194496197Y-42704684D01*
X194519858Y-42701174D01*
X194543750Y-42700000D01*
X195456250Y-42700000D01*
X195480142Y-42701174D01*
G37*
G36*
X195480142Y-40826174D02*
G01*
X195503803Y-40829684D01*
X195527007Y-40835496D01*
X195549529Y-40843554D01*
X195571153Y-40853782D01*
X195591670Y-40866079D01*
X195610883Y-40880329D01*
X195628607Y-40896393D01*
X195644671Y-40914117D01*
X195658921Y-40933330D01*
X195671218Y-40953847D01*
X195681446Y-40975471D01*
X195689504Y-40997993D01*
X195695316Y-41021197D01*
X195698826Y-41044858D01*
X195700000Y-41068750D01*
X195700000Y-41556250D01*
X195698826Y-41580142D01*
X195695316Y-41603803D01*
X195689504Y-41627007D01*
X195681446Y-41649529D01*
X195671218Y-41671153D01*
X195658921Y-41691670D01*
X195644671Y-41710883D01*
X195628607Y-41728607D01*
X195610883Y-41744671D01*
X195591670Y-41758921D01*
X195571153Y-41771218D01*
X195549529Y-41781446D01*
X195527007Y-41789504D01*
X195503803Y-41795316D01*
X195480142Y-41798826D01*
X195456250Y-41800000D01*
X194543750Y-41800000D01*
X194519858Y-41798826D01*
X194496197Y-41795316D01*
X194472993Y-41789504D01*
X194450471Y-41781446D01*
X194428847Y-41771218D01*
X194408330Y-41758921D01*
X194389117Y-41744671D01*
X194371393Y-41728607D01*
X194355329Y-41710883D01*
X194341079Y-41691670D01*
X194328782Y-41671153D01*
X194318554Y-41649529D01*
X194310496Y-41627007D01*
X194304684Y-41603803D01*
X194301174Y-41580142D01*
X194300000Y-41556250D01*
X194300000Y-41068750D01*
X194301174Y-41044858D01*
X194304684Y-41021197D01*
X194310496Y-40997993D01*
X194318554Y-40975471D01*
X194328782Y-40953847D01*
X194341079Y-40933330D01*
X194355329Y-40914117D01*
X194371393Y-40896393D01*
X194389117Y-40880329D01*
X194408330Y-40866079D01*
X194428847Y-40853782D01*
X194450471Y-40843554D01*
X194472993Y-40835496D01*
X194496197Y-40829684D01*
X194519858Y-40826174D01*
X194543750Y-40825000D01*
X195456250Y-40825000D01*
X195480142Y-40826174D01*
G37*
G36*
X195480142Y-49713674D02*
G01*
X195503803Y-49717184D01*
X195527007Y-49722996D01*
X195549529Y-49731054D01*
X195571153Y-49741282D01*
X195591670Y-49753579D01*
X195610883Y-49767829D01*
X195628607Y-49783893D01*
X195644671Y-49801617D01*
X195658921Y-49820830D01*
X195671218Y-49841347D01*
X195681446Y-49862971D01*
X195689504Y-49885493D01*
X195695316Y-49908697D01*
X195698826Y-49932358D01*
X195700000Y-49956250D01*
X195700000Y-50443750D01*
X195698826Y-50467642D01*
X195695316Y-50491303D01*
X195689504Y-50514507D01*
X195681446Y-50537029D01*
X195671218Y-50558653D01*
X195658921Y-50579170D01*
X195644671Y-50598383D01*
X195628607Y-50616107D01*
X195610883Y-50632171D01*
X195591670Y-50646421D01*
X195571153Y-50658718D01*
X195549529Y-50668946D01*
X195527007Y-50677004D01*
X195503803Y-50682816D01*
X195480142Y-50686326D01*
X195456250Y-50687500D01*
X194543750Y-50687500D01*
X194519858Y-50686326D01*
X194496197Y-50682816D01*
X194472993Y-50677004D01*
X194450471Y-50668946D01*
X194428847Y-50658718D01*
X194408330Y-50646421D01*
X194389117Y-50632171D01*
X194371393Y-50616107D01*
X194355329Y-50598383D01*
X194341079Y-50579170D01*
X194328782Y-50558653D01*
X194318554Y-50537029D01*
X194310496Y-50514507D01*
X194304684Y-50491303D01*
X194301174Y-50467642D01*
X194300000Y-50443750D01*
X194300000Y-49956250D01*
X194301174Y-49932358D01*
X194304684Y-49908697D01*
X194310496Y-49885493D01*
X194318554Y-49862971D01*
X194328782Y-49841347D01*
X194341079Y-49820830D01*
X194355329Y-49801617D01*
X194371393Y-49783893D01*
X194389117Y-49767829D01*
X194408330Y-49753579D01*
X194428847Y-49741282D01*
X194450471Y-49731054D01*
X194472993Y-49722996D01*
X194496197Y-49717184D01*
X194519858Y-49713674D01*
X194543750Y-49712500D01*
X195456250Y-49712500D01*
X195480142Y-49713674D01*
G37*
G36*
X195480142Y-51588674D02*
G01*
X195503803Y-51592184D01*
X195527007Y-51597996D01*
X195549529Y-51606054D01*
X195571153Y-51616282D01*
X195591670Y-51628579D01*
X195610883Y-51642829D01*
X195628607Y-51658893D01*
X195644671Y-51676617D01*
X195658921Y-51695830D01*
X195671218Y-51716347D01*
X195681446Y-51737971D01*
X195689504Y-51760493D01*
X195695316Y-51783697D01*
X195698826Y-51807358D01*
X195700000Y-51831250D01*
X195700000Y-52318750D01*
X195698826Y-52342642D01*
X195695316Y-52366303D01*
X195689504Y-52389507D01*
X195681446Y-52412029D01*
X195671218Y-52433653D01*
X195658921Y-52454170D01*
X195644671Y-52473383D01*
X195628607Y-52491107D01*
X195610883Y-52507171D01*
X195591670Y-52521421D01*
X195571153Y-52533718D01*
X195549529Y-52543946D01*
X195527007Y-52552004D01*
X195503803Y-52557816D01*
X195480142Y-52561326D01*
X195456250Y-52562500D01*
X194543750Y-52562500D01*
X194519858Y-52561326D01*
X194496197Y-52557816D01*
X194472993Y-52552004D01*
X194450471Y-52543946D01*
X194428847Y-52533718D01*
X194408330Y-52521421D01*
X194389117Y-52507171D01*
X194371393Y-52491107D01*
X194355329Y-52473383D01*
X194341079Y-52454170D01*
X194328782Y-52433653D01*
X194318554Y-52412029D01*
X194310496Y-52389507D01*
X194304684Y-52366303D01*
X194301174Y-52342642D01*
X194300000Y-52318750D01*
X194300000Y-51831250D01*
X194301174Y-51807358D01*
X194304684Y-51783697D01*
X194310496Y-51760493D01*
X194318554Y-51737971D01*
X194328782Y-51716347D01*
X194341079Y-51695830D01*
X194355329Y-51676617D01*
X194371393Y-51658893D01*
X194389117Y-51642829D01*
X194408330Y-51628579D01*
X194428847Y-51616282D01*
X194450471Y-51606054D01*
X194472993Y-51597996D01*
X194496197Y-51592184D01*
X194519858Y-51588674D01*
X194543750Y-51587500D01*
X195456250Y-51587500D01*
X195480142Y-51588674D01*
G37*
G36*
X195480142Y-60513674D02*
G01*
X195503803Y-60517184D01*
X195527007Y-60522996D01*
X195549529Y-60531054D01*
X195571153Y-60541282D01*
X195591670Y-60553579D01*
X195610883Y-60567829D01*
X195628607Y-60583893D01*
X195644671Y-60601617D01*
X195658921Y-60620830D01*
X195671218Y-60641347D01*
X195681446Y-60662971D01*
X195689504Y-60685493D01*
X195695316Y-60708697D01*
X195698826Y-60732358D01*
X195700000Y-60756250D01*
X195700000Y-61243750D01*
X195698826Y-61267642D01*
X195695316Y-61291303D01*
X195689504Y-61314507D01*
X195681446Y-61337029D01*
X195671218Y-61358653D01*
X195658921Y-61379170D01*
X195644671Y-61398383D01*
X195628607Y-61416107D01*
X195610883Y-61432171D01*
X195591670Y-61446421D01*
X195571153Y-61458718D01*
X195549529Y-61468946D01*
X195527007Y-61477004D01*
X195503803Y-61482816D01*
X195480142Y-61486326D01*
X195456250Y-61487500D01*
X194543750Y-61487500D01*
X194519858Y-61486326D01*
X194496197Y-61482816D01*
X194472993Y-61477004D01*
X194450471Y-61468946D01*
X194428847Y-61458718D01*
X194408330Y-61446421D01*
X194389117Y-61432171D01*
X194371393Y-61416107D01*
X194355329Y-61398383D01*
X194341079Y-61379170D01*
X194328782Y-61358653D01*
X194318554Y-61337029D01*
X194310496Y-61314507D01*
X194304684Y-61291303D01*
X194301174Y-61267642D01*
X194300000Y-61243750D01*
X194300000Y-60756250D01*
X194301174Y-60732358D01*
X194304684Y-60708697D01*
X194310496Y-60685493D01*
X194318554Y-60662971D01*
X194328782Y-60641347D01*
X194341079Y-60620830D01*
X194355329Y-60601617D01*
X194371393Y-60583893D01*
X194389117Y-60567829D01*
X194408330Y-60553579D01*
X194428847Y-60541282D01*
X194450471Y-60531054D01*
X194472993Y-60522996D01*
X194496197Y-60517184D01*
X194519858Y-60513674D01*
X194543750Y-60512500D01*
X195456250Y-60512500D01*
X195480142Y-60513674D01*
G37*
G36*
X195480142Y-58638674D02*
G01*
X195503803Y-58642184D01*
X195527007Y-58647996D01*
X195549529Y-58656054D01*
X195571153Y-58666282D01*
X195591670Y-58678579D01*
X195610883Y-58692829D01*
X195628607Y-58708893D01*
X195644671Y-58726617D01*
X195658921Y-58745830D01*
X195671218Y-58766347D01*
X195681446Y-58787971D01*
X195689504Y-58810493D01*
X195695316Y-58833697D01*
X195698826Y-58857358D01*
X195700000Y-58881250D01*
X195700000Y-59368750D01*
X195698826Y-59392642D01*
X195695316Y-59416303D01*
X195689504Y-59439507D01*
X195681446Y-59462029D01*
X195671218Y-59483653D01*
X195658921Y-59504170D01*
X195644671Y-59523383D01*
X195628607Y-59541107D01*
X195610883Y-59557171D01*
X195591670Y-59571421D01*
X195571153Y-59583718D01*
X195549529Y-59593946D01*
X195527007Y-59602004D01*
X195503803Y-59607816D01*
X195480142Y-59611326D01*
X195456250Y-59612500D01*
X194543750Y-59612500D01*
X194519858Y-59611326D01*
X194496197Y-59607816D01*
X194472993Y-59602004D01*
X194450471Y-59593946D01*
X194428847Y-59583718D01*
X194408330Y-59571421D01*
X194389117Y-59557171D01*
X194371393Y-59541107D01*
X194355329Y-59523383D01*
X194341079Y-59504170D01*
X194328782Y-59483653D01*
X194318554Y-59462029D01*
X194310496Y-59439507D01*
X194304684Y-59416303D01*
X194301174Y-59392642D01*
X194300000Y-59368750D01*
X194300000Y-58881250D01*
X194301174Y-58857358D01*
X194304684Y-58833697D01*
X194310496Y-58810493D01*
X194318554Y-58787971D01*
X194328782Y-58766347D01*
X194341079Y-58745830D01*
X194355329Y-58726617D01*
X194371393Y-58708893D01*
X194389117Y-58692829D01*
X194408330Y-58678579D01*
X194428847Y-58666282D01*
X194450471Y-58656054D01*
X194472993Y-58647996D01*
X194496197Y-58642184D01*
X194519858Y-58638674D01*
X194543750Y-58637500D01*
X195456250Y-58637500D01*
X195480142Y-58638674D01*
G37*
G36*
X195480142Y-67388674D02*
G01*
X195503803Y-67392184D01*
X195527007Y-67397996D01*
X195549529Y-67406054D01*
X195571153Y-67416282D01*
X195591670Y-67428579D01*
X195610883Y-67442829D01*
X195628607Y-67458893D01*
X195644671Y-67476617D01*
X195658921Y-67495830D01*
X195671218Y-67516347D01*
X195681446Y-67537971D01*
X195689504Y-67560493D01*
X195695316Y-67583697D01*
X195698826Y-67607358D01*
X195700000Y-67631250D01*
X195700000Y-68118750D01*
X195698826Y-68142642D01*
X195695316Y-68166303D01*
X195689504Y-68189507D01*
X195681446Y-68212029D01*
X195671218Y-68233653D01*
X195658921Y-68254170D01*
X195644671Y-68273383D01*
X195628607Y-68291107D01*
X195610883Y-68307171D01*
X195591670Y-68321421D01*
X195571153Y-68333718D01*
X195549529Y-68343946D01*
X195527007Y-68352004D01*
X195503803Y-68357816D01*
X195480142Y-68361326D01*
X195456250Y-68362500D01*
X194543750Y-68362500D01*
X194519858Y-68361326D01*
X194496197Y-68357816D01*
X194472993Y-68352004D01*
X194450471Y-68343946D01*
X194428847Y-68333718D01*
X194408330Y-68321421D01*
X194389117Y-68307171D01*
X194371393Y-68291107D01*
X194355329Y-68273383D01*
X194341079Y-68254170D01*
X194328782Y-68233653D01*
X194318554Y-68212029D01*
X194310496Y-68189507D01*
X194304684Y-68166303D01*
X194301174Y-68142642D01*
X194300000Y-68118750D01*
X194300000Y-67631250D01*
X194301174Y-67607358D01*
X194304684Y-67583697D01*
X194310496Y-67560493D01*
X194318554Y-67537971D01*
X194328782Y-67516347D01*
X194341079Y-67495830D01*
X194355329Y-67476617D01*
X194371393Y-67458893D01*
X194389117Y-67442829D01*
X194408330Y-67428579D01*
X194428847Y-67416282D01*
X194450471Y-67406054D01*
X194472993Y-67397996D01*
X194496197Y-67392184D01*
X194519858Y-67388674D01*
X194543750Y-67387500D01*
X195456250Y-67387500D01*
X195480142Y-67388674D01*
G37*
G36*
X195480142Y-69263674D02*
G01*
X195503803Y-69267184D01*
X195527007Y-69272996D01*
X195549529Y-69281054D01*
X195571153Y-69291282D01*
X195591670Y-69303579D01*
X195610883Y-69317829D01*
X195628607Y-69333893D01*
X195644671Y-69351617D01*
X195658921Y-69370830D01*
X195671218Y-69391347D01*
X195681446Y-69412971D01*
X195689504Y-69435493D01*
X195695316Y-69458697D01*
X195698826Y-69482358D01*
X195700000Y-69506250D01*
X195700000Y-69993750D01*
X195698826Y-70017642D01*
X195695316Y-70041303D01*
X195689504Y-70064507D01*
X195681446Y-70087029D01*
X195671218Y-70108653D01*
X195658921Y-70129170D01*
X195644671Y-70148383D01*
X195628607Y-70166107D01*
X195610883Y-70182171D01*
X195591670Y-70196421D01*
X195571153Y-70208718D01*
X195549529Y-70218946D01*
X195527007Y-70227004D01*
X195503803Y-70232816D01*
X195480142Y-70236326D01*
X195456250Y-70237500D01*
X194543750Y-70237500D01*
X194519858Y-70236326D01*
X194496197Y-70232816D01*
X194472993Y-70227004D01*
X194450471Y-70218946D01*
X194428847Y-70208718D01*
X194408330Y-70196421D01*
X194389117Y-70182171D01*
X194371393Y-70166107D01*
X194355329Y-70148383D01*
X194341079Y-70129170D01*
X194328782Y-70108653D01*
X194318554Y-70087029D01*
X194310496Y-70064507D01*
X194304684Y-70041303D01*
X194301174Y-70017642D01*
X194300000Y-69993750D01*
X194300000Y-69506250D01*
X194301174Y-69482358D01*
X194304684Y-69458697D01*
X194310496Y-69435493D01*
X194318554Y-69412971D01*
X194328782Y-69391347D01*
X194341079Y-69370830D01*
X194355329Y-69351617D01*
X194371393Y-69333893D01*
X194389117Y-69317829D01*
X194408330Y-69303579D01*
X194428847Y-69291282D01*
X194450471Y-69281054D01*
X194472993Y-69272996D01*
X194496197Y-69267184D01*
X194519858Y-69263674D01*
X194543750Y-69262500D01*
X195456250Y-69262500D01*
X195480142Y-69263674D01*
G37*
G36*
X195480142Y-78013674D02*
G01*
X195503803Y-78017184D01*
X195527007Y-78022996D01*
X195549529Y-78031054D01*
X195571153Y-78041282D01*
X195591670Y-78053579D01*
X195610883Y-78067829D01*
X195628607Y-78083893D01*
X195644671Y-78101617D01*
X195658921Y-78120830D01*
X195671218Y-78141347D01*
X195681446Y-78162971D01*
X195689504Y-78185493D01*
X195695316Y-78208697D01*
X195698826Y-78232358D01*
X195700000Y-78256250D01*
X195700000Y-78743750D01*
X195698826Y-78767642D01*
X195695316Y-78791303D01*
X195689504Y-78814507D01*
X195681446Y-78837029D01*
X195671218Y-78858653D01*
X195658921Y-78879170D01*
X195644671Y-78898383D01*
X195628607Y-78916107D01*
X195610883Y-78932171D01*
X195591670Y-78946421D01*
X195571153Y-78958718D01*
X195549529Y-78968946D01*
X195527007Y-78977004D01*
X195503803Y-78982816D01*
X195480142Y-78986326D01*
X195456250Y-78987500D01*
X194543750Y-78987500D01*
X194519858Y-78986326D01*
X194496197Y-78982816D01*
X194472993Y-78977004D01*
X194450471Y-78968946D01*
X194428847Y-78958718D01*
X194408330Y-78946421D01*
X194389117Y-78932171D01*
X194371393Y-78916107D01*
X194355329Y-78898383D01*
X194341079Y-78879170D01*
X194328782Y-78858653D01*
X194318554Y-78837029D01*
X194310496Y-78814507D01*
X194304684Y-78791303D01*
X194301174Y-78767642D01*
X194300000Y-78743750D01*
X194300000Y-78256250D01*
X194301174Y-78232358D01*
X194304684Y-78208697D01*
X194310496Y-78185493D01*
X194318554Y-78162971D01*
X194328782Y-78141347D01*
X194341079Y-78120830D01*
X194355329Y-78101617D01*
X194371393Y-78083893D01*
X194389117Y-78067829D01*
X194408330Y-78053579D01*
X194428847Y-78041282D01*
X194450471Y-78031054D01*
X194472993Y-78022996D01*
X194496197Y-78017184D01*
X194519858Y-78013674D01*
X194543750Y-78012500D01*
X195456250Y-78012500D01*
X195480142Y-78013674D01*
G37*
G36*
X195480142Y-76138674D02*
G01*
X195503803Y-76142184D01*
X195527007Y-76147996D01*
X195549529Y-76156054D01*
X195571153Y-76166282D01*
X195591670Y-76178579D01*
X195610883Y-76192829D01*
X195628607Y-76208893D01*
X195644671Y-76226617D01*
X195658921Y-76245830D01*
X195671218Y-76266347D01*
X195681446Y-76287971D01*
X195689504Y-76310493D01*
X195695316Y-76333697D01*
X195698826Y-76357358D01*
X195700000Y-76381250D01*
X195700000Y-76868750D01*
X195698826Y-76892642D01*
X195695316Y-76916303D01*
X195689504Y-76939507D01*
X195681446Y-76962029D01*
X195671218Y-76983653D01*
X195658921Y-77004170D01*
X195644671Y-77023383D01*
X195628607Y-77041107D01*
X195610883Y-77057171D01*
X195591670Y-77071421D01*
X195571153Y-77083718D01*
X195549529Y-77093946D01*
X195527007Y-77102004D01*
X195503803Y-77107816D01*
X195480142Y-77111326D01*
X195456250Y-77112500D01*
X194543750Y-77112500D01*
X194519858Y-77111326D01*
X194496197Y-77107816D01*
X194472993Y-77102004D01*
X194450471Y-77093946D01*
X194428847Y-77083718D01*
X194408330Y-77071421D01*
X194389117Y-77057171D01*
X194371393Y-77041107D01*
X194355329Y-77023383D01*
X194341079Y-77004170D01*
X194328782Y-76983653D01*
X194318554Y-76962029D01*
X194310496Y-76939507D01*
X194304684Y-76916303D01*
X194301174Y-76892642D01*
X194300000Y-76868750D01*
X194300000Y-76381250D01*
X194301174Y-76357358D01*
X194304684Y-76333697D01*
X194310496Y-76310493D01*
X194318554Y-76287971D01*
X194328782Y-76266347D01*
X194341079Y-76245830D01*
X194355329Y-76226617D01*
X194371393Y-76208893D01*
X194389117Y-76192829D01*
X194408330Y-76178579D01*
X194428847Y-76166282D01*
X194450471Y-76156054D01*
X194472993Y-76147996D01*
X194496197Y-76142184D01*
X194519858Y-76138674D01*
X194543750Y-76137500D01*
X195456250Y-76137500D01*
X195480142Y-76138674D01*
G37*
G36*
X195480142Y-84888674D02*
G01*
X195503803Y-84892184D01*
X195527007Y-84897996D01*
X195549529Y-84906054D01*
X195571153Y-84916282D01*
X195591670Y-84928579D01*
X195610883Y-84942829D01*
X195628607Y-84958893D01*
X195644671Y-84976617D01*
X195658921Y-84995830D01*
X195671218Y-85016347D01*
X195681446Y-85037971D01*
X195689504Y-85060493D01*
X195695316Y-85083697D01*
X195698826Y-85107358D01*
X195700000Y-85131250D01*
X195700000Y-85618750D01*
X195698826Y-85642642D01*
X195695316Y-85666303D01*
X195689504Y-85689507D01*
X195681446Y-85712029D01*
X195671218Y-85733653D01*
X195658921Y-85754170D01*
X195644671Y-85773383D01*
X195628607Y-85791107D01*
X195610883Y-85807171D01*
X195591670Y-85821421D01*
X195571153Y-85833718D01*
X195549529Y-85843946D01*
X195527007Y-85852004D01*
X195503803Y-85857816D01*
X195480142Y-85861326D01*
X195456250Y-85862500D01*
X194543750Y-85862500D01*
X194519858Y-85861326D01*
X194496197Y-85857816D01*
X194472993Y-85852004D01*
X194450471Y-85843946D01*
X194428847Y-85833718D01*
X194408330Y-85821421D01*
X194389117Y-85807171D01*
X194371393Y-85791107D01*
X194355329Y-85773383D01*
X194341079Y-85754170D01*
X194328782Y-85733653D01*
X194318554Y-85712029D01*
X194310496Y-85689507D01*
X194304684Y-85666303D01*
X194301174Y-85642642D01*
X194300000Y-85618750D01*
X194300000Y-85131250D01*
X194301174Y-85107358D01*
X194304684Y-85083697D01*
X194310496Y-85060493D01*
X194318554Y-85037971D01*
X194328782Y-85016347D01*
X194341079Y-84995830D01*
X194355329Y-84976617D01*
X194371393Y-84958893D01*
X194389117Y-84942829D01*
X194408330Y-84928579D01*
X194428847Y-84916282D01*
X194450471Y-84906054D01*
X194472993Y-84897996D01*
X194496197Y-84892184D01*
X194519858Y-84888674D01*
X194543750Y-84887500D01*
X195456250Y-84887500D01*
X195480142Y-84888674D01*
G37*
G36*
X195480142Y-86763674D02*
G01*
X195503803Y-86767184D01*
X195527007Y-86772996D01*
X195549529Y-86781054D01*
X195571153Y-86791282D01*
X195591670Y-86803579D01*
X195610883Y-86817829D01*
X195628607Y-86833893D01*
X195644671Y-86851617D01*
X195658921Y-86870830D01*
X195671218Y-86891347D01*
X195681446Y-86912971D01*
X195689504Y-86935493D01*
X195695316Y-86958697D01*
X195698826Y-86982358D01*
X195700000Y-87006250D01*
X195700000Y-87493750D01*
X195698826Y-87517642D01*
X195695316Y-87541303D01*
X195689504Y-87564507D01*
X195681446Y-87587029D01*
X195671218Y-87608653D01*
X195658921Y-87629170D01*
X195644671Y-87648383D01*
X195628607Y-87666107D01*
X195610883Y-87682171D01*
X195591670Y-87696421D01*
X195571153Y-87708718D01*
X195549529Y-87718946D01*
X195527007Y-87727004D01*
X195503803Y-87732816D01*
X195480142Y-87736326D01*
X195456250Y-87737500D01*
X194543750Y-87737500D01*
X194519858Y-87736326D01*
X194496197Y-87732816D01*
X194472993Y-87727004D01*
X194450471Y-87718946D01*
X194428847Y-87708718D01*
X194408330Y-87696421D01*
X194389117Y-87682171D01*
X194371393Y-87666107D01*
X194355329Y-87648383D01*
X194341079Y-87629170D01*
X194328782Y-87608653D01*
X194318554Y-87587029D01*
X194310496Y-87564507D01*
X194304684Y-87541303D01*
X194301174Y-87517642D01*
X194300000Y-87493750D01*
X194300000Y-87006250D01*
X194301174Y-86982358D01*
X194304684Y-86958697D01*
X194310496Y-86935493D01*
X194318554Y-86912971D01*
X194328782Y-86891347D01*
X194341079Y-86870830D01*
X194355329Y-86851617D01*
X194371393Y-86833893D01*
X194389117Y-86817829D01*
X194408330Y-86803579D01*
X194428847Y-86791282D01*
X194450471Y-86781054D01*
X194472993Y-86772996D01*
X194496197Y-86767184D01*
X194519858Y-86763674D01*
X194543750Y-86762500D01*
X195456250Y-86762500D01*
X195480142Y-86763674D01*
G37*
G36*
X181424505Y-27051204D02*
G01*
X181448773Y-27054804D01*
X181472572Y-27060765D01*
X181495671Y-27069030D01*
X181517850Y-27079520D01*
X181538893Y-27092132D01*
X181558599Y-27106747D01*
X181576777Y-27123223D01*
X181593253Y-27141401D01*
X181607868Y-27161107D01*
X181620480Y-27182150D01*
X181630970Y-27204329D01*
X181639235Y-27227428D01*
X181645196Y-27251227D01*
X181648796Y-27275495D01*
X181650000Y-27299999D01*
X181650000Y-28375001D01*
X181648796Y-28399505D01*
X181645196Y-28423773D01*
X181639235Y-28447572D01*
X181630970Y-28470671D01*
X181620480Y-28492850D01*
X181607868Y-28513893D01*
X181593253Y-28533599D01*
X181576777Y-28551777D01*
X181558599Y-28568253D01*
X181538893Y-28582868D01*
X181517850Y-28595480D01*
X181495671Y-28605970D01*
X181472572Y-28614235D01*
X181448773Y-28620196D01*
X181424505Y-28623796D01*
X181400001Y-28625000D01*
X180099999Y-28625000D01*
X180075495Y-28623796D01*
X180051227Y-28620196D01*
X180027428Y-28614235D01*
X180004329Y-28605970D01*
X179982150Y-28595480D01*
X179961107Y-28582868D01*
X179941401Y-28568253D01*
X179923223Y-28551777D01*
X179906747Y-28533599D01*
X179892132Y-28513893D01*
X179879520Y-28492850D01*
X179869030Y-28470671D01*
X179860765Y-28447572D01*
X179854804Y-28423773D01*
X179851204Y-28399505D01*
X179850000Y-28375001D01*
X179850000Y-27299999D01*
X179851204Y-27275495D01*
X179854804Y-27251227D01*
X179860765Y-27227428D01*
X179869030Y-27204329D01*
X179879520Y-27182150D01*
X179892132Y-27161107D01*
X179906747Y-27141401D01*
X179923223Y-27123223D01*
X179941401Y-27106747D01*
X179961107Y-27092132D01*
X179982150Y-27079520D01*
X180004329Y-27069030D01*
X180027428Y-27060765D01*
X180051227Y-27054804D01*
X180075495Y-27051204D01*
X180099999Y-27050000D01*
X181400001Y-27050000D01*
X181424505Y-27051204D01*
G37*
G36*
X181424505Y-22876204D02*
G01*
X181448773Y-22879804D01*
X181472572Y-22885765D01*
X181495671Y-22894030D01*
X181517850Y-22904520D01*
X181538893Y-22917132D01*
X181558599Y-22931747D01*
X181576777Y-22948223D01*
X181593253Y-22966401D01*
X181607868Y-22986107D01*
X181620480Y-23007150D01*
X181630970Y-23029329D01*
X181639235Y-23052428D01*
X181645196Y-23076227D01*
X181648796Y-23100495D01*
X181650000Y-23124999D01*
X181650000Y-24200001D01*
X181648796Y-24224505D01*
X181645196Y-24248773D01*
X181639235Y-24272572D01*
X181630970Y-24295671D01*
X181620480Y-24317850D01*
X181607868Y-24338893D01*
X181593253Y-24358599D01*
X181576777Y-24376777D01*
X181558599Y-24393253D01*
X181538893Y-24407868D01*
X181517850Y-24420480D01*
X181495671Y-24430970D01*
X181472572Y-24439235D01*
X181448773Y-24445196D01*
X181424505Y-24448796D01*
X181400001Y-24450000D01*
X180099999Y-24450000D01*
X180075495Y-24448796D01*
X180051227Y-24445196D01*
X180027428Y-24439235D01*
X180004329Y-24430970D01*
X179982150Y-24420480D01*
X179961107Y-24407868D01*
X179941401Y-24393253D01*
X179923223Y-24376777D01*
X179906747Y-24358599D01*
X179892132Y-24338893D01*
X179879520Y-24317850D01*
X179869030Y-24295671D01*
X179860765Y-24272572D01*
X179854804Y-24248773D01*
X179851204Y-24224505D01*
X179850000Y-24200001D01*
X179850000Y-23124999D01*
X179851204Y-23100495D01*
X179854804Y-23076227D01*
X179860765Y-23052428D01*
X179869030Y-23029329D01*
X179879520Y-23007150D01*
X179892132Y-22986107D01*
X179906747Y-22966401D01*
X179923223Y-22948223D01*
X179941401Y-22931747D01*
X179961107Y-22917132D01*
X179982150Y-22904520D01*
X180004329Y-22894030D01*
X180027428Y-22885765D01*
X180051227Y-22879804D01*
X180075495Y-22876204D01*
X180099999Y-22875000D01*
X181400001Y-22875000D01*
X181424505Y-22876204D01*
G37*
D15*
X135000000Y-37000000D03*
X135000000Y-34500000D03*
X135000000Y-32000000D03*
X132500000Y-32000000D03*
X132500000Y-34500000D03*
X132500000Y-37000000D03*
X130000000Y-37000000D03*
X130000000Y-34500000D03*
X130000000Y-32000000D03*
D16*
X142000000Y-27000000D03*
X142000000Y-28270000D03*
X142000000Y-29540000D03*
X142000000Y-30810000D03*
X142000000Y-32080000D03*
X142000000Y-33350000D03*
X142000000Y-34620000D03*
X142000000Y-35890000D03*
X142000000Y-37160000D03*
X142000000Y-38430000D03*
X142000000Y-39700000D03*
X142000000Y-40970000D03*
X142000000Y-42240000D03*
X142000000Y-43510000D03*
D17*
X139215000Y-44510000D03*
X137945000Y-44510000D03*
X136675000Y-44510000D03*
X135405000Y-44510000D03*
X134135000Y-44510000D03*
X132865000Y-44510000D03*
X131595000Y-44510000D03*
X130325000Y-44510000D03*
X129055000Y-44510000D03*
X127785000Y-44510000D03*
D16*
X125000000Y-43510000D03*
X125000000Y-42240000D03*
X125000000Y-40970000D03*
X125000000Y-39700000D03*
X125000000Y-38430000D03*
X125000000Y-37160000D03*
X125000000Y-35890000D03*
X125000000Y-34620000D03*
X125000000Y-33350000D03*
X125000000Y-32080000D03*
X125000000Y-30810000D03*
X125000000Y-29540000D03*
X125000000Y-28270000D03*
X125000000Y-27000000D03*
D10*
X173500000Y-25650000D03*
X172850000Y-23750000D03*
X174150000Y-23750000D03*
D11*
X155188000Y-39940000D03*
X155188000Y-41210000D03*
X155188000Y-42480000D03*
X155188000Y-43750000D03*
X155188000Y-45020000D03*
X155188000Y-46290000D03*
X155188000Y-47560000D03*
X162312000Y-47560000D03*
X162312000Y-46290000D03*
X162312000Y-45020000D03*
X162312000Y-43750000D03*
X162312000Y-42480000D03*
X162312000Y-41210000D03*
X162312000Y-39940000D03*
D14*
G36*
X148624505Y-46051204D02*
G01*
X148648773Y-46054804D01*
X148672572Y-46060765D01*
X148695671Y-46069030D01*
X148717850Y-46079520D01*
X148738893Y-46092132D01*
X148758599Y-46106747D01*
X148776777Y-46123223D01*
X148793253Y-46141401D01*
X148807868Y-46161107D01*
X148820480Y-46182150D01*
X148830970Y-46204329D01*
X148839235Y-46227428D01*
X148845196Y-46251227D01*
X148848796Y-46275495D01*
X148850000Y-46299999D01*
X148850000Y-47200001D01*
X148848796Y-47224505D01*
X148845196Y-47248773D01*
X148839235Y-47272572D01*
X148830970Y-47295671D01*
X148820480Y-47317850D01*
X148807868Y-47338893D01*
X148793253Y-47358599D01*
X148776777Y-47376777D01*
X148758599Y-47393253D01*
X148738893Y-47407868D01*
X148717850Y-47420480D01*
X148695671Y-47430970D01*
X148672572Y-47439235D01*
X148648773Y-47445196D01*
X148624505Y-47448796D01*
X148600001Y-47450000D01*
X147949999Y-47450000D01*
X147925495Y-47448796D01*
X147901227Y-47445196D01*
X147877428Y-47439235D01*
X147854329Y-47430970D01*
X147832150Y-47420480D01*
X147811107Y-47407868D01*
X147791401Y-47393253D01*
X147773223Y-47376777D01*
X147756747Y-47358599D01*
X147742132Y-47338893D01*
X147729520Y-47317850D01*
X147719030Y-47295671D01*
X147710765Y-47272572D01*
X147704804Y-47248773D01*
X147701204Y-47224505D01*
X147700000Y-47200001D01*
X147700000Y-46299999D01*
X147701204Y-46275495D01*
X147704804Y-46251227D01*
X147710765Y-46227428D01*
X147719030Y-46204329D01*
X147729520Y-46182150D01*
X147742132Y-46161107D01*
X147756747Y-46141401D01*
X147773223Y-46123223D01*
X147791401Y-46106747D01*
X147811107Y-46092132D01*
X147832150Y-46079520D01*
X147854329Y-46069030D01*
X147877428Y-46060765D01*
X147901227Y-46054804D01*
X147925495Y-46051204D01*
X147949999Y-46050000D01*
X148600001Y-46050000D01*
X148624505Y-46051204D01*
G37*
G36*
X146574505Y-46051204D02*
G01*
X146598773Y-46054804D01*
X146622572Y-46060765D01*
X146645671Y-46069030D01*
X146667850Y-46079520D01*
X146688893Y-46092132D01*
X146708599Y-46106747D01*
X146726777Y-46123223D01*
X146743253Y-46141401D01*
X146757868Y-46161107D01*
X146770480Y-46182150D01*
X146780970Y-46204329D01*
X146789235Y-46227428D01*
X146795196Y-46251227D01*
X146798796Y-46275495D01*
X146800000Y-46299999D01*
X146800000Y-47200001D01*
X146798796Y-47224505D01*
X146795196Y-47248773D01*
X146789235Y-47272572D01*
X146780970Y-47295671D01*
X146770480Y-47317850D01*
X146757868Y-47338893D01*
X146743253Y-47358599D01*
X146726777Y-47376777D01*
X146708599Y-47393253D01*
X146688893Y-47407868D01*
X146667850Y-47420480D01*
X146645671Y-47430970D01*
X146622572Y-47439235D01*
X146598773Y-47445196D01*
X146574505Y-47448796D01*
X146550001Y-47450000D01*
X145899999Y-47450000D01*
X145875495Y-47448796D01*
X145851227Y-47445196D01*
X145827428Y-47439235D01*
X145804329Y-47430970D01*
X145782150Y-47420480D01*
X145761107Y-47407868D01*
X145741401Y-47393253D01*
X145723223Y-47376777D01*
X145706747Y-47358599D01*
X145692132Y-47338893D01*
X145679520Y-47317850D01*
X145669030Y-47295671D01*
X145660765Y-47272572D01*
X145654804Y-47248773D01*
X145651204Y-47224505D01*
X145650000Y-47200001D01*
X145650000Y-46299999D01*
X145651204Y-46275495D01*
X145654804Y-46251227D01*
X145660765Y-46227428D01*
X145669030Y-46204329D01*
X145679520Y-46182150D01*
X145692132Y-46161107D01*
X145706747Y-46141401D01*
X145723223Y-46123223D01*
X145741401Y-46106747D01*
X145761107Y-46092132D01*
X145782150Y-46079520D01*
X145804329Y-46069030D01*
X145827428Y-46060765D01*
X145851227Y-46054804D01*
X145875495Y-46051204D01*
X145899999Y-46050000D01*
X146550001Y-46050000D01*
X146574505Y-46051204D01*
G37*
G36*
X146574505Y-43051204D02*
G01*
X146598773Y-43054804D01*
X146622572Y-43060765D01*
X146645671Y-43069030D01*
X146667850Y-43079520D01*
X146688893Y-43092132D01*
X146708599Y-43106747D01*
X146726777Y-43123223D01*
X146743253Y-43141401D01*
X146757868Y-43161107D01*
X146770480Y-43182150D01*
X146780970Y-43204329D01*
X146789235Y-43227428D01*
X146795196Y-43251227D01*
X146798796Y-43275495D01*
X146800000Y-43299999D01*
X146800000Y-44200001D01*
X146798796Y-44224505D01*
X146795196Y-44248773D01*
X146789235Y-44272572D01*
X146780970Y-44295671D01*
X146770480Y-44317850D01*
X146757868Y-44338893D01*
X146743253Y-44358599D01*
X146726777Y-44376777D01*
X146708599Y-44393253D01*
X146688893Y-44407868D01*
X146667850Y-44420480D01*
X146645671Y-44430970D01*
X146622572Y-44439235D01*
X146598773Y-44445196D01*
X146574505Y-44448796D01*
X146550001Y-44450000D01*
X145899999Y-44450000D01*
X145875495Y-44448796D01*
X145851227Y-44445196D01*
X145827428Y-44439235D01*
X145804329Y-44430970D01*
X145782150Y-44420480D01*
X145761107Y-44407868D01*
X145741401Y-44393253D01*
X145723223Y-44376777D01*
X145706747Y-44358599D01*
X145692132Y-44338893D01*
X145679520Y-44317850D01*
X145669030Y-44295671D01*
X145660765Y-44272572D01*
X145654804Y-44248773D01*
X145651204Y-44224505D01*
X145650000Y-44200001D01*
X145650000Y-43299999D01*
X145651204Y-43275495D01*
X145654804Y-43251227D01*
X145660765Y-43227428D01*
X145669030Y-43204329D01*
X145679520Y-43182150D01*
X145692132Y-43161107D01*
X145706747Y-43141401D01*
X145723223Y-43123223D01*
X145741401Y-43106747D01*
X145761107Y-43092132D01*
X145782150Y-43079520D01*
X145804329Y-43069030D01*
X145827428Y-43060765D01*
X145851227Y-43054804D01*
X145875495Y-43051204D01*
X145899999Y-43050000D01*
X146550001Y-43050000D01*
X146574505Y-43051204D01*
G37*
G36*
X148624505Y-43051204D02*
G01*
X148648773Y-43054804D01*
X148672572Y-43060765D01*
X148695671Y-43069030D01*
X148717850Y-43079520D01*
X148738893Y-43092132D01*
X148758599Y-43106747D01*
X148776777Y-43123223D01*
X148793253Y-43141401D01*
X148807868Y-43161107D01*
X148820480Y-43182150D01*
X148830970Y-43204329D01*
X148839235Y-43227428D01*
X148845196Y-43251227D01*
X148848796Y-43275495D01*
X148850000Y-43299999D01*
X148850000Y-44200001D01*
X148848796Y-44224505D01*
X148845196Y-44248773D01*
X148839235Y-44272572D01*
X148830970Y-44295671D01*
X148820480Y-44317850D01*
X148807868Y-44338893D01*
X148793253Y-44358599D01*
X148776777Y-44376777D01*
X148758599Y-44393253D01*
X148738893Y-44407868D01*
X148717850Y-44420480D01*
X148695671Y-44430970D01*
X148672572Y-44439235D01*
X148648773Y-44445196D01*
X148624505Y-44448796D01*
X148600001Y-44450000D01*
X147949999Y-44450000D01*
X147925495Y-44448796D01*
X147901227Y-44445196D01*
X147877428Y-44439235D01*
X147854329Y-44430970D01*
X147832150Y-44420480D01*
X147811107Y-44407868D01*
X147791401Y-44393253D01*
X147773223Y-44376777D01*
X147756747Y-44358599D01*
X147742132Y-44338893D01*
X147729520Y-44317850D01*
X147719030Y-44295671D01*
X147710765Y-44272572D01*
X147704804Y-44248773D01*
X147701204Y-44224505D01*
X147700000Y-44200001D01*
X147700000Y-43299999D01*
X147701204Y-43275495D01*
X147704804Y-43251227D01*
X147710765Y-43227428D01*
X147719030Y-43204329D01*
X147729520Y-43182150D01*
X147742132Y-43161107D01*
X147756747Y-43141401D01*
X147773223Y-43123223D01*
X147791401Y-43106747D01*
X147811107Y-43092132D01*
X147832150Y-43079520D01*
X147854329Y-43069030D01*
X147877428Y-43060765D01*
X147901227Y-43054804D01*
X147925495Y-43051204D01*
X147949999Y-43050000D01*
X148600001Y-43050000D01*
X148624505Y-43051204D01*
G37*
G36*
X148599505Y-40051204D02*
G01*
X148623773Y-40054804D01*
X148647572Y-40060765D01*
X148670671Y-40069030D01*
X148692850Y-40079520D01*
X148713893Y-40092132D01*
X148733599Y-40106747D01*
X148751777Y-40123223D01*
X148768253Y-40141401D01*
X148782868Y-40161107D01*
X148795480Y-40182150D01*
X148805970Y-40204329D01*
X148814235Y-40227428D01*
X148820196Y-40251227D01*
X148823796Y-40275495D01*
X148825000Y-40299999D01*
X148825000Y-41200001D01*
X148823796Y-41224505D01*
X148820196Y-41248773D01*
X148814235Y-41272572D01*
X148805970Y-41295671D01*
X148795480Y-41317850D01*
X148782868Y-41338893D01*
X148768253Y-41358599D01*
X148751777Y-41376777D01*
X148733599Y-41393253D01*
X148713893Y-41407868D01*
X148692850Y-41420480D01*
X148670671Y-41430970D01*
X148647572Y-41439235D01*
X148623773Y-41445196D01*
X148599505Y-41448796D01*
X148575001Y-41450000D01*
X147924999Y-41450000D01*
X147900495Y-41448796D01*
X147876227Y-41445196D01*
X147852428Y-41439235D01*
X147829329Y-41430970D01*
X147807150Y-41420480D01*
X147786107Y-41407868D01*
X147766401Y-41393253D01*
X147748223Y-41376777D01*
X147731747Y-41358599D01*
X147717132Y-41338893D01*
X147704520Y-41317850D01*
X147694030Y-41295671D01*
X147685765Y-41272572D01*
X147679804Y-41248773D01*
X147676204Y-41224505D01*
X147675000Y-41200001D01*
X147675000Y-40299999D01*
X147676204Y-40275495D01*
X147679804Y-40251227D01*
X147685765Y-40227428D01*
X147694030Y-40204329D01*
X147704520Y-40182150D01*
X147717132Y-40161107D01*
X147731747Y-40141401D01*
X147748223Y-40123223D01*
X147766401Y-40106747D01*
X147786107Y-40092132D01*
X147807150Y-40079520D01*
X147829329Y-40069030D01*
X147852428Y-40060765D01*
X147876227Y-40054804D01*
X147900495Y-40051204D01*
X147924999Y-40050000D01*
X148575001Y-40050000D01*
X148599505Y-40051204D01*
G37*
G36*
X146549505Y-40051204D02*
G01*
X146573773Y-40054804D01*
X146597572Y-40060765D01*
X146620671Y-40069030D01*
X146642850Y-40079520D01*
X146663893Y-40092132D01*
X146683599Y-40106747D01*
X146701777Y-40123223D01*
X146718253Y-40141401D01*
X146732868Y-40161107D01*
X146745480Y-40182150D01*
X146755970Y-40204329D01*
X146764235Y-40227428D01*
X146770196Y-40251227D01*
X146773796Y-40275495D01*
X146775000Y-40299999D01*
X146775000Y-41200001D01*
X146773796Y-41224505D01*
X146770196Y-41248773D01*
X146764235Y-41272572D01*
X146755970Y-41295671D01*
X146745480Y-41317850D01*
X146732868Y-41338893D01*
X146718253Y-41358599D01*
X146701777Y-41376777D01*
X146683599Y-41393253D01*
X146663893Y-41407868D01*
X146642850Y-41420480D01*
X146620671Y-41430970D01*
X146597572Y-41439235D01*
X146573773Y-41445196D01*
X146549505Y-41448796D01*
X146525001Y-41450000D01*
X145874999Y-41450000D01*
X145850495Y-41448796D01*
X145826227Y-41445196D01*
X145802428Y-41439235D01*
X145779329Y-41430970D01*
X145757150Y-41420480D01*
X145736107Y-41407868D01*
X145716401Y-41393253D01*
X145698223Y-41376777D01*
X145681747Y-41358599D01*
X145667132Y-41338893D01*
X145654520Y-41317850D01*
X145644030Y-41295671D01*
X145635765Y-41272572D01*
X145629804Y-41248773D01*
X145626204Y-41224505D01*
X145625000Y-41200001D01*
X145625000Y-40299999D01*
X145626204Y-40275495D01*
X145629804Y-40251227D01*
X145635765Y-40227428D01*
X145644030Y-40204329D01*
X145654520Y-40182150D01*
X145667132Y-40161107D01*
X145681747Y-40141401D01*
X145698223Y-40123223D01*
X145716401Y-40106747D01*
X145736107Y-40092132D01*
X145757150Y-40079520D01*
X145779329Y-40069030D01*
X145802428Y-40060765D01*
X145826227Y-40054804D01*
X145850495Y-40051204D01*
X145874999Y-40050000D01*
X146525001Y-40050000D01*
X146549505Y-40051204D01*
G37*
G36*
X146549505Y-37051204D02*
G01*
X146573773Y-37054804D01*
X146597572Y-37060765D01*
X146620671Y-37069030D01*
X146642850Y-37079520D01*
X146663893Y-37092132D01*
X146683599Y-37106747D01*
X146701777Y-37123223D01*
X146718253Y-37141401D01*
X146732868Y-37161107D01*
X146745480Y-37182150D01*
X146755970Y-37204329D01*
X146764235Y-37227428D01*
X146770196Y-37251227D01*
X146773796Y-37275495D01*
X146775000Y-37299999D01*
X146775000Y-38200001D01*
X146773796Y-38224505D01*
X146770196Y-38248773D01*
X146764235Y-38272572D01*
X146755970Y-38295671D01*
X146745480Y-38317850D01*
X146732868Y-38338893D01*
X146718253Y-38358599D01*
X146701777Y-38376777D01*
X146683599Y-38393253D01*
X146663893Y-38407868D01*
X146642850Y-38420480D01*
X146620671Y-38430970D01*
X146597572Y-38439235D01*
X146573773Y-38445196D01*
X146549505Y-38448796D01*
X146525001Y-38450000D01*
X145874999Y-38450000D01*
X145850495Y-38448796D01*
X145826227Y-38445196D01*
X145802428Y-38439235D01*
X145779329Y-38430970D01*
X145757150Y-38420480D01*
X145736107Y-38407868D01*
X145716401Y-38393253D01*
X145698223Y-38376777D01*
X145681747Y-38358599D01*
X145667132Y-38338893D01*
X145654520Y-38317850D01*
X145644030Y-38295671D01*
X145635765Y-38272572D01*
X145629804Y-38248773D01*
X145626204Y-38224505D01*
X145625000Y-38200001D01*
X145625000Y-37299999D01*
X145626204Y-37275495D01*
X145629804Y-37251227D01*
X145635765Y-37227428D01*
X145644030Y-37204329D01*
X145654520Y-37182150D01*
X145667132Y-37161107D01*
X145681747Y-37141401D01*
X145698223Y-37123223D01*
X145716401Y-37106747D01*
X145736107Y-37092132D01*
X145757150Y-37079520D01*
X145779329Y-37069030D01*
X145802428Y-37060765D01*
X145826227Y-37054804D01*
X145850495Y-37051204D01*
X145874999Y-37050000D01*
X146525001Y-37050000D01*
X146549505Y-37051204D01*
G37*
G36*
X148599505Y-37051204D02*
G01*
X148623773Y-37054804D01*
X148647572Y-37060765D01*
X148670671Y-37069030D01*
X148692850Y-37079520D01*
X148713893Y-37092132D01*
X148733599Y-37106747D01*
X148751777Y-37123223D01*
X148768253Y-37141401D01*
X148782868Y-37161107D01*
X148795480Y-37182150D01*
X148805970Y-37204329D01*
X148814235Y-37227428D01*
X148820196Y-37251227D01*
X148823796Y-37275495D01*
X148825000Y-37299999D01*
X148825000Y-38200001D01*
X148823796Y-38224505D01*
X148820196Y-38248773D01*
X148814235Y-38272572D01*
X148805970Y-38295671D01*
X148795480Y-38317850D01*
X148782868Y-38338893D01*
X148768253Y-38358599D01*
X148751777Y-38376777D01*
X148733599Y-38393253D01*
X148713893Y-38407868D01*
X148692850Y-38420480D01*
X148670671Y-38430970D01*
X148647572Y-38439235D01*
X148623773Y-38445196D01*
X148599505Y-38448796D01*
X148575001Y-38450000D01*
X147924999Y-38450000D01*
X147900495Y-38448796D01*
X147876227Y-38445196D01*
X147852428Y-38439235D01*
X147829329Y-38430970D01*
X147807150Y-38420480D01*
X147786107Y-38407868D01*
X147766401Y-38393253D01*
X147748223Y-38376777D01*
X147731747Y-38358599D01*
X147717132Y-38338893D01*
X147704520Y-38317850D01*
X147694030Y-38295671D01*
X147685765Y-38272572D01*
X147679804Y-38248773D01*
X147676204Y-38224505D01*
X147675000Y-38200001D01*
X147675000Y-37299999D01*
X147676204Y-37275495D01*
X147679804Y-37251227D01*
X147685765Y-37227428D01*
X147694030Y-37204329D01*
X147704520Y-37182150D01*
X147717132Y-37161107D01*
X147731747Y-37141401D01*
X147748223Y-37123223D01*
X147766401Y-37106747D01*
X147786107Y-37092132D01*
X147807150Y-37079520D01*
X147829329Y-37069030D01*
X147852428Y-37060765D01*
X147876227Y-37054804D01*
X147900495Y-37051204D01*
X147924999Y-37050000D01*
X148575001Y-37050000D01*
X148599505Y-37051204D01*
G37*
G36*
X148599505Y-34051204D02*
G01*
X148623773Y-34054804D01*
X148647572Y-34060765D01*
X148670671Y-34069030D01*
X148692850Y-34079520D01*
X148713893Y-34092132D01*
X148733599Y-34106747D01*
X148751777Y-34123223D01*
X148768253Y-34141401D01*
X148782868Y-34161107D01*
X148795480Y-34182150D01*
X148805970Y-34204329D01*
X148814235Y-34227428D01*
X148820196Y-34251227D01*
X148823796Y-34275495D01*
X148825000Y-34299999D01*
X148825000Y-35200001D01*
X148823796Y-35224505D01*
X148820196Y-35248773D01*
X148814235Y-35272572D01*
X148805970Y-35295671D01*
X148795480Y-35317850D01*
X148782868Y-35338893D01*
X148768253Y-35358599D01*
X148751777Y-35376777D01*
X148733599Y-35393253D01*
X148713893Y-35407868D01*
X148692850Y-35420480D01*
X148670671Y-35430970D01*
X148647572Y-35439235D01*
X148623773Y-35445196D01*
X148599505Y-35448796D01*
X148575001Y-35450000D01*
X147924999Y-35450000D01*
X147900495Y-35448796D01*
X147876227Y-35445196D01*
X147852428Y-35439235D01*
X147829329Y-35430970D01*
X147807150Y-35420480D01*
X147786107Y-35407868D01*
X147766401Y-35393253D01*
X147748223Y-35376777D01*
X147731747Y-35358599D01*
X147717132Y-35338893D01*
X147704520Y-35317850D01*
X147694030Y-35295671D01*
X147685765Y-35272572D01*
X147679804Y-35248773D01*
X147676204Y-35224505D01*
X147675000Y-35200001D01*
X147675000Y-34299999D01*
X147676204Y-34275495D01*
X147679804Y-34251227D01*
X147685765Y-34227428D01*
X147694030Y-34204329D01*
X147704520Y-34182150D01*
X147717132Y-34161107D01*
X147731747Y-34141401D01*
X147748223Y-34123223D01*
X147766401Y-34106747D01*
X147786107Y-34092132D01*
X147807150Y-34079520D01*
X147829329Y-34069030D01*
X147852428Y-34060765D01*
X147876227Y-34054804D01*
X147900495Y-34051204D01*
X147924999Y-34050000D01*
X148575001Y-34050000D01*
X148599505Y-34051204D01*
G37*
G36*
X146549505Y-34051204D02*
G01*
X146573773Y-34054804D01*
X146597572Y-34060765D01*
X146620671Y-34069030D01*
X146642850Y-34079520D01*
X146663893Y-34092132D01*
X146683599Y-34106747D01*
X146701777Y-34123223D01*
X146718253Y-34141401D01*
X146732868Y-34161107D01*
X146745480Y-34182150D01*
X146755970Y-34204329D01*
X146764235Y-34227428D01*
X146770196Y-34251227D01*
X146773796Y-34275495D01*
X146775000Y-34299999D01*
X146775000Y-35200001D01*
X146773796Y-35224505D01*
X146770196Y-35248773D01*
X146764235Y-35272572D01*
X146755970Y-35295671D01*
X146745480Y-35317850D01*
X146732868Y-35338893D01*
X146718253Y-35358599D01*
X146701777Y-35376777D01*
X146683599Y-35393253D01*
X146663893Y-35407868D01*
X146642850Y-35420480D01*
X146620671Y-35430970D01*
X146597572Y-35439235D01*
X146573773Y-35445196D01*
X146549505Y-35448796D01*
X146525001Y-35450000D01*
X145874999Y-35450000D01*
X145850495Y-35448796D01*
X145826227Y-35445196D01*
X145802428Y-35439235D01*
X145779329Y-35430970D01*
X145757150Y-35420480D01*
X145736107Y-35407868D01*
X145716401Y-35393253D01*
X145698223Y-35376777D01*
X145681747Y-35358599D01*
X145667132Y-35338893D01*
X145654520Y-35317850D01*
X145644030Y-35295671D01*
X145635765Y-35272572D01*
X145629804Y-35248773D01*
X145626204Y-35224505D01*
X145625000Y-35200001D01*
X145625000Y-34299999D01*
X145626204Y-34275495D01*
X145629804Y-34251227D01*
X145635765Y-34227428D01*
X145644030Y-34204329D01*
X145654520Y-34182150D01*
X145667132Y-34161107D01*
X145681747Y-34141401D01*
X145698223Y-34123223D01*
X145716401Y-34106747D01*
X145736107Y-34092132D01*
X145757150Y-34079520D01*
X145779329Y-34069030D01*
X145802428Y-34060765D01*
X145826227Y-34054804D01*
X145850495Y-34051204D01*
X145874999Y-34050000D01*
X146525001Y-34050000D01*
X146549505Y-34051204D01*
G37*
G36*
X146549505Y-31051204D02*
G01*
X146573773Y-31054804D01*
X146597572Y-31060765D01*
X146620671Y-31069030D01*
X146642850Y-31079520D01*
X146663893Y-31092132D01*
X146683599Y-31106747D01*
X146701777Y-31123223D01*
X146718253Y-31141401D01*
X146732868Y-31161107D01*
X146745480Y-31182150D01*
X146755970Y-31204329D01*
X146764235Y-31227428D01*
X146770196Y-31251227D01*
X146773796Y-31275495D01*
X146775000Y-31299999D01*
X146775000Y-32200001D01*
X146773796Y-32224505D01*
X146770196Y-32248773D01*
X146764235Y-32272572D01*
X146755970Y-32295671D01*
X146745480Y-32317850D01*
X146732868Y-32338893D01*
X146718253Y-32358599D01*
X146701777Y-32376777D01*
X146683599Y-32393253D01*
X146663893Y-32407868D01*
X146642850Y-32420480D01*
X146620671Y-32430970D01*
X146597572Y-32439235D01*
X146573773Y-32445196D01*
X146549505Y-32448796D01*
X146525001Y-32450000D01*
X145874999Y-32450000D01*
X145850495Y-32448796D01*
X145826227Y-32445196D01*
X145802428Y-32439235D01*
X145779329Y-32430970D01*
X145757150Y-32420480D01*
X145736107Y-32407868D01*
X145716401Y-32393253D01*
X145698223Y-32376777D01*
X145681747Y-32358599D01*
X145667132Y-32338893D01*
X145654520Y-32317850D01*
X145644030Y-32295671D01*
X145635765Y-32272572D01*
X145629804Y-32248773D01*
X145626204Y-32224505D01*
X145625000Y-32200001D01*
X145625000Y-31299999D01*
X145626204Y-31275495D01*
X145629804Y-31251227D01*
X145635765Y-31227428D01*
X145644030Y-31204329D01*
X145654520Y-31182150D01*
X145667132Y-31161107D01*
X145681747Y-31141401D01*
X145698223Y-31123223D01*
X145716401Y-31106747D01*
X145736107Y-31092132D01*
X145757150Y-31079520D01*
X145779329Y-31069030D01*
X145802428Y-31060765D01*
X145826227Y-31054804D01*
X145850495Y-31051204D01*
X145874999Y-31050000D01*
X146525001Y-31050000D01*
X146549505Y-31051204D01*
G37*
G36*
X148599505Y-31051204D02*
G01*
X148623773Y-31054804D01*
X148647572Y-31060765D01*
X148670671Y-31069030D01*
X148692850Y-31079520D01*
X148713893Y-31092132D01*
X148733599Y-31106747D01*
X148751777Y-31123223D01*
X148768253Y-31141401D01*
X148782868Y-31161107D01*
X148795480Y-31182150D01*
X148805970Y-31204329D01*
X148814235Y-31227428D01*
X148820196Y-31251227D01*
X148823796Y-31275495D01*
X148825000Y-31299999D01*
X148825000Y-32200001D01*
X148823796Y-32224505D01*
X148820196Y-32248773D01*
X148814235Y-32272572D01*
X148805970Y-32295671D01*
X148795480Y-32317850D01*
X148782868Y-32338893D01*
X148768253Y-32358599D01*
X148751777Y-32376777D01*
X148733599Y-32393253D01*
X148713893Y-32407868D01*
X148692850Y-32420480D01*
X148670671Y-32430970D01*
X148647572Y-32439235D01*
X148623773Y-32445196D01*
X148599505Y-32448796D01*
X148575001Y-32450000D01*
X147924999Y-32450000D01*
X147900495Y-32448796D01*
X147876227Y-32445196D01*
X147852428Y-32439235D01*
X147829329Y-32430970D01*
X147807150Y-32420480D01*
X147786107Y-32407868D01*
X147766401Y-32393253D01*
X147748223Y-32376777D01*
X147731747Y-32358599D01*
X147717132Y-32338893D01*
X147704520Y-32317850D01*
X147694030Y-32295671D01*
X147685765Y-32272572D01*
X147679804Y-32248773D01*
X147676204Y-32224505D01*
X147675000Y-32200001D01*
X147675000Y-31299999D01*
X147676204Y-31275495D01*
X147679804Y-31251227D01*
X147685765Y-31227428D01*
X147694030Y-31204329D01*
X147704520Y-31182150D01*
X147717132Y-31161107D01*
X147731747Y-31141401D01*
X147748223Y-31123223D01*
X147766401Y-31106747D01*
X147786107Y-31092132D01*
X147807150Y-31079520D01*
X147829329Y-31069030D01*
X147852428Y-31060765D01*
X147876227Y-31054804D01*
X147900495Y-31051204D01*
X147924999Y-31050000D01*
X148575001Y-31050000D01*
X148599505Y-31051204D01*
G37*
G36*
X181224505Y-29926204D02*
G01*
X181248773Y-29929804D01*
X181272572Y-29935765D01*
X181295671Y-29944030D01*
X181317850Y-29954520D01*
X181338893Y-29967132D01*
X181358599Y-29981747D01*
X181376777Y-29998223D01*
X181393253Y-30016401D01*
X181407868Y-30036107D01*
X181420480Y-30057150D01*
X181430970Y-30079329D01*
X181439235Y-30102428D01*
X181445196Y-30126227D01*
X181448796Y-30150495D01*
X181450000Y-30174999D01*
X181450000Y-30825001D01*
X181448796Y-30849505D01*
X181445196Y-30873773D01*
X181439235Y-30897572D01*
X181430970Y-30920671D01*
X181420480Y-30942850D01*
X181407868Y-30963893D01*
X181393253Y-30983599D01*
X181376777Y-31001777D01*
X181358599Y-31018253D01*
X181338893Y-31032868D01*
X181317850Y-31045480D01*
X181295671Y-31055970D01*
X181272572Y-31064235D01*
X181248773Y-31070196D01*
X181224505Y-31073796D01*
X181200001Y-31075000D01*
X180299999Y-31075000D01*
X180275495Y-31073796D01*
X180251227Y-31070196D01*
X180227428Y-31064235D01*
X180204329Y-31055970D01*
X180182150Y-31045480D01*
X180161107Y-31032868D01*
X180141401Y-31018253D01*
X180123223Y-31001777D01*
X180106747Y-30983599D01*
X180092132Y-30963893D01*
X180079520Y-30942850D01*
X180069030Y-30920671D01*
X180060765Y-30897572D01*
X180054804Y-30873773D01*
X180051204Y-30849505D01*
X180050000Y-30825001D01*
X180050000Y-30174999D01*
X180051204Y-30150495D01*
X180054804Y-30126227D01*
X180060765Y-30102428D01*
X180069030Y-30079329D01*
X180079520Y-30057150D01*
X180092132Y-30036107D01*
X180106747Y-30016401D01*
X180123223Y-29998223D01*
X180141401Y-29981747D01*
X180161107Y-29967132D01*
X180182150Y-29954520D01*
X180204329Y-29944030D01*
X180227428Y-29935765D01*
X180251227Y-29929804D01*
X180275495Y-29926204D01*
X180299999Y-29925000D01*
X181200001Y-29925000D01*
X181224505Y-29926204D01*
G37*
G36*
X181224505Y-31976204D02*
G01*
X181248773Y-31979804D01*
X181272572Y-31985765D01*
X181295671Y-31994030D01*
X181317850Y-32004520D01*
X181338893Y-32017132D01*
X181358599Y-32031747D01*
X181376777Y-32048223D01*
X181393253Y-32066401D01*
X181407868Y-32086107D01*
X181420480Y-32107150D01*
X181430970Y-32129329D01*
X181439235Y-32152428D01*
X181445196Y-32176227D01*
X181448796Y-32200495D01*
X181450000Y-32224999D01*
X181450000Y-32875001D01*
X181448796Y-32899505D01*
X181445196Y-32923773D01*
X181439235Y-32947572D01*
X181430970Y-32970671D01*
X181420480Y-32992850D01*
X181407868Y-33013893D01*
X181393253Y-33033599D01*
X181376777Y-33051777D01*
X181358599Y-33068253D01*
X181338893Y-33082868D01*
X181317850Y-33095480D01*
X181295671Y-33105970D01*
X181272572Y-33114235D01*
X181248773Y-33120196D01*
X181224505Y-33123796D01*
X181200001Y-33125000D01*
X180299999Y-33125000D01*
X180275495Y-33123796D01*
X180251227Y-33120196D01*
X180227428Y-33114235D01*
X180204329Y-33105970D01*
X180182150Y-33095480D01*
X180161107Y-33082868D01*
X180141401Y-33068253D01*
X180123223Y-33051777D01*
X180106747Y-33033599D01*
X180092132Y-33013893D01*
X180079520Y-32992850D01*
X180069030Y-32970671D01*
X180060765Y-32947572D01*
X180054804Y-32923773D01*
X180051204Y-32899505D01*
X180050000Y-32875001D01*
X180050000Y-32224999D01*
X180051204Y-32200495D01*
X180054804Y-32176227D01*
X180060765Y-32152428D01*
X180069030Y-32129329D01*
X180079520Y-32107150D01*
X180092132Y-32086107D01*
X180106747Y-32066401D01*
X180123223Y-32048223D01*
X180141401Y-32031747D01*
X180161107Y-32017132D01*
X180182150Y-32004520D01*
X180204329Y-31994030D01*
X180227428Y-31985765D01*
X180251227Y-31979804D01*
X180275495Y-31976204D01*
X180299999Y-31975000D01*
X181200001Y-31975000D01*
X181224505Y-31976204D01*
G37*
G36*
X193299505Y-37551204D02*
G01*
X193323773Y-37554804D01*
X193347572Y-37560765D01*
X193370671Y-37569030D01*
X193392850Y-37579520D01*
X193413893Y-37592132D01*
X193433599Y-37606747D01*
X193451777Y-37623223D01*
X193468253Y-37641401D01*
X193482868Y-37661107D01*
X193495480Y-37682150D01*
X193505970Y-37704329D01*
X193514235Y-37727428D01*
X193520196Y-37751227D01*
X193523796Y-37775495D01*
X193525000Y-37799999D01*
X193525000Y-38700001D01*
X193523796Y-38724505D01*
X193520196Y-38748773D01*
X193514235Y-38772572D01*
X193505970Y-38795671D01*
X193495480Y-38817850D01*
X193482868Y-38838893D01*
X193468253Y-38858599D01*
X193451777Y-38876777D01*
X193433599Y-38893253D01*
X193413893Y-38907868D01*
X193392850Y-38920480D01*
X193370671Y-38930970D01*
X193347572Y-38939235D01*
X193323773Y-38945196D01*
X193299505Y-38948796D01*
X193275001Y-38950000D01*
X192624999Y-38950000D01*
X192600495Y-38948796D01*
X192576227Y-38945196D01*
X192552428Y-38939235D01*
X192529329Y-38930970D01*
X192507150Y-38920480D01*
X192486107Y-38907868D01*
X192466401Y-38893253D01*
X192448223Y-38876777D01*
X192431747Y-38858599D01*
X192417132Y-38838893D01*
X192404520Y-38817850D01*
X192394030Y-38795671D01*
X192385765Y-38772572D01*
X192379804Y-38748773D01*
X192376204Y-38724505D01*
X192375000Y-38700001D01*
X192375000Y-37799999D01*
X192376204Y-37775495D01*
X192379804Y-37751227D01*
X192385765Y-37727428D01*
X192394030Y-37704329D01*
X192404520Y-37682150D01*
X192417132Y-37661107D01*
X192431747Y-37641401D01*
X192448223Y-37623223D01*
X192466401Y-37606747D01*
X192486107Y-37592132D01*
X192507150Y-37579520D01*
X192529329Y-37569030D01*
X192552428Y-37560765D01*
X192576227Y-37554804D01*
X192600495Y-37551204D01*
X192624999Y-37550000D01*
X193275001Y-37550000D01*
X193299505Y-37551204D01*
G37*
G36*
X195349505Y-37551204D02*
G01*
X195373773Y-37554804D01*
X195397572Y-37560765D01*
X195420671Y-37569030D01*
X195442850Y-37579520D01*
X195463893Y-37592132D01*
X195483599Y-37606747D01*
X195501777Y-37623223D01*
X195518253Y-37641401D01*
X195532868Y-37661107D01*
X195545480Y-37682150D01*
X195555970Y-37704329D01*
X195564235Y-37727428D01*
X195570196Y-37751227D01*
X195573796Y-37775495D01*
X195575000Y-37799999D01*
X195575000Y-38700001D01*
X195573796Y-38724505D01*
X195570196Y-38748773D01*
X195564235Y-38772572D01*
X195555970Y-38795671D01*
X195545480Y-38817850D01*
X195532868Y-38838893D01*
X195518253Y-38858599D01*
X195501777Y-38876777D01*
X195483599Y-38893253D01*
X195463893Y-38907868D01*
X195442850Y-38920480D01*
X195420671Y-38930970D01*
X195397572Y-38939235D01*
X195373773Y-38945196D01*
X195349505Y-38948796D01*
X195325001Y-38950000D01*
X194674999Y-38950000D01*
X194650495Y-38948796D01*
X194626227Y-38945196D01*
X194602428Y-38939235D01*
X194579329Y-38930970D01*
X194557150Y-38920480D01*
X194536107Y-38907868D01*
X194516401Y-38893253D01*
X194498223Y-38876777D01*
X194481747Y-38858599D01*
X194467132Y-38838893D01*
X194454520Y-38817850D01*
X194444030Y-38795671D01*
X194435765Y-38772572D01*
X194429804Y-38748773D01*
X194426204Y-38724505D01*
X194425000Y-38700001D01*
X194425000Y-37799999D01*
X194426204Y-37775495D01*
X194429804Y-37751227D01*
X194435765Y-37727428D01*
X194444030Y-37704329D01*
X194454520Y-37682150D01*
X194467132Y-37661107D01*
X194481747Y-37641401D01*
X194498223Y-37623223D01*
X194516401Y-37606747D01*
X194536107Y-37592132D01*
X194557150Y-37579520D01*
X194579329Y-37569030D01*
X194602428Y-37560765D01*
X194626227Y-37554804D01*
X194650495Y-37551204D01*
X194674999Y-37550000D01*
X195325001Y-37550000D01*
X195349505Y-37551204D01*
G37*
G36*
X195449505Y-46301204D02*
G01*
X195473773Y-46304804D01*
X195497572Y-46310765D01*
X195520671Y-46319030D01*
X195542850Y-46329520D01*
X195563893Y-46342132D01*
X195583599Y-46356747D01*
X195601777Y-46373223D01*
X195618253Y-46391401D01*
X195632868Y-46411107D01*
X195645480Y-46432150D01*
X195655970Y-46454329D01*
X195664235Y-46477428D01*
X195670196Y-46501227D01*
X195673796Y-46525495D01*
X195675000Y-46549999D01*
X195675000Y-47450001D01*
X195673796Y-47474505D01*
X195670196Y-47498773D01*
X195664235Y-47522572D01*
X195655970Y-47545671D01*
X195645480Y-47567850D01*
X195632868Y-47588893D01*
X195618253Y-47608599D01*
X195601777Y-47626777D01*
X195583599Y-47643253D01*
X195563893Y-47657868D01*
X195542850Y-47670480D01*
X195520671Y-47680970D01*
X195497572Y-47689235D01*
X195473773Y-47695196D01*
X195449505Y-47698796D01*
X195425001Y-47700000D01*
X194774999Y-47700000D01*
X194750495Y-47698796D01*
X194726227Y-47695196D01*
X194702428Y-47689235D01*
X194679329Y-47680970D01*
X194657150Y-47670480D01*
X194636107Y-47657868D01*
X194616401Y-47643253D01*
X194598223Y-47626777D01*
X194581747Y-47608599D01*
X194567132Y-47588893D01*
X194554520Y-47567850D01*
X194544030Y-47545671D01*
X194535765Y-47522572D01*
X194529804Y-47498773D01*
X194526204Y-47474505D01*
X194525000Y-47450001D01*
X194525000Y-46549999D01*
X194526204Y-46525495D01*
X194529804Y-46501227D01*
X194535765Y-46477428D01*
X194544030Y-46454329D01*
X194554520Y-46432150D01*
X194567132Y-46411107D01*
X194581747Y-46391401D01*
X194598223Y-46373223D01*
X194616401Y-46356747D01*
X194636107Y-46342132D01*
X194657150Y-46329520D01*
X194679329Y-46319030D01*
X194702428Y-46310765D01*
X194726227Y-46304804D01*
X194750495Y-46301204D01*
X194774999Y-46300000D01*
X195425001Y-46300000D01*
X195449505Y-46301204D01*
G37*
G36*
X193399505Y-46301204D02*
G01*
X193423773Y-46304804D01*
X193447572Y-46310765D01*
X193470671Y-46319030D01*
X193492850Y-46329520D01*
X193513893Y-46342132D01*
X193533599Y-46356747D01*
X193551777Y-46373223D01*
X193568253Y-46391401D01*
X193582868Y-46411107D01*
X193595480Y-46432150D01*
X193605970Y-46454329D01*
X193614235Y-46477428D01*
X193620196Y-46501227D01*
X193623796Y-46525495D01*
X193625000Y-46549999D01*
X193625000Y-47450001D01*
X193623796Y-47474505D01*
X193620196Y-47498773D01*
X193614235Y-47522572D01*
X193605970Y-47545671D01*
X193595480Y-47567850D01*
X193582868Y-47588893D01*
X193568253Y-47608599D01*
X193551777Y-47626777D01*
X193533599Y-47643253D01*
X193513893Y-47657868D01*
X193492850Y-47670480D01*
X193470671Y-47680970D01*
X193447572Y-47689235D01*
X193423773Y-47695196D01*
X193399505Y-47698796D01*
X193375001Y-47700000D01*
X192724999Y-47700000D01*
X192700495Y-47698796D01*
X192676227Y-47695196D01*
X192652428Y-47689235D01*
X192629329Y-47680970D01*
X192607150Y-47670480D01*
X192586107Y-47657868D01*
X192566401Y-47643253D01*
X192548223Y-47626777D01*
X192531747Y-47608599D01*
X192517132Y-47588893D01*
X192504520Y-47567850D01*
X192494030Y-47545671D01*
X192485765Y-47522572D01*
X192479804Y-47498773D01*
X192476204Y-47474505D01*
X192475000Y-47450001D01*
X192475000Y-46549999D01*
X192476204Y-46525495D01*
X192479804Y-46501227D01*
X192485765Y-46477428D01*
X192494030Y-46454329D01*
X192504520Y-46432150D01*
X192517132Y-46411107D01*
X192531747Y-46391401D01*
X192548223Y-46373223D01*
X192566401Y-46356747D01*
X192586107Y-46342132D01*
X192607150Y-46329520D01*
X192629329Y-46319030D01*
X192652428Y-46310765D01*
X192676227Y-46304804D01*
X192700495Y-46301204D01*
X192724999Y-46300000D01*
X193375001Y-46300000D01*
X193399505Y-46301204D01*
G37*
G36*
X195349505Y-55301204D02*
G01*
X195373773Y-55304804D01*
X195397572Y-55310765D01*
X195420671Y-55319030D01*
X195442850Y-55329520D01*
X195463893Y-55342132D01*
X195483599Y-55356747D01*
X195501777Y-55373223D01*
X195518253Y-55391401D01*
X195532868Y-55411107D01*
X195545480Y-55432150D01*
X195555970Y-55454329D01*
X195564235Y-55477428D01*
X195570196Y-55501227D01*
X195573796Y-55525495D01*
X195575000Y-55549999D01*
X195575000Y-56450001D01*
X195573796Y-56474505D01*
X195570196Y-56498773D01*
X195564235Y-56522572D01*
X195555970Y-56545671D01*
X195545480Y-56567850D01*
X195532868Y-56588893D01*
X195518253Y-56608599D01*
X195501777Y-56626777D01*
X195483599Y-56643253D01*
X195463893Y-56657868D01*
X195442850Y-56670480D01*
X195420671Y-56680970D01*
X195397572Y-56689235D01*
X195373773Y-56695196D01*
X195349505Y-56698796D01*
X195325001Y-56700000D01*
X194674999Y-56700000D01*
X194650495Y-56698796D01*
X194626227Y-56695196D01*
X194602428Y-56689235D01*
X194579329Y-56680970D01*
X194557150Y-56670480D01*
X194536107Y-56657868D01*
X194516401Y-56643253D01*
X194498223Y-56626777D01*
X194481747Y-56608599D01*
X194467132Y-56588893D01*
X194454520Y-56567850D01*
X194444030Y-56545671D01*
X194435765Y-56522572D01*
X194429804Y-56498773D01*
X194426204Y-56474505D01*
X194425000Y-56450001D01*
X194425000Y-55549999D01*
X194426204Y-55525495D01*
X194429804Y-55501227D01*
X194435765Y-55477428D01*
X194444030Y-55454329D01*
X194454520Y-55432150D01*
X194467132Y-55411107D01*
X194481747Y-55391401D01*
X194498223Y-55373223D01*
X194516401Y-55356747D01*
X194536107Y-55342132D01*
X194557150Y-55329520D01*
X194579329Y-55319030D01*
X194602428Y-55310765D01*
X194626227Y-55304804D01*
X194650495Y-55301204D01*
X194674999Y-55300000D01*
X195325001Y-55300000D01*
X195349505Y-55301204D01*
G37*
G36*
X193299505Y-55301204D02*
G01*
X193323773Y-55304804D01*
X193347572Y-55310765D01*
X193370671Y-55319030D01*
X193392850Y-55329520D01*
X193413893Y-55342132D01*
X193433599Y-55356747D01*
X193451777Y-55373223D01*
X193468253Y-55391401D01*
X193482868Y-55411107D01*
X193495480Y-55432150D01*
X193505970Y-55454329D01*
X193514235Y-55477428D01*
X193520196Y-55501227D01*
X193523796Y-55525495D01*
X193525000Y-55549999D01*
X193525000Y-56450001D01*
X193523796Y-56474505D01*
X193520196Y-56498773D01*
X193514235Y-56522572D01*
X193505970Y-56545671D01*
X193495480Y-56567850D01*
X193482868Y-56588893D01*
X193468253Y-56608599D01*
X193451777Y-56626777D01*
X193433599Y-56643253D01*
X193413893Y-56657868D01*
X193392850Y-56670480D01*
X193370671Y-56680970D01*
X193347572Y-56689235D01*
X193323773Y-56695196D01*
X193299505Y-56698796D01*
X193275001Y-56700000D01*
X192624999Y-56700000D01*
X192600495Y-56698796D01*
X192576227Y-56695196D01*
X192552428Y-56689235D01*
X192529329Y-56680970D01*
X192507150Y-56670480D01*
X192486107Y-56657868D01*
X192466401Y-56643253D01*
X192448223Y-56626777D01*
X192431747Y-56608599D01*
X192417132Y-56588893D01*
X192404520Y-56567850D01*
X192394030Y-56545671D01*
X192385765Y-56522572D01*
X192379804Y-56498773D01*
X192376204Y-56474505D01*
X192375000Y-56450001D01*
X192375000Y-55549999D01*
X192376204Y-55525495D01*
X192379804Y-55501227D01*
X192385765Y-55477428D01*
X192394030Y-55454329D01*
X192404520Y-55432150D01*
X192417132Y-55411107D01*
X192431747Y-55391401D01*
X192448223Y-55373223D01*
X192466401Y-55356747D01*
X192486107Y-55342132D01*
X192507150Y-55329520D01*
X192529329Y-55319030D01*
X192552428Y-55310765D01*
X192576227Y-55304804D01*
X192600495Y-55301204D01*
X192624999Y-55300000D01*
X193275001Y-55300000D01*
X193299505Y-55301204D01*
G37*
G36*
X193399505Y-64051204D02*
G01*
X193423773Y-64054804D01*
X193447572Y-64060765D01*
X193470671Y-64069030D01*
X193492850Y-64079520D01*
X193513893Y-64092132D01*
X193533599Y-64106747D01*
X193551777Y-64123223D01*
X193568253Y-64141401D01*
X193582868Y-64161107D01*
X193595480Y-64182150D01*
X193605970Y-64204329D01*
X193614235Y-64227428D01*
X193620196Y-64251227D01*
X193623796Y-64275495D01*
X193625000Y-64299999D01*
X193625000Y-65200001D01*
X193623796Y-65224505D01*
X193620196Y-65248773D01*
X193614235Y-65272572D01*
X193605970Y-65295671D01*
X193595480Y-65317850D01*
X193582868Y-65338893D01*
X193568253Y-65358599D01*
X193551777Y-65376777D01*
X193533599Y-65393253D01*
X193513893Y-65407868D01*
X193492850Y-65420480D01*
X193470671Y-65430970D01*
X193447572Y-65439235D01*
X193423773Y-65445196D01*
X193399505Y-65448796D01*
X193375001Y-65450000D01*
X192724999Y-65450000D01*
X192700495Y-65448796D01*
X192676227Y-65445196D01*
X192652428Y-65439235D01*
X192629329Y-65430970D01*
X192607150Y-65420480D01*
X192586107Y-65407868D01*
X192566401Y-65393253D01*
X192548223Y-65376777D01*
X192531747Y-65358599D01*
X192517132Y-65338893D01*
X192504520Y-65317850D01*
X192494030Y-65295671D01*
X192485765Y-65272572D01*
X192479804Y-65248773D01*
X192476204Y-65224505D01*
X192475000Y-65200001D01*
X192475000Y-64299999D01*
X192476204Y-64275495D01*
X192479804Y-64251227D01*
X192485765Y-64227428D01*
X192494030Y-64204329D01*
X192504520Y-64182150D01*
X192517132Y-64161107D01*
X192531747Y-64141401D01*
X192548223Y-64123223D01*
X192566401Y-64106747D01*
X192586107Y-64092132D01*
X192607150Y-64079520D01*
X192629329Y-64069030D01*
X192652428Y-64060765D01*
X192676227Y-64054804D01*
X192700495Y-64051204D01*
X192724999Y-64050000D01*
X193375001Y-64050000D01*
X193399505Y-64051204D01*
G37*
G36*
X195449505Y-64051204D02*
G01*
X195473773Y-64054804D01*
X195497572Y-64060765D01*
X195520671Y-64069030D01*
X195542850Y-64079520D01*
X195563893Y-64092132D01*
X195583599Y-64106747D01*
X195601777Y-64123223D01*
X195618253Y-64141401D01*
X195632868Y-64161107D01*
X195645480Y-64182150D01*
X195655970Y-64204329D01*
X195664235Y-64227428D01*
X195670196Y-64251227D01*
X195673796Y-64275495D01*
X195675000Y-64299999D01*
X195675000Y-65200001D01*
X195673796Y-65224505D01*
X195670196Y-65248773D01*
X195664235Y-65272572D01*
X195655970Y-65295671D01*
X195645480Y-65317850D01*
X195632868Y-65338893D01*
X195618253Y-65358599D01*
X195601777Y-65376777D01*
X195583599Y-65393253D01*
X195563893Y-65407868D01*
X195542850Y-65420480D01*
X195520671Y-65430970D01*
X195497572Y-65439235D01*
X195473773Y-65445196D01*
X195449505Y-65448796D01*
X195425001Y-65450000D01*
X194774999Y-65450000D01*
X194750495Y-65448796D01*
X194726227Y-65445196D01*
X194702428Y-65439235D01*
X194679329Y-65430970D01*
X194657150Y-65420480D01*
X194636107Y-65407868D01*
X194616401Y-65393253D01*
X194598223Y-65376777D01*
X194581747Y-65358599D01*
X194567132Y-65338893D01*
X194554520Y-65317850D01*
X194544030Y-65295671D01*
X194535765Y-65272572D01*
X194529804Y-65248773D01*
X194526204Y-65224505D01*
X194525000Y-65200001D01*
X194525000Y-64299999D01*
X194526204Y-64275495D01*
X194529804Y-64251227D01*
X194535765Y-64227428D01*
X194544030Y-64204329D01*
X194554520Y-64182150D01*
X194567132Y-64161107D01*
X194581747Y-64141401D01*
X194598223Y-64123223D01*
X194616401Y-64106747D01*
X194636107Y-64092132D01*
X194657150Y-64079520D01*
X194679329Y-64069030D01*
X194702428Y-64060765D01*
X194726227Y-64054804D01*
X194750495Y-64051204D01*
X194774999Y-64050000D01*
X195425001Y-64050000D01*
X195449505Y-64051204D01*
G37*
G36*
X195449505Y-72801204D02*
G01*
X195473773Y-72804804D01*
X195497572Y-72810765D01*
X195520671Y-72819030D01*
X195542850Y-72829520D01*
X195563893Y-72842132D01*
X195583599Y-72856747D01*
X195601777Y-72873223D01*
X195618253Y-72891401D01*
X195632868Y-72911107D01*
X195645480Y-72932150D01*
X195655970Y-72954329D01*
X195664235Y-72977428D01*
X195670196Y-73001227D01*
X195673796Y-73025495D01*
X195675000Y-73049999D01*
X195675000Y-73950001D01*
X195673796Y-73974505D01*
X195670196Y-73998773D01*
X195664235Y-74022572D01*
X195655970Y-74045671D01*
X195645480Y-74067850D01*
X195632868Y-74088893D01*
X195618253Y-74108599D01*
X195601777Y-74126777D01*
X195583599Y-74143253D01*
X195563893Y-74157868D01*
X195542850Y-74170480D01*
X195520671Y-74180970D01*
X195497572Y-74189235D01*
X195473773Y-74195196D01*
X195449505Y-74198796D01*
X195425001Y-74200000D01*
X194774999Y-74200000D01*
X194750495Y-74198796D01*
X194726227Y-74195196D01*
X194702428Y-74189235D01*
X194679329Y-74180970D01*
X194657150Y-74170480D01*
X194636107Y-74157868D01*
X194616401Y-74143253D01*
X194598223Y-74126777D01*
X194581747Y-74108599D01*
X194567132Y-74088893D01*
X194554520Y-74067850D01*
X194544030Y-74045671D01*
X194535765Y-74022572D01*
X194529804Y-73998773D01*
X194526204Y-73974505D01*
X194525000Y-73950001D01*
X194525000Y-73049999D01*
X194526204Y-73025495D01*
X194529804Y-73001227D01*
X194535765Y-72977428D01*
X194544030Y-72954329D01*
X194554520Y-72932150D01*
X194567132Y-72911107D01*
X194581747Y-72891401D01*
X194598223Y-72873223D01*
X194616401Y-72856747D01*
X194636107Y-72842132D01*
X194657150Y-72829520D01*
X194679329Y-72819030D01*
X194702428Y-72810765D01*
X194726227Y-72804804D01*
X194750495Y-72801204D01*
X194774999Y-72800000D01*
X195425001Y-72800000D01*
X195449505Y-72801204D01*
G37*
G36*
X193399505Y-72801204D02*
G01*
X193423773Y-72804804D01*
X193447572Y-72810765D01*
X193470671Y-72819030D01*
X193492850Y-72829520D01*
X193513893Y-72842132D01*
X193533599Y-72856747D01*
X193551777Y-72873223D01*
X193568253Y-72891401D01*
X193582868Y-72911107D01*
X193595480Y-72932150D01*
X193605970Y-72954329D01*
X193614235Y-72977428D01*
X193620196Y-73001227D01*
X193623796Y-73025495D01*
X193625000Y-73049999D01*
X193625000Y-73950001D01*
X193623796Y-73974505D01*
X193620196Y-73998773D01*
X193614235Y-74022572D01*
X193605970Y-74045671D01*
X193595480Y-74067850D01*
X193582868Y-74088893D01*
X193568253Y-74108599D01*
X193551777Y-74126777D01*
X193533599Y-74143253D01*
X193513893Y-74157868D01*
X193492850Y-74170480D01*
X193470671Y-74180970D01*
X193447572Y-74189235D01*
X193423773Y-74195196D01*
X193399505Y-74198796D01*
X193375001Y-74200000D01*
X192724999Y-74200000D01*
X192700495Y-74198796D01*
X192676227Y-74195196D01*
X192652428Y-74189235D01*
X192629329Y-74180970D01*
X192607150Y-74170480D01*
X192586107Y-74157868D01*
X192566401Y-74143253D01*
X192548223Y-74126777D01*
X192531747Y-74108599D01*
X192517132Y-74088893D01*
X192504520Y-74067850D01*
X192494030Y-74045671D01*
X192485765Y-74022572D01*
X192479804Y-73998773D01*
X192476204Y-73974505D01*
X192475000Y-73950001D01*
X192475000Y-73049999D01*
X192476204Y-73025495D01*
X192479804Y-73001227D01*
X192485765Y-72977428D01*
X192494030Y-72954329D01*
X192504520Y-72932150D01*
X192517132Y-72911107D01*
X192531747Y-72891401D01*
X192548223Y-72873223D01*
X192566401Y-72856747D01*
X192586107Y-72842132D01*
X192607150Y-72829520D01*
X192629329Y-72819030D01*
X192652428Y-72810765D01*
X192676227Y-72804804D01*
X192700495Y-72801204D01*
X192724999Y-72800000D01*
X193375001Y-72800000D01*
X193399505Y-72801204D01*
G37*
G36*
X193399505Y-81551204D02*
G01*
X193423773Y-81554804D01*
X193447572Y-81560765D01*
X193470671Y-81569030D01*
X193492850Y-81579520D01*
X193513893Y-81592132D01*
X193533599Y-81606747D01*
X193551777Y-81623223D01*
X193568253Y-81641401D01*
X193582868Y-81661107D01*
X193595480Y-81682150D01*
X193605970Y-81704329D01*
X193614235Y-81727428D01*
X193620196Y-81751227D01*
X193623796Y-81775495D01*
X193625000Y-81799999D01*
X193625000Y-82700001D01*
X193623796Y-82724505D01*
X193620196Y-82748773D01*
X193614235Y-82772572D01*
X193605970Y-82795671D01*
X193595480Y-82817850D01*
X193582868Y-82838893D01*
X193568253Y-82858599D01*
X193551777Y-82876777D01*
X193533599Y-82893253D01*
X193513893Y-82907868D01*
X193492850Y-82920480D01*
X193470671Y-82930970D01*
X193447572Y-82939235D01*
X193423773Y-82945196D01*
X193399505Y-82948796D01*
X193375001Y-82950000D01*
X192724999Y-82950000D01*
X192700495Y-82948796D01*
X192676227Y-82945196D01*
X192652428Y-82939235D01*
X192629329Y-82930970D01*
X192607150Y-82920480D01*
X192586107Y-82907868D01*
X192566401Y-82893253D01*
X192548223Y-82876777D01*
X192531747Y-82858599D01*
X192517132Y-82838893D01*
X192504520Y-82817850D01*
X192494030Y-82795671D01*
X192485765Y-82772572D01*
X192479804Y-82748773D01*
X192476204Y-82724505D01*
X192475000Y-82700001D01*
X192475000Y-81799999D01*
X192476204Y-81775495D01*
X192479804Y-81751227D01*
X192485765Y-81727428D01*
X192494030Y-81704329D01*
X192504520Y-81682150D01*
X192517132Y-81661107D01*
X192531747Y-81641401D01*
X192548223Y-81623223D01*
X192566401Y-81606747D01*
X192586107Y-81592132D01*
X192607150Y-81579520D01*
X192629329Y-81569030D01*
X192652428Y-81560765D01*
X192676227Y-81554804D01*
X192700495Y-81551204D01*
X192724999Y-81550000D01*
X193375001Y-81550000D01*
X193399505Y-81551204D01*
G37*
G36*
X195449505Y-81551204D02*
G01*
X195473773Y-81554804D01*
X195497572Y-81560765D01*
X195520671Y-81569030D01*
X195542850Y-81579520D01*
X195563893Y-81592132D01*
X195583599Y-81606747D01*
X195601777Y-81623223D01*
X195618253Y-81641401D01*
X195632868Y-81661107D01*
X195645480Y-81682150D01*
X195655970Y-81704329D01*
X195664235Y-81727428D01*
X195670196Y-81751227D01*
X195673796Y-81775495D01*
X195675000Y-81799999D01*
X195675000Y-82700001D01*
X195673796Y-82724505D01*
X195670196Y-82748773D01*
X195664235Y-82772572D01*
X195655970Y-82795671D01*
X195645480Y-82817850D01*
X195632868Y-82838893D01*
X195618253Y-82858599D01*
X195601777Y-82876777D01*
X195583599Y-82893253D01*
X195563893Y-82907868D01*
X195542850Y-82920480D01*
X195520671Y-82930970D01*
X195497572Y-82939235D01*
X195473773Y-82945196D01*
X195449505Y-82948796D01*
X195425001Y-82950000D01*
X194774999Y-82950000D01*
X194750495Y-82948796D01*
X194726227Y-82945196D01*
X194702428Y-82939235D01*
X194679329Y-82930970D01*
X194657150Y-82920480D01*
X194636107Y-82907868D01*
X194616401Y-82893253D01*
X194598223Y-82876777D01*
X194581747Y-82858599D01*
X194567132Y-82838893D01*
X194554520Y-82817850D01*
X194544030Y-82795671D01*
X194535765Y-82772572D01*
X194529804Y-82748773D01*
X194526204Y-82724505D01*
X194525000Y-82700001D01*
X194525000Y-81799999D01*
X194526204Y-81775495D01*
X194529804Y-81751227D01*
X194535765Y-81727428D01*
X194544030Y-81704329D01*
X194554520Y-81682150D01*
X194567132Y-81661107D01*
X194581747Y-81641401D01*
X194598223Y-81623223D01*
X194616401Y-81606747D01*
X194636107Y-81592132D01*
X194657150Y-81579520D01*
X194679329Y-81569030D01*
X194702428Y-81560765D01*
X194726227Y-81554804D01*
X194750495Y-81551204D01*
X194774999Y-81550000D01*
X195425001Y-81550000D01*
X195449505Y-81551204D01*
G37*
M02*
